<svg width="511" height="420" viewBox="0 0 511 420" fill="none" xmlns="http://www.w3.org/2000/svg">
<g clip-path="url(#clip0_400_5232)">
<path d="M415.868 42.212C419.134 28.9035 416.029 13.3828 405.481 4.62891C405.274 19.5286 399.801 33.8753 390.029 45.1304C386.245 49.4574 381.585 53.8763 381.402 59.6202C381.288 63.1942 383.033 66.627 385.439 69.2739C387.845 71.9209 390.88 73.9018 393.878 75.8524L394.319 76.629C403.972 66.898 412.603 55.5204 415.868 42.212Z" fill="#F0F0F0"/>
<path d="M405.269 4.82334C409.314 15.4202 409.916 27.0215 406.988 37.9794C406.4 40.3496 405.441 42.6123 404.148 44.6842C402.823 46.6618 400.992 48.2486 398.845 49.2799C396.863 50.2816 394.72 51.0769 393.016 52.5427C392.155 53.306 391.465 54.2425 390.992 55.2908C390.518 56.3392 390.272 57.4757 390.269 58.6259C390.186 61.4916 391.139 64.216 392.164 66.8478C393.301 69.77 394.529 72.7872 394.266 75.9865C394.235 76.3741 394.838 76.4009 394.87 76.0138C395.328 70.4475 391.545 65.7458 390.945 60.3468C390.665 57.8275 391.143 55.2087 393.007 53.3719C394.637 51.7657 396.846 50.9437 398.862 49.9467C400.971 48.9714 402.808 47.4949 404.214 45.6462C405.609 43.6468 406.653 41.4248 407.302 39.0753C408.847 33.8091 409.554 28.3329 409.397 22.8472C409.253 16.5855 408.037 10.3946 405.804 4.54242C405.665 4.18026 405.131 4.46354 405.269 4.82333V4.82334Z" fill="white"/>
<path d="M408.138 34.5065C410.045 34.7478 411.975 34.304 413.584 33.2545C415.193 32.2049 416.377 30.6178 416.923 28.7768C417.032 28.4038 416.458 28.2166 416.348 28.59C415.842 30.3054 414.74 31.7836 413.239 32.7579C411.739 33.7322 409.939 34.1384 408.166 33.9032C407.78 33.8525 407.755 34.4561 408.138 34.5065Z" fill="white"/>
<path d="M399.918 48.9042C397.484 45.8232 396.301 41.9385 396.605 38.0247C396.636 37.637 396.032 37.6101 396.002 37.9974C395.692 42.0708 396.931 46.1109 399.472 49.3115C399.714 49.6164 400.159 49.2075 399.918 48.9042Z" fill="white"/>
<path d="M408.525 16.9205C407.768 16.9807 407.008 16.8521 406.313 16.5462C405.618 16.2402 405.009 15.7665 404.543 15.1677C404.305 14.8598 403.86 15.2692 404.097 15.575C404.615 16.2342 405.288 16.7565 406.055 17.0962C406.822 17.436 407.661 17.5828 408.498 17.5238C408.577 17.5249 408.654 17.4957 408.712 17.4422C408.771 17.3887 408.807 17.3149 408.813 17.2358C408.816 17.1559 408.788 17.078 408.734 17.0189C408.68 16.9599 408.605 16.9245 408.525 16.9205Z" fill="white"/>
<path d="M359.863 13.2444C360.007 13.4409 360.15 13.6373 360.292 13.8386C362.205 16.4895 363.9 19.2914 365.36 22.2166C365.476 22.441 365.591 22.6701 365.701 22.8974C369.142 29.9823 371.237 37.6442 371.879 45.4935C372.132 48.6172 372.147 51.7555 371.923 54.8814C371.614 59.1983 370.935 63.8544 372.038 67.9021C372.149 68.3257 372.285 68.742 372.447 69.1488L393.335 77.1057C393.392 77.1 393.447 77.0991 393.504 77.0935L394.323 77.4493C394.346 77.2889 394.366 77.122 394.389 76.9616C394.403 76.8686 394.412 76.7739 394.425 76.6809C394.433 76.6183 394.44 76.5556 394.451 76.4996C394.453 76.4788 394.456 76.4579 394.456 76.4418C394.467 76.3858 394.471 76.3327 394.479 76.2814C394.595 75.349 394.704 74.4142 394.807 73.4769C394.808 73.4722 394.808 73.4722 394.806 73.4656C395.657 66.3314 395.659 59.1214 394.811 51.9868C394.782 51.7742 394.756 51.557 394.719 51.3408C394.279 48.1583 393.581 45.0171 392.63 41.9484C392.103 40.2698 391.493 38.6188 390.799 37.0019C389 32.8275 386.555 28.962 383.553 25.547C377.569 18.74 369.473 13.9215 360.546 13.2862C360.317 13.2702 360.093 13.2557 359.863 13.2444Z" fill="#F0F0F0"/>
<path d="M359.81 13.5273C369.424 19.5541 376.893 28.4551 381.157 38.9661C382.115 41.2125 382.713 43.5959 382.929 46.0284C383.062 48.4048 382.556 50.7735 381.464 52.8883C380.485 54.8807 379.252 56.8054 378.775 59.0009C378.547 60.1284 378.561 61.2912 378.814 62.4131C379.068 63.5351 379.556 64.5907 380.246 65.5109C381.907 67.8486 384.309 69.4504 386.713 70.9353C389.381 72.5841 392.18 74.2543 393.897 76.967C394.105 77.2957 394.603 76.9538 394.396 76.6256C391.407 71.9059 385.554 70.4279 381.823 66.4781C380.082 64.6351 378.885 62.2564 379.267 59.6684C379.601 57.4053 380.87 55.4195 381.879 53.4107C382.975 51.3632 383.552 49.0786 383.561 46.7565C383.47 44.3209 382.965 41.9185 382.068 39.6522C380.129 34.5177 377.394 29.7199 373.964 25.4344C370.076 20.5217 365.376 16.3098 360.068 12.981C359.739 12.7751 359.483 13.3227 359.81 13.5273V13.5273Z" fill="white"/>
<path d="M379.985 35.5008C381.652 34.5465 382.926 33.0308 383.578 31.2246C384.231 29.4183 384.22 27.4391 383.547 25.6403C383.409 25.2768 382.838 25.4731 382.975 25.8371C383.605 27.5109 383.615 29.3546 383.004 31.0354C382.393 32.7161 381.201 34.1232 379.643 35.0026C379.305 35.1942 379.648 35.6913 379.985 35.5008Z" fill="white"/>
<path d="M382.094 51.9435C378.294 50.9481 375.009 48.558 372.894 45.2498C372.685 44.9219 372.187 45.2637 372.396 45.5913C374.603 49.0297 378.026 51.51 381.983 52.5371C382.36 52.6348 382.469 52.0406 382.094 51.9435Z" fill="white"/>
<path d="M369.697 21.2271C369.129 21.7307 368.444 22.0854 367.705 22.2593C366.966 22.4333 366.195 22.421 365.461 22.2235C365.086 22.1212 364.977 22.7155 365.351 22.8172C366.162 23.0316 367.013 23.0441 367.83 22.8538C368.648 22.6634 369.406 22.276 370.038 21.7253C370.102 21.6783 370.146 21.6088 370.161 21.5309C370.175 21.4529 370.16 21.3723 370.117 21.3055C370.071 21.2397 370.002 21.1946 369.923 21.18C369.844 21.1653 369.763 21.1822 369.697 21.2271V21.2271Z" fill="white"/>
<path d="M332.246 313.864C262.216 313.864 205.242 256.926 205.242 186.94C205.242 116.954 262.216 60.0164 332.246 60.0164C339.65 60.0155 347.04 60.6554 354.333 61.9291C354.424 61.9448 354.511 61.9782 354.589 62.0275C354.667 62.0769 354.734 62.1411 354.788 62.2165C354.841 62.2919 354.878 62.3771 354.898 62.4671C354.919 62.5571 354.921 62.6502 354.905 62.741C354.889 62.8319 354.855 62.9187 354.806 62.9965C354.756 63.0743 354.692 63.1416 354.616 63.1945C354.54 63.2473 354.455 63.2848 354.365 63.3047C354.275 63.3246 354.182 63.3265 354.091 63.3103C346.878 62.0509 339.569 61.4181 332.246 61.4189C262.99 61.4189 206.646 117.727 206.646 186.94C206.646 256.153 262.99 312.461 332.246 312.461C401.503 312.461 457.847 256.153 457.847 186.94C457.878 155.657 446.189 125.495 425.082 102.393C424.958 102.255 424.893 102.074 424.902 101.889C424.911 101.704 424.993 101.53 425.13 101.405C425.268 101.28 425.448 101.215 425.634 101.223C425.819 101.231 425.993 101.312 426.119 101.448C447.462 124.808 459.282 155.307 459.25 186.94C459.25 256.926 402.277 313.864 332.246 313.864Z" fill="#E4E4E4"/>
<path d="M388.245 103.547C402.123 103.547 413.373 92.3037 413.373 78.4348C413.373 64.5658 402.123 53.3228 388.245 53.3228C374.367 53.3228 363.117 64.5658 363.117 78.4348C363.117 92.3037 374.367 103.547 388.245 103.547Z" fill="#FF6633"/>
<path d="M384.816 91.5044C384.382 91.5044 383.954 91.4034 383.566 91.2094C383.178 91.0154 382.841 90.7338 382.58 90.3868L375.725 81.2521C375.505 80.9586 375.345 80.6247 375.253 80.2693C375.162 79.914 375.142 79.5442 375.194 79.1811C375.246 78.8179 375.369 78.4686 375.556 78.1529C375.743 77.8373 375.99 77.5616 376.284 77.3415C376.578 77.1214 376.912 76.9613 377.268 76.8702C377.623 76.7792 377.993 76.7591 378.356 76.811C378.72 76.8629 379.069 76.9858 379.385 77.1727C379.701 77.3596 379.977 77.6068 380.197 77.9003L384.682 83.876L396.201 66.6086C396.614 65.9947 397.253 65.5692 397.978 65.4254C398.704 65.2815 399.457 65.431 400.073 65.8411C400.688 66.2512 401.116 66.8885 401.262 67.6133C401.408 68.338 401.261 69.0912 400.853 69.7076L387.142 90.2604C386.894 90.6321 386.56 90.939 386.169 91.1553C385.778 91.3716 385.341 91.491 384.894 91.5035C384.868 91.5039 384.842 91.5044 384.816 91.5044Z" fill="white"/>
<path d="M328.979 167.243L290.229 59.5117L291.212 59.1587L284.086 39.344L283.103 39.6973L271.205 6.62043C270.761 5.38504 270.077 4.24921 269.194 3.27779C268.31 2.30637 267.244 1.51839 266.056 0.95883C264.867 0.399272 263.58 0.0790942 262.268 0.0165875C260.956 -0.0459192 259.645 0.150466 258.408 0.594527L188.358 25.7585C187.122 26.2026 185.985 26.8856 185.013 27.7686C184.041 28.6516 183.253 29.7173 182.693 30.9048C182.133 32.0923 181.812 33.3785 181.75 34.6898C181.687 36.001 181.884 37.3118 182.328 38.5472L190.623 61.6104L189.071 62.2079L194.366 75.9501L195.609 75.4717L196.709 78.5285L195.386 79.0376L200.681 92.7798L201.694 92.3899L240.101 199.17C240.544 200.407 241.226 201.544 242.109 202.517C242.992 203.49 244.059 204.279 245.248 204.839C246.437 205.399 247.725 205.718 249.037 205.78C250.35 205.841 251.662 205.643 252.898 205.196L322.949 180.032C325.443 179.133 327.479 177.281 328.61 174.884C329.74 172.486 329.873 169.738 328.979 167.243Z" fill="#3F3D56"/>
<path d="M249.214 201.645C248.228 201.643 247.266 201.338 246.459 200.77C245.653 200.202 245.041 199.4 244.706 198.473L186.323 36.1549C185.894 34.9593 185.956 33.6421 186.498 32.493C187.04 31.3438 188.017 30.4567 189.213 30.0269L204.117 24.6728L204.095 25.1939C204.057 26.0986 204.242 26.9988 204.634 27.8151C205.025 28.6315 205.612 29.3391 206.342 29.8754C207.072 30.4118 207.923 30.7605 208.819 30.8909C209.716 31.0213 210.631 30.9293 211.484 30.623L244.561 18.7408C245.36 18.3752 246.061 17.8269 246.608 17.1403C247.155 16.4536 247.532 15.648 247.71 14.7884C247.886 13.9432 247.859 13.0684 247.632 12.2355C247.406 11.4025 246.985 10.635 246.404 9.99549L246.055 9.60754L261.451 4.07676C262.647 3.64881 263.965 3.71248 265.114 4.25383C266.264 4.79517 267.152 5.77 267.583 6.96456L323.286 161.829C324.422 165.002 324.254 168.496 322.816 171.544C321.379 174.592 318.79 176.946 315.619 178.09L250.839 201.361C250.318 201.548 249.768 201.645 249.214 201.645Z" fill="white"/>
<path d="M243.506 86.5165C253.969 86.5165 262.451 78.0397 262.451 67.5831C262.451 57.1265 253.969 48.6497 243.506 48.6497C233.043 48.6497 224.561 57.1265 224.561 67.5831C224.561 78.0397 233.043 86.5165 243.506 86.5165Z" fill="#FF6633"/>
<path d="M290.453 95.1167L224.844 118.685C224.639 118.759 224.422 118.792 224.204 118.782C223.986 118.772 223.773 118.72 223.576 118.627C223.378 118.534 223.201 118.404 223.055 118.243C222.908 118.082 222.794 117.893 222.721 117.688C222.647 117.483 222.614 117.266 222.625 117.048C222.635 116.831 222.689 116.617 222.782 116.42C222.875 116.223 223.006 116.047 223.168 115.901C223.329 115.754 223.518 115.641 223.723 115.568L289.332 91.9997C289.745 91.8525 290.2 91.875 290.597 92.0624C290.993 92.2498 291.3 92.5868 291.448 92.9995C291.596 93.4121 291.575 93.8667 291.389 94.2637C291.202 94.6606 290.866 94.9673 290.453 95.1167Z" fill="#E6E6E6"/>
<path d="M270.969 110.06L249.389 117.813C249.184 117.887 248.966 117.92 248.749 117.909C248.531 117.899 248.318 117.847 248.12 117.754C247.923 117.661 247.746 117.531 247.599 117.37C247.453 117.209 247.339 117.02 247.266 116.815C247.192 116.61 247.159 116.393 247.17 116.175C247.18 115.958 247.234 115.745 247.327 115.548C247.42 115.351 247.551 115.174 247.712 115.028C247.874 114.882 248.062 114.769 248.268 114.695L269.848 106.943C270.262 106.794 270.718 106.816 271.115 107.003C271.513 107.191 271.82 107.528 271.968 107.941C272.117 108.355 272.095 108.81 271.908 109.208C271.721 109.605 271.383 109.912 270.969 110.06Z" fill="#E6E6E6"/>
<path d="M276.103 124.331L254.523 132.083C254.318 132.157 254.1 132.189 253.883 132.179C253.666 132.169 253.452 132.116 253.256 132.023C253.059 131.93 252.882 131.8 252.736 131.639C252.589 131.478 252.476 131.29 252.402 131.085C252.329 130.88 252.296 130.663 252.307 130.446C252.317 130.229 252.37 130.015 252.463 129.819C252.556 129.622 252.686 129.445 252.847 129.299C253.008 129.153 253.197 129.04 253.401 128.966L274.982 121.214C275.395 121.065 275.851 121.087 276.249 121.274C276.646 121.461 276.953 121.799 277.102 122.212C277.251 122.625 277.229 123.081 277.042 123.478C276.854 123.876 276.517 124.182 276.103 124.331V124.331Z" fill="#E6E6E6"/>
<path d="M278.732 131.64L257.151 139.393C256.946 139.467 256.729 139.5 256.511 139.49C256.293 139.48 256.08 139.427 255.882 139.335C255.685 139.242 255.508 139.111 255.361 138.95C255.215 138.789 255.101 138.601 255.027 138.396C254.954 138.191 254.921 137.973 254.932 137.756C254.942 137.538 254.995 137.325 255.089 137.128C255.182 136.931 255.313 136.754 255.475 136.608C255.636 136.462 255.825 136.349 256.03 136.276L277.611 128.523C277.816 128.449 278.033 128.416 278.251 128.426C278.469 128.436 278.682 128.489 278.88 128.582C279.077 128.674 279.254 128.805 279.401 128.966C279.547 129.127 279.661 129.315 279.734 129.52C279.808 129.725 279.841 129.943 279.83 130.16C279.82 130.378 279.766 130.591 279.673 130.788C279.58 130.985 279.449 131.162 279.288 131.308C279.126 131.454 278.937 131.567 278.732 131.64L278.732 131.64Z" fill="#E6E6E6"/>
<path d="M285.602 112.748L239.815 129.196C239.61 129.27 239.393 129.303 239.175 129.293C238.957 129.283 238.744 129.23 238.546 129.137C238.349 129.045 238.172 128.914 238.025 128.753C237.879 128.592 237.765 128.403 237.691 128.198C237.618 127.994 237.585 127.776 237.596 127.559C237.606 127.341 237.66 127.128 237.753 126.931C237.846 126.734 237.977 126.557 238.138 126.411C238.3 126.265 238.489 126.152 238.694 126.079L284.481 109.631C284.685 109.557 284.903 109.523 285.121 109.533C285.338 109.543 285.552 109.596 285.749 109.689C285.947 109.782 286.124 109.912 286.27 110.073C286.417 110.234 286.53 110.423 286.604 110.628C286.678 110.833 286.71 111.05 286.7 111.268C286.689 111.485 286.636 111.699 286.543 111.895C286.45 112.092 286.319 112.269 286.157 112.415C285.996 112.562 285.807 112.674 285.602 112.748Z" fill="#E6E6E6"/>
<path d="M276.381 149.384L268.545 152.199C267.842 152.451 267.067 152.413 266.391 152.095C265.716 151.777 265.194 151.203 264.942 150.5C264.689 149.798 264.726 149.024 265.044 148.348C265.362 147.673 265.935 147.151 266.638 146.898L274.474 144.083C275.177 143.831 275.952 143.869 276.628 144.187C277.303 144.506 277.825 145.079 278.077 145.782C278.33 146.484 278.293 147.258 277.975 147.934C277.657 148.609 277.083 149.131 276.381 149.384Z" fill="#FF6633"/>
<path d="M214.631 25.1977C215.233 25.1977 215.72 24.7102 215.72 24.1087C215.72 23.5073 215.233 23.0197 214.631 23.0197C214.029 23.0197 213.541 23.5073 213.541 24.1087C213.541 24.7102 214.029 25.1977 214.631 25.1977Z" fill="white"/>
<path d="M89.3114 85.3571C101.525 70.9899 121.341 61.9354 139.61 66.6297C123.156 78.872 111.565 96.5361 106.888 116.497C105.112 124.201 103.94 132.956 97.6803 137.791C93.7857 140.8 88.5488 141.622 83.6567 141.076C78.7644 140.53 74.108 138.746 69.5143 136.978L68.293 137.113C71.3653 118.513 77.0983 99.7243 89.3114 85.3571Z" fill="#F0F0F0"/>
<path d="M139.564 67.0226C124.482 71.059 111.055 79.742 101.192 91.8384C99.0227 94.4048 97.2714 97.2969 96.003 100.408C94.8654 103.479 94.5714 106.798 95.1515 110.021C95.632 113.037 96.473 116.066 96.2116 119.146C96.0543 120.721 95.5658 122.244 94.7781 123.617C93.9903 124.989 92.9211 126.18 91.6406 127.111C88.5102 129.513 84.7029 130.648 80.941 131.628C76.7643 132.717 72.4086 133.781 69.0517 136.654C68.645 137.002 68.1284 136.351 68.5345 136.003C74.3749 131.006 82.6695 131.429 89.1759 127.745C92.2119 126.026 94.7478 123.382 95.2941 119.825C95.7718 116.714 94.9072 113.589 94.3943 110.54C93.7822 107.404 93.9478 104.167 94.8764 101.11C95.9822 97.9439 97.619 94.9892 99.7168 92.3722C104.346 86.405 109.884 81.2023 116.13 76.9546C123.232 72.0672 131.117 68.4299 139.446 66.2C139.962 66.0622 140.076 66.8857 139.564 67.0226H139.564Z" fill="white"/>
<path d="M104.139 87.7565C102.333 85.8273 101.272 83.3192 101.146 80.6802C101.019 78.0412 101.835 75.4432 103.448 73.3501C103.776 72.9277 104.449 73.4171 104.12 73.84C102.614 75.7863 101.854 78.2065 101.977 80.6636C102.1 83.1208 103.098 85.4531 104.79 87.2397C105.158 87.6284 104.505 88.143 104.139 87.7565H104.139Z" fill="white"/>
<path d="M94.7069 108.524C100.106 108.752 105.393 106.938 109.514 103.443C109.922 103.096 110.438 103.747 110.031 104.094C105.736 107.722 100.231 109.599 94.6123 109.349C94.0768 109.325 94.1743 108.5 94.7069 108.524Z" fill="white"/>
<path d="M123.447 73.1482C123.99 74.0402 124.746 74.7834 125.648 75.3111C126.55 75.8388 127.568 76.1344 128.612 76.1714C129.148 76.1887 129.05 77.0141 128.518 76.9969C127.364 76.9506 126.24 76.6228 125.242 76.042C124.245 75.4612 123.405 74.6451 122.796 73.665C122.731 73.5775 122.701 73.4684 122.714 73.36C122.726 73.2515 122.779 73.1519 122.863 73.0813C122.949 73.0133 123.059 72.9822 123.168 72.9947C123.278 73.0072 123.378 73.0624 123.447 73.1482Z" fill="white"/>
<path d="M166.778 124.396C166.443 124.395 166.109 124.394 165.77 124.398C161.27 124.403 156.778 124.774 152.338 125.506C151.994 125.557 151.646 125.614 151.304 125.675C140.626 127.554 130.391 131.397 121.117 137.009C117.428 139.246 113.916 141.76 110.609 144.529C106.043 148.354 101.396 152.864 95.9916 154.899C95.4301 155.117 94.8556 155.301 94.2714 155.448L68.5546 138.592C68.5154 138.524 68.4721 138.462 68.4326 138.394L67.375 137.768C67.5356 137.614 67.7054 137.457 67.8659 137.302C67.9587 137.212 68.0572 137.125 68.15 137.035C68.2136 136.976 68.2776 136.917 68.3317 136.861C68.3528 136.841 68.3741 136.821 68.3914 136.808C68.4455 136.751 68.5018 136.704 68.552 136.653C69.499 135.772 70.4538 134.897 71.4164 134.027C71.4203 134.021 71.4203 134.021 71.4299 134.019C78.7817 127.408 86.7504 121.352 95.3855 116.697C95.6454 116.557 95.9088 116.411 96.1804 116.279C100.084 114.202 104.152 112.448 108.342 111.033C110.638 110.266 112.973 109.616 115.335 109.085C121.442 107.724 127.726 107.331 133.955 107.922C146.373 109.101 158.275 114.236 166.181 123.67C166.383 123.911 166.58 124.149 166.778 124.396Z" fill="#F0F0F0"/>
<path d="M166.504 124.685C152.03 118.833 136.079 117.687 120.916 121.411C117.638 122.154 114.497 123.41 111.61 125.131C108.852 126.898 106.617 129.372 105.139 132.294C103.706 134.991 102.552 137.916 100.488 140.217C99.4139 141.38 98.106 142.303 96.65 142.925C95.1941 143.547 93.623 143.854 92.0398 143.827C88.0933 143.861 84.3697 142.476 80.7755 140.996C76.7847 139.352 72.6656 137.581 68.2549 137.855C67.7205 137.888 67.7003 137.057 68.2339 137.024C75.9078 136.548 82.2753 141.877 89.6899 142.85C93.1496 143.304 96.7673 142.719 99.3466 140.207C101.602 138.011 102.794 134.996 104.222 132.253C105.622 129.381 107.705 126.895 110.288 125.013C113.078 123.151 116.165 121.776 119.417 120.949C126.707 118.97 134.264 118.148 141.81 118.515C150.425 118.885 158.912 120.726 166.906 123.957C167.4 124.157 166.996 124.883 166.504 124.685L166.504 124.685Z" fill="white"/>
<path d="M125.729 119.924C125.449 117.297 126.113 114.656 127.601 112.473C129.09 110.29 131.307 108.707 133.856 108.006C134.372 107.866 134.614 108.661 134.097 108.801C131.722 109.449 129.658 110.924 128.275 112.96C126.893 114.996 126.285 117.459 126.56 119.903C126.619 120.435 125.787 120.453 125.729 119.924V119.924Z" fill="white"/>
<path d="M105.686 130.831C109.86 134.261 115.174 135.994 120.569 135.683C121.104 135.652 121.124 136.482 120.591 136.514C114.975 136.827 109.449 135.013 105.113 131.433C104.7 131.091 105.275 130.491 105.686 130.831H105.686Z" fill="white"/>
<path d="M149.944 119.877C149.84 120.916 149.996 121.964 150.398 122.928C150.8 123.892 151.436 124.741 152.247 125.399C152.664 125.735 152.089 126.335 151.674 126.001C150.781 125.27 150.081 124.331 149.634 123.267C149.188 122.204 149.009 121.047 149.113 119.898C149.114 119.788 149.156 119.684 149.231 119.605C149.306 119.526 149.409 119.478 149.518 119.472C149.628 119.47 149.734 119.511 149.814 119.587C149.894 119.662 149.941 119.767 149.944 119.877Z" fill="white"/>
<path d="M455.847 361.497C469.164 364.76 484.695 361.657 493.454 351.115C478.545 350.909 464.189 345.44 452.927 335.674C448.597 331.892 444.175 327.235 438.428 327.052C434.852 326.938 431.417 328.682 428.768 331.087C426.119 333.491 424.137 336.524 422.185 339.521L421.408 339.961C431.145 349.608 442.53 358.234 455.847 361.497Z" fill="#F0F0F0"/>
<path d="M493.259 350.904C482.656 354.947 471.047 355.548 460.082 352.622C457.71 352.034 455.446 351.076 453.373 349.783C451.394 348.459 449.806 346.629 448.774 344.484C447.772 342.503 446.976 340.361 445.509 338.659C444.746 337.798 443.809 337.109 442.76 336.636C441.711 336.162 440.573 335.916 439.422 335.913C436.555 335.831 433.829 336.783 431.195 337.807C428.271 338.944 425.252 340.171 422.051 339.908C421.663 339.877 421.636 340.48 422.023 340.512C427.593 340.969 432.298 337.188 437.7 336.589C440.221 336.309 442.842 336.787 444.68 338.649C446.287 340.278 447.11 342.487 448.107 344.501C449.083 346.608 450.56 348.445 452.41 349.85C454.411 351.244 456.634 352.287 458.985 352.936C464.255 354.48 469.735 355.186 475.224 355.029C481.489 354.885 487.684 353.67 493.54 351.438C493.903 351.3 493.619 350.766 493.259 350.904H493.259Z" fill="white"/>
<path d="M463.556 353.772C463.315 355.677 463.759 357.606 464.809 359.214C465.859 360.822 467.448 362.005 469.29 362.551C469.663 362.66 469.85 362.086 469.477 361.976C467.76 361.471 466.281 360.369 465.306 358.87C464.331 357.37 463.925 355.572 464.16 353.799C464.211 353.414 463.607 353.389 463.556 353.772V353.772Z" fill="white"/>
<path d="M449.15 345.555C452.233 343.123 456.12 341.941 460.036 342.245C460.424 342.275 460.451 341.672 460.064 341.642C455.988 341.333 451.945 342.571 448.742 345.109C448.437 345.352 448.847 345.796 449.15 345.555H449.15Z" fill="white"/>
<path d="M481.154 354.158C481.093 353.401 481.222 352.641 481.528 351.947C481.834 351.252 482.308 350.644 482.907 350.178C483.215 349.94 482.806 349.495 482.5 349.732C481.84 350.25 481.318 350.922 480.978 351.689C480.638 352.456 480.491 353.294 480.55 354.13C480.549 354.21 480.578 354.286 480.631 354.345C480.685 354.403 480.759 354.439 480.838 354.446C480.918 354.449 480.996 354.42 481.055 354.366C481.114 354.312 481.149 354.237 481.154 354.158Z" fill="white"/>
<path d="M484.832 305.528C484.635 305.671 484.438 305.815 484.237 305.956C481.584 307.869 478.781 309.563 475.854 311.021C475.629 311.138 475.4 311.252 475.172 311.362C468.083 314.801 460.416 316.895 452.562 317.537C449.436 317.789 446.296 317.804 443.168 317.58C438.849 317.271 434.189 316.593 430.139 317.695C429.715 317.806 429.299 317.942 428.892 318.104L420.93 338.979C420.935 339.036 420.936 339.091 420.942 339.147L420.586 339.966C420.746 339.989 420.913 340.009 421.074 340.032C421.167 340.046 421.262 340.055 421.355 340.068C421.417 340.076 421.48 340.083 421.536 340.094C421.557 340.096 421.578 340.099 421.594 340.099C421.65 340.11 421.703 340.114 421.755 340.122C422.688 340.238 423.623 340.347 424.561 340.449C424.566 340.451 424.566 340.451 424.572 340.448C431.711 341.299 438.925 341.301 446.065 340.453C446.277 340.425 446.495 340.399 446.711 340.361C449.895 339.923 453.039 339.224 456.109 338.274C457.789 337.748 459.441 337.137 461.059 336.445C465.236 334.646 469.104 332.203 472.521 329.203C479.332 323.223 484.154 315.132 484.79 306.21C484.806 305.982 484.82 305.758 484.832 305.528Z" fill="#F0F0F0"/>
<path d="M484.549 305.474C478.518 315.082 469.612 322.547 459.094 326.808C456.846 327.766 454.461 328.363 452.027 328.579C449.649 328.712 447.279 328.206 445.163 327.114C443.169 326.136 441.243 324.904 439.047 324.427C437.918 324.2 436.755 324.213 435.632 324.467C434.51 324.72 433.453 325.208 432.532 325.898C430.193 327.558 428.59 329.958 427.105 332.36C425.455 335.027 423.784 337.824 421.069 339.54C420.74 339.748 421.082 340.246 421.411 340.038C426.133 337.052 427.612 331.203 431.565 327.473C433.409 325.733 435.789 324.538 438.379 324.919C440.643 325.253 442.63 326.521 444.64 327.529C446.689 328.625 448.975 329.202 451.299 329.211C453.736 329.12 456.14 328.615 458.408 327.719C463.545 325.781 468.346 323.048 472.634 319.62C477.55 315.735 481.765 311.038 485.096 305.732C485.302 305.404 484.754 305.148 484.549 305.474H484.549Z" fill="white"/>
<path d="M462.562 325.635C463.517 327.302 465.034 328.575 466.841 329.227C468.649 329.879 470.629 329.868 472.429 329.195C472.793 329.058 472.596 328.487 472.232 328.624C470.557 329.254 468.712 329.264 467.031 328.653C465.349 328.042 463.941 326.851 463.061 325.294C462.869 324.956 462.372 325.299 462.562 325.635Z" fill="white"/>
<path d="M446.109 327.744C447.105 323.946 449.496 320.664 452.807 318.55C453.135 318.341 452.793 317.843 452.465 318.052C449.024 320.258 446.542 323.679 445.515 327.633C445.417 328.01 446.012 328.118 446.109 327.744Z" fill="white"/>
<path d="M476.844 315.356C476.34 314.788 475.985 314.104 475.811 313.365C475.637 312.626 475.649 311.856 475.847 311.123C475.949 310.747 475.354 310.639 475.253 311.012C475.038 311.823 475.026 312.674 475.216 313.49C475.407 314.307 475.794 315.065 476.345 315.697C476.392 315.761 476.462 315.805 476.54 315.819C476.618 315.834 476.699 315.818 476.765 315.775C476.831 315.73 476.876 315.66 476.891 315.582C476.906 315.503 476.889 315.422 476.844 315.356Z" fill="white"/>
<path d="M509.206 233.583L488.9 267.733L489.672 268.139L482.795 281.168L481.364 280.411L476.845 288.005L477.968 288.651L470.6 301.399L469.323 300.663L403.063 412.103C401.326 415.02 398.501 417.128 395.21 417.965C391.918 418.803 388.429 418.301 385.507 416.57L262.327 343.424C259.409 341.688 257.299 338.865 256.461 335.576C255.623 332.286 256.125 328.799 257.858 325.879L364.001 147.359C365.738 144.442 368.563 142.334 371.854 141.497C375.146 140.659 378.635 141.161 381.557 142.892L504.737 216.038C507.654 217.775 509.763 220.598 510.601 223.887C511.439 227.176 510.937 230.662 509.206 233.583Z" fill="#3F3D56"/>
<path d="M389.897 409.679L266.283 336.276C265.384 335.741 264.734 334.87 264.476 333.857C264.217 332.843 264.372 331.768 264.906 330.868L371.753 151.16C372.289 150.261 373.16 149.611 374.174 149.353C375.189 149.095 376.264 149.249 377.165 149.783L500.779 223.186C501.678 223.721 502.328 224.591 502.587 225.605C502.845 226.619 502.69 227.694 502.157 228.594L395.309 408.302C394.773 409.201 393.903 409.851 392.888 410.109C391.874 410.367 390.798 410.212 389.897 409.679Z" fill="white"/>
<path d="M440.676 183.644C441.277 183.644 441.765 183.156 441.765 182.555C441.765 181.954 441.277 181.466 440.676 181.466C440.074 181.466 439.586 181.954 439.586 182.555C439.586 183.156 440.074 183.644 440.676 183.644Z" fill="white"/>
<path d="M433.932 312.376L330.745 251.103C330.421 250.912 330.139 250.66 329.913 250.36C329.687 250.06 329.523 249.718 329.429 249.355C329.336 248.991 329.315 248.613 329.369 248.241C329.422 247.87 329.548 247.512 329.74 247.19C329.932 246.867 330.186 246.585 330.487 246.361C330.788 246.136 331.13 245.973 331.494 245.881C331.859 245.79 332.237 245.77 332.609 245.825C332.981 245.88 333.338 246.007 333.66 246.2L436.847 307.474C437.17 307.664 437.453 307.916 437.679 308.216C437.905 308.516 438.069 308.858 438.162 309.222C438.255 309.585 438.276 309.964 438.223 310.335C438.169 310.707 438.043 311.064 437.851 311.387C437.66 311.709 437.406 311.991 437.105 312.216C436.804 312.44 436.461 312.603 436.097 312.695C435.733 312.787 435.354 312.806 434.983 312.751C434.611 312.696 434.254 312.569 433.932 312.376H433.932Z" fill="#E6E6E6"/>
<path d="M392.73 302.881L358.789 282.727C358.467 282.536 358.185 282.283 357.961 281.983C357.736 281.683 357.573 281.342 357.481 280.979C357.388 280.616 357.368 280.239 357.422 279.868C357.475 279.497 357.601 279.141 357.793 278.819C357.984 278.497 358.237 278.216 358.537 277.992C358.838 277.767 359.179 277.605 359.542 277.512C359.905 277.42 360.283 277.4 360.654 277.453C361.025 277.507 361.382 277.633 361.704 277.824L395.645 297.979C395.967 298.17 396.248 298.423 396.472 298.723C396.697 299.023 396.86 299.364 396.952 299.727C397.045 300.09 397.065 300.467 397.011 300.838C396.958 301.208 396.831 301.565 396.64 301.887C396.449 302.209 396.196 302.49 395.896 302.714C395.596 302.938 395.254 303.101 394.891 303.193C394.528 303.286 394.15 303.306 393.779 303.252C393.409 303.199 393.052 303.073 392.73 302.881Z" fill="#E6E6E6"/>
<path d="M379.385 325.326L345.444 305.171C344.794 304.785 344.324 304.156 344.137 303.424C343.95 302.691 344.063 301.914 344.449 301.264C344.836 300.614 345.465 300.144 346.198 299.957C346.931 299.771 347.708 299.883 348.359 300.269L382.3 320.423C382.622 320.615 382.903 320.867 383.128 321.167C383.352 321.467 383.515 321.808 383.607 322.171C383.7 322.534 383.72 322.912 383.666 323.282C383.613 323.653 383.487 324.009 383.295 324.331C383.104 324.653 382.851 324.934 382.551 325.158C382.251 325.383 381.909 325.545 381.546 325.638C381.183 325.73 380.805 325.75 380.435 325.697C380.064 325.643 379.707 325.517 379.385 325.326Z" fill="#E6E6E6"/>
<path d="M372.55 336.822L338.609 316.667C338.285 316.476 338.003 316.224 337.778 315.924C337.553 315.624 337.389 315.283 337.296 314.919C337.203 314.556 337.183 314.178 337.236 313.807C337.29 313.436 337.416 313.079 337.607 312.756C337.799 312.434 338.052 312.152 338.353 311.928C338.654 311.704 338.996 311.541 339.36 311.449C339.723 311.357 340.102 311.337 340.473 311.391C340.844 311.446 341.201 311.573 341.523 311.765L375.464 331.919C375.788 332.11 376.071 332.362 376.297 332.662C376.522 332.962 376.687 333.304 376.78 333.667C376.874 334.031 376.894 334.41 376.841 334.781C376.788 335.153 376.661 335.51 376.469 335.833C376.278 336.156 376.024 336.437 375.723 336.662C375.422 336.886 375.079 337.049 374.715 337.141C374.351 337.233 373.972 337.252 373.6 337.197C373.229 337.142 372.872 337.015 372.55 336.822V336.822Z" fill="#E6E6E6"/>
<path d="M405.186 325.249L333.175 282.489C332.528 282.101 332.061 281.472 331.876 280.741C331.691 280.01 331.804 279.235 332.189 278.587C332.575 277.938 333.202 277.469 333.933 277.282C334.664 277.094 335.439 277.204 336.09 277.586L408.101 320.347C408.425 320.538 408.707 320.79 408.933 321.09C409.159 321.39 409.323 321.732 409.417 322.095C409.51 322.459 409.531 322.837 409.478 323.209C409.424 323.58 409.298 323.938 409.106 324.261C408.914 324.583 408.661 324.865 408.359 325.089C408.058 325.314 407.716 325.477 407.352 325.569C406.987 325.661 406.609 325.68 406.237 325.625C405.865 325.57 405.508 325.442 405.186 325.249Z" fill="#E6E6E6"/>
<path d="M391.46 379.898L379.136 372.58C378.032 371.922 377.233 370.853 376.917 369.608C376.6 368.363 376.792 367.043 377.448 365.938C378.105 364.833 379.174 364.034 380.42 363.717C381.665 363.399 382.987 363.589 384.093 364.244L396.416 371.562C397.523 372.219 398.322 373.288 398.64 374.534C398.957 375.78 398.766 377.101 398.109 378.206C397.452 379.312 396.382 380.111 395.135 380.428C393.888 380.746 392.566 380.555 391.46 379.898Z" fill="#FF6633"/>
<path d="M414.454 261.08C428.405 261.08 439.714 249.778 439.714 235.836C439.714 221.894 428.405 210.591 414.454 210.591C400.503 210.591 389.193 221.894 389.193 235.836C389.193 249.778 400.503 261.08 414.454 261.08Z" fill="#FF6633"/>
<path d="M0.296875 338.42H342.142V140.638C342.14 139.156 341.55 137.735 340.502 136.688C339.453 135.64 338.032 135.05 336.549 135.049H5.88996C4.40712 135.05 2.98549 135.64 1.93695 136.688C0.88841 137.735 0.298587 139.156 0.296875 140.638V338.42Z" fill="#CACACA"/>
<path d="M331.581 142.779H10.8594V324.743H331.581V142.779Z" fill="white"/>
<path d="M4.59865e-10 333.068V357.475C-1.10571e-05 358.487 0.199393 359.489 0.586828 360.423C0.974264 361.358 1.54214 362.207 2.25804 362.923C2.97394 363.638 3.82384 364.206 4.75921 364.593C5.69458 364.98 6.6971 365.18 7.70954 365.18H133.882V413.347H132.206C132.074 413.347 131.944 413.372 131.823 413.423C131.701 413.473 131.591 413.547 131.498 413.64C131.405 413.733 131.331 413.843 131.281 413.964C131.23 414.086 131.204 414.216 131.204 414.347V417.698C131.204 417.829 131.23 417.959 131.281 418.081C131.331 418.202 131.405 418.312 131.498 418.405C131.591 418.498 131.701 418.572 131.823 418.622C131.944 418.673 132.074 418.698 132.206 418.698H210.532C210.663 418.698 210.794 418.673 210.915 418.622C211.037 418.572 211.147 418.498 211.24 418.405C211.333 418.312 211.407 418.202 211.457 418.081C211.508 417.959 211.533 417.829 211.533 417.698V414.347C211.533 414.216 211.508 414.086 211.457 413.964C211.407 413.843 211.333 413.733 211.24 413.64C211.147 413.547 211.037 413.473 210.915 413.423C210.794 413.372 210.663 413.347 210.532 413.347H208.856V365.18H335.028C336.041 365.18 337.043 364.98 337.979 364.593C338.914 364.206 339.764 363.638 340.48 362.923C341.196 362.208 341.763 361.358 342.151 360.423C342.538 359.489 342.738 358.487 342.738 357.475V333.068L4.59865e-10 333.068Z" fill="#3F3D56"/>
<path d="M285.171 203.635H133.29C132.332 203.635 131.414 203.255 130.737 202.578C130.06 201.902 129.68 200.984 129.68 200.027C129.68 199.07 130.06 198.152 130.737 197.476C131.414 196.799 132.332 196.419 133.29 196.419H285.171C286.129 196.419 287.047 196.799 287.724 197.476C288.401 198.152 288.781 199.07 288.781 200.027C288.781 200.984 288.401 201.902 287.724 202.578C287.047 203.255 286.129 203.635 285.171 203.635Z" fill="#E6E6E6"/>
<path d="M234.211 219.921H184.253C183.295 219.921 182.377 219.541 181.7 218.865C181.023 218.188 180.643 217.27 180.643 216.313C180.643 215.357 181.023 214.439 181.7 213.762C182.377 213.086 183.295 212.705 184.253 212.705H234.211C235.168 212.705 236.087 213.086 236.764 213.762C237.441 214.439 237.821 215.357 237.821 216.313C237.821 217.27 237.441 218.188 236.764 218.865C236.087 219.541 235.168 219.921 234.211 219.921Z" fill="#E6E6E6"/>
<path d="M234.211 252.958H184.253C183.295 252.958 182.377 252.577 181.7 251.901C181.023 251.224 180.643 250.306 180.643 249.35C180.643 248.393 181.023 247.475 181.7 246.798C182.377 246.122 183.295 245.742 184.253 245.742H234.211C235.168 245.742 236.087 246.122 236.764 246.798C237.441 247.475 237.821 248.393 237.821 249.35C237.821 250.306 237.441 251.224 236.764 251.901C236.087 252.577 235.168 252.958 234.211 252.958Z" fill="#E6E6E6"/>
<path d="M234.211 269.878H184.253C183.779 269.878 183.309 269.785 182.871 269.604C182.433 269.422 182.035 269.157 181.7 268.822C181.365 268.487 181.099 268.089 180.917 267.651C180.736 267.213 180.643 266.744 180.643 266.27C180.643 265.797 180.736 265.328 180.917 264.89C181.099 264.452 181.365 264.054 181.7 263.719C182.035 263.384 182.433 263.119 182.871 262.937C183.309 262.756 183.779 262.663 184.253 262.663H234.211C234.685 262.663 235.154 262.756 235.592 262.937C236.03 263.119 236.428 263.384 236.764 263.719C237.099 264.054 237.365 264.452 237.546 264.89C237.728 265.328 237.821 265.797 237.821 266.27C237.821 266.744 237.728 267.213 237.546 267.651C237.365 268.089 237.099 268.487 236.764 268.822C236.428 269.157 236.03 269.422 235.592 269.604C235.154 269.785 234.685 269.878 234.211 269.878Z" fill="#E6E6E6"/>
<path d="M262.229 236.208H156.235C155.278 236.208 154.359 235.828 153.682 235.151C153.005 234.474 152.625 233.557 152.625 232.6C152.625 231.643 153.005 230.725 153.682 230.049C154.359 229.372 155.278 228.992 156.235 228.992H262.229C263.187 228.992 264.105 229.372 264.782 230.049C265.459 230.725 265.839 231.643 265.839 232.6C265.839 233.557 265.459 234.474 264.782 235.151C264.105 235.828 263.187 236.208 262.229 236.208Z" fill="#E6E6E6"/>
<path d="M282.644 304.523H264.504C262.876 304.523 261.315 303.876 260.163 302.726C259.012 301.575 258.365 300.015 258.365 298.388C258.365 296.761 259.012 295.2 260.163 294.049C261.315 292.899 262.876 292.253 264.504 292.253H282.644C284.272 292.253 285.834 292.899 286.985 294.049C288.136 295.2 288.783 296.761 288.783 298.388C288.783 300.015 288.136 301.575 286.985 302.726C285.834 303.876 284.272 304.523 282.644 304.523Z" fill="#FF6633"/>
<path d="M85.5307 259.994C102.969 259.994 117.106 245.866 117.106 228.439C117.106 211.011 102.969 196.883 85.5307 196.883C68.092 196.883 53.9551 211.011 53.9551 228.439C53.9551 245.866 68.092 259.994 85.5307 259.994Z" fill="#FF6633"/>
<path d="M455.028 420H0.835016C0.613853 419.999 0.401971 419.911 0.245811 419.755C0.0896508 419.598 0.00195312 419.386 0.00195312 419.165C0.00195312 418.944 0.0896508 418.732 0.245811 418.575C0.401971 418.419 0.613853 418.331 0.835016 418.33H455.028C455.25 418.331 455.461 418.419 455.618 418.575C455.774 418.732 455.861 418.944 455.861 419.165C455.861 419.386 455.774 419.598 455.618 419.755C455.461 419.911 455.25 419.999 455.028 420Z" fill="#CACACA"/>
<path d="M171.071 138.914C171.728 138.914 172.261 138.381 172.261 137.725C172.261 137.068 171.728 136.535 171.071 136.535C170.414 136.535 169.881 137.068 169.881 137.725C169.881 138.381 170.414 138.914 171.071 138.914Z" fill="white"/>
</g>
<defs>
<clipPath id="clip0_400_5232">
<rect width="511" height="420" fill="white"/>
</clipPath>
</defs>
</svg>
