<svg width="278" height="190" viewBox="0 0 278 190" fill="none" xmlns="http://www.w3.org/2000/svg">
<path d="M11.5207 166.244C12.6246 158.391 18.1262 150.653 26.5924 148.098C23.2536 156.181 23.2543 165.048 26.5944 173.13C27.8953 176.243 29.7087 179.586 28.485 182.723C27.7236 184.675 25.8611 186.169 23.7791 187.103C21.697 188.037 19.3863 188.482 17.1045 188.918L16.6554 189.247C13.0331 182.011 10.4167 174.097 11.5207 166.244Z" fill="#F0F0F0"/>
<path d="M26.6744 148.246C21.7441 153.133 18.6798 159.27 17.9167 165.785C17.7243 167.185 17.7825 168.603 18.0893 169.987C18.4373 171.327 19.1846 172.559 20.2533 173.557C21.2287 174.505 22.3505 175.375 23.0484 176.516C23.3958 177.105 23.5986 177.752 23.6435 178.415C23.6883 179.078 23.5743 179.742 23.3087 180.364C22.6925 181.927 21.4781 183.201 20.2415 184.411C18.8685 185.754 17.4184 187.13 16.8348 188.91C16.7641 189.126 16.3898 189.016 16.4604 188.801C17.4758 185.703 20.8752 183.944 22.4964 181.153C23.2529 179.851 23.5704 178.34 22.8612 176.966C22.241 175.764 21.0851 174.866 20.0881 173.914C19.0294 172.954 18.2524 171.779 17.8251 170.493C17.4397 169.127 17.3198 167.713 17.4706 166.312C17.7531 163.152 18.5954 160.052 19.9667 157.124C21.5108 153.775 23.6912 150.684 26.4136 147.985C26.5821 147.818 26.8419 148.08 26.6744 148.246H26.6744Z" fill="white"/>
<path d="M18.0216 163.675C16.8033 163.413 15.7299 162.777 14.9929 161.88C14.2559 160.982 13.9035 159.883 13.9985 158.777C14.0186 158.553 14.4124 158.57 14.3923 158.794C14.3017 159.824 14.6302 160.848 15.3183 161.682C16.0065 162.517 17.0091 163.106 18.1452 163.343C18.392 163.395 18.267 163.726 18.0216 163.675Z" fill="white"/>
<path d="M19.6866 173.134C21.887 171.972 23.5113 170.119 24.2357 167.944C24.3073 167.729 24.6816 167.838 24.6101 168.054C23.8515 170.315 22.1567 172.241 19.8639 173.446C19.6453 173.561 19.4692 173.248 19.6866 173.134Z" fill="white"/>
<path d="M21.8777 154.105C22.3252 154.293 22.8186 154.38 23.3134 154.358C23.8083 154.336 24.2892 154.205 24.7129 153.978C24.9297 153.861 25.1056 154.173 24.8902 154.29C24.4207 154.539 23.8895 154.682 23.3428 154.708C22.7961 154.734 22.2507 154.64 21.7541 154.436C21.7055 154.421 21.6654 154.389 21.6422 154.348C21.6189 154.307 21.6141 154.26 21.6287 154.216C21.6453 154.172 21.6808 154.136 21.7274 154.115C21.7741 154.095 21.8281 154.091 21.8777 154.105Z" fill="white"/>
<path d="M52.3945 162.124C52.2615 162.201 52.1284 162.277 51.9952 162.357C50.2122 163.394 48.5274 164.557 46.9574 165.836C46.8343 165.933 46.7111 166.033 46.5914 166.133C42.8461 169.249 39.7873 172.953 37.5705 177.057C36.6901 178.691 35.9515 180.381 35.361 182.114C34.5457 184.507 33.8769 187.159 32.2631 189.117C32.0973 189.323 31.9172 189.519 31.724 189.706H17.1394C17.1063 189.691 17.073 189.679 17.0397 189.664L16.4574 189.688C16.4808 189.597 16.5072 189.502 16.5306 189.411C16.5439 189.358 16.5605 189.305 16.5738 189.252C16.5838 189.217 16.5938 189.182 16.6005 189.149C16.6037 189.137 16.6071 189.126 16.6104 189.117C16.6171 189.084 16.6271 189.055 16.6338 189.026C16.7802 188.499 16.931 187.972 17.0863 187.445C17.0863 187.442 17.0863 187.442 17.0895 187.439C18.2842 183.427 19.8681 179.468 22.0808 175.847C22.1474 175.738 22.2139 175.626 22.2872 175.517C23.2948 173.89 24.4511 172.339 25.7445 170.878C26.4556 170.081 27.212 169.315 28.0106 168.585C30.0781 166.702 32.4676 165.119 35.0914 163.893C40.3224 161.45 46.3784 160.514 51.9687 162.006C52.1116 162.045 52.2516 162.083 52.3945 162.124Z" fill="#F0F0F0"/>
<path d="M52.366 162.288C45.1035 163.564 38.4801 166.832 33.4365 171.628C32.3301 172.643 31.4114 173.806 30.7144 175.075C30.0806 176.33 29.8382 177.712 30.0125 179.078C30.1461 180.354 30.4498 181.646 30.2303 182.929C30.1069 183.584 29.8284 184.209 29.4129 184.762C28.9975 185.316 28.4545 185.785 27.8196 186.14C26.2636 187.06 24.4267 187.43 22.6161 187.737C20.6057 188.079 18.5115 188.405 16.8337 189.516C16.6304 189.65 16.4062 189.363 16.6092 189.229C19.5283 187.296 23.4401 187.702 26.6336 186.337C28.1237 185.701 29.4059 184.663 29.775 183.188C30.0978 181.898 29.7859 180.566 29.638 179.274C29.4459 177.944 29.625 176.592 30.1595 175.337C30.7812 174.042 31.6477 172.849 32.7217 171.811C35.0976 169.438 37.8804 167.411 40.9681 165.804C44.4805 163.952 48.3252 162.645 52.3357 161.94C52.584 161.897 52.6126 162.245 52.366 162.288Z" fill="white"/>
<path d="M34.9584 169.999C34.1637 169.141 33.7396 168.061 33.7618 166.953C33.784 165.844 34.251 164.778 35.0796 163.946C35.2479 163.778 35.5507 164.001 35.3822 164.169C34.6091 164.943 34.1741 165.936 34.1559 166.968C34.1376 168.001 34.5372 169.005 35.2826 169.8C35.4443 169.973 35.1193 170.171 34.9585 169.999H34.9584Z" fill="white"/>
<path d="M29.8452 178.438C32.3931 178.682 34.9513 178.067 37.0097 176.717C37.2136 176.583 37.4378 176.87 37.2342 177.004C35.0892 178.405 32.4255 179.04 29.7747 178.781C29.5221 178.756 29.5939 178.413 29.8452 178.438Z" fill="white"/>
<path d="M44.5448 164.411C44.7741 164.799 45.1089 165.131 45.5192 165.377C45.9294 165.623 46.4022 165.775 46.8952 165.819C47.1481 165.841 47.076 166.184 46.8248 166.162C46.2804 166.111 45.7584 165.943 45.3045 165.672C44.8505 165.402 44.4785 165.037 44.2207 164.609C44.1926 164.571 44.1821 164.524 44.1914 164.479C44.2006 164.434 44.2289 164.394 44.2705 164.367C44.3136 164.341 44.3666 164.331 44.4179 164.339C44.4693 164.347 44.5149 164.373 44.5448 164.411Z" fill="white"/>
<path d="M75.8803 28.2528L249.937 0.0425371C250.291 -0.0177265 250.656 -0.013921 251.008 0.0537233C251.328 0.115692 251.628 0.23976 251.888 0.416961C252.141 0.591646 252.344 0.816088 252.482 1.0725C252.629 1.34944 252.704 1.65203 252.701 1.95793V139.901C252.704 140.207 252.63 140.51 252.483 140.787C252.345 141.044 252.142 141.268 251.889 141.443C251.63 141.62 251.33 141.745 251.01 141.807C250.657 141.875 250.293 141.879 249.939 141.819L75.8803 113.608C75.7361 113.582 75.6025 113.522 75.4933 113.434C75.3659 113.334 75.2593 113.214 75.1782 113.081C75.0841 112.929 75.0128 112.767 74.9663 112.599C74.9147 112.416 74.8885 112.229 74.8884 112.04V29.8255C74.8883 29.6365 74.9143 29.4482 74.9659 29.2648C75.0125 29.0965 75.0837 28.9344 75.1779 28.7826C75.259 28.6496 75.3656 28.5301 75.493 28.4294C75.6021 28.3419 75.7357 28.2818 75.88 28.2554L75.8803 28.2528Z" fill="#E4E4E4"/>
<path d="M73.2182 28.2528L247.275 0.0425371C247.629 -0.0177265 247.994 -0.013921 248.346 0.0537233C248.666 0.115692 248.966 0.23976 249.225 0.416961C249.479 0.591646 249.682 0.816088 249.82 1.0725C249.967 1.34944 250.042 1.65203 250.039 1.95793V139.901C250.042 140.207 249.968 140.51 249.821 140.787C249.683 141.044 249.48 141.268 249.227 141.443C248.968 141.62 248.668 141.745 248.348 141.807C247.995 141.875 247.631 141.879 247.276 141.819L73.2182 113.608C73.074 113.582 72.9404 113.522 72.8313 113.434C72.7038 113.334 72.5972 113.214 72.5161 113.081C72.422 112.929 72.3507 112.767 72.3042 112.599C72.2526 112.416 72.2264 112.229 72.2263 112.04V29.8255C72.2262 29.6365 72.2522 29.4482 72.3038 29.2648C72.3504 29.0965 72.4216 28.9344 72.5158 28.7826C72.5969 28.6496 72.7036 28.5301 72.8309 28.4294C72.94 28.3419 73.0737 28.2818 73.2179 28.2554L73.2182 28.2528Z" fill="white"/>
<path d="M73.2182 28.2528L247.275 0.0425371C247.629 -0.0177265 247.994 -0.013921 248.346 0.0537233C248.666 0.115692 248.966 0.23976 249.225 0.416961C249.479 0.591646 249.682 0.816088 249.82 1.0725C249.967 1.34944 250.042 1.65203 250.039 1.95793V139.901C250.042 140.207 249.968 140.51 249.821 140.787C249.683 141.044 249.48 141.268 249.227 141.443C248.968 141.62 248.668 141.745 248.348 141.807C247.995 141.875 247.631 141.879 247.276 141.819L73.2182 113.608C73.074 113.582 72.9404 113.522 72.8313 113.434C72.7038 113.334 72.5972 113.214 72.5161 113.081C72.422 112.929 72.3507 112.767 72.3042 112.599C72.2526 112.416 72.2264 112.229 72.2263 112.04V29.8255C72.2262 29.6365 72.2522 29.4482 72.3038 29.2648C72.3504 29.0965 72.4216 28.9344 72.5158 28.7826C72.5969 28.6496 72.7036 28.5301 72.8309 28.4294C72.94 28.3419 73.0737 28.2818 73.2179 28.2554L73.2182 28.2528ZM72.556 112.09C72.556 112.216 72.5734 112.342 72.608 112.464C72.639 112.576 72.6865 112.685 72.7494 112.786C72.8035 112.875 72.8747 112.954 72.9597 113.021C73.0324 113.08 73.1215 113.119 73.2176 113.137L247.273 141.034C247.509 141.074 247.752 141.071 247.987 141.025C248.2 140.984 248.399 140.901 248.572 140.783C248.74 140.666 248.875 140.516 248.967 140.346C249.064 140.161 249.114 139.96 249.112 139.757V2.10452C249.114 1.90119 249.064 1.70003 248.967 1.5158C248.876 1.34488 248.74 1.19513 248.572 1.07839C248.4 0.960078 248.201 0.877031 247.988 0.835247C247.753 0.789606 247.51 0.7865 247.274 0.82612L73.2176 28.7243C73.1215 28.7417 73.0324 28.7815 72.9597 28.8397C72.8747 28.9068 72.8035 28.9865 72.7494 29.0752C72.6865 29.1764 72.6388 29.2845 72.6076 29.3966C72.5731 29.5191 72.5557 29.6448 72.5557 29.7711V112.09L72.556 112.09Z" fill="#CACACA"/>
<path d="M278 43.0555C278.008 42.1144 277.783 41.1832 277.341 40.3273C276.927 39.5368 276.316 38.8396 275.553 38.2886C274.785 37.7377 273.889 37.3443 272.929 37.1368C271.89 36.9151 270.81 36.8863 269.758 37.0523C268.654 37.2223 267.595 37.57 266.634 38.0781C265.684 38.5782 264.833 39.2133 264.116 39.9579C263.406 40.6919 262.838 41.5253 262.436 42.4241C262.036 43.3159 261.828 44.2662 261.823 45.2258C261.816 46.1333 262.024 47.032 262.436 47.8632C262.822 48.6358 263.396 49.3237 264.116 49.8784C264.846 50.4372 265.705 50.8482 266.634 51.083C267.649 51.3365 268.713 51.4005 269.758 51.2708C270.871 51.1351 271.946 50.8173 272.927 50.3335C273.913 49.8495 274.8 49.2221 275.55 48.4776C276.304 47.7345 276.909 46.8831 277.338 45.9599C277.769 45.0387 277.994 44.0523 278 43.0555Z" fill="#E4E4E4"/>
<path d="M278 71.6084C278.008 70.6674 277.783 69.7361 277.341 68.8803C276.927 68.0897 276.316 67.3926 275.553 66.8416C274.785 66.2907 273.889 65.8973 272.929 65.6898C271.89 65.468 270.81 65.4393 269.758 65.6053C268.654 65.7753 267.595 66.123 266.634 66.6311C265.684 67.1312 264.833 67.7663 264.116 68.5109C263.406 69.2449 262.838 70.0783 262.436 70.977C262.036 71.8689 261.828 72.8192 261.823 73.7788C261.816 74.6862 262.024 75.5849 262.436 76.4162C262.822 77.1887 263.396 77.8767 264.116 78.4314C264.846 78.9901 265.705 79.4012 266.634 79.6359C267.649 79.8895 268.713 79.9535 269.758 79.8237C270.871 79.6881 271.946 79.3703 272.927 78.8865C273.913 78.4025 274.8 77.7751 275.55 77.0306C276.304 76.2875 276.909 75.4361 277.338 74.5129C277.769 73.5917 277.994 72.6053 278 71.6084Z" fill="#E4E4E4"/>
<path d="M278 100.161C278.008 99.2199 277.783 98.2886 277.341 97.4328C276.927 96.6422 276.316 95.9451 275.553 95.3941C274.785 94.8432 273.889 94.4498 272.929 94.2423C271.89 94.0205 270.81 93.9918 269.758 94.1578C268.654 94.3278 267.595 94.6755 266.634 95.1836C265.684 95.6837 264.833 96.3188 264.116 97.0634C263.406 97.7974 262.838 98.6308 262.436 99.5295C262.036 100.421 261.828 101.372 261.823 102.331C261.816 103.239 262.024 104.137 262.436 104.969C262.822 105.741 263.396 106.429 264.116 106.984C264.846 107.543 265.705 107.954 266.634 108.188C267.649 108.442 268.713 108.506 269.758 108.376C270.871 108.241 271.946 107.923 272.927 107.439C273.913 106.955 274.8 106.328 275.55 105.583C276.304 104.84 276.909 103.989 277.338 103.065C277.769 102.144 277.994 101.158 278 100.161Z" fill="#E4E4E4"/>
<path d="M276.004 43.0555C276.012 42.1144 275.787 41.1832 275.344 40.3273C274.931 39.5368 274.32 38.8396 273.557 38.2886C272.789 37.7377 271.893 37.3443 270.933 37.1368C269.894 36.9151 268.814 36.8863 267.762 37.0523C266.658 37.2223 265.599 37.57 264.638 38.0781C263.687 38.5782 262.837 39.2133 262.12 39.9579C261.41 40.6919 260.842 41.5253 260.44 42.4241C260.039 43.3159 259.832 44.2662 259.827 45.2258C259.82 46.1333 260.028 47.032 260.44 47.8632C260.826 48.6358 261.4 49.3237 262.12 49.8784C262.85 50.4372 263.709 50.8482 264.638 51.083C265.653 51.3365 266.717 51.4005 267.762 51.2708C268.875 51.1351 269.949 50.8173 270.931 50.3335C271.917 49.8495 272.804 49.2221 273.554 48.4776C274.308 47.7345 274.913 46.8831 275.342 45.9599C275.773 45.0387 275.998 44.0523 276.004 43.0555Z" fill="#FF6633"/>
<path d="M276.002 71.4138C276.007 70.4588 275.782 69.5138 275.343 68.6415C274.925 67.8198 274.316 67.0855 273.555 66.4868C272.794 65.8886 271.9 65.4375 270.931 65.1622C269.907 64.8741 268.828 64.7748 267.76 64.8705C266.669 64.9651 265.608 65.244 264.636 65.6921C263.689 66.1279 262.837 66.7086 262.118 67.4073C261.405 68.0981 260.836 68.8955 260.438 69.7622C260.035 70.6404 259.827 71.5792 259.825 72.5271C259.821 73.4476 260.029 74.3592 260.438 75.2057C260.831 76.0113 261.405 76.737 262.127 77.3381C262.849 77.9391 263.703 78.4026 264.636 78.6998C265.636 79.0177 266.7 79.151 267.76 79.0916C268.86 79.0318 269.936 78.7839 270.929 78.3616C272.912 77.5183 274.48 76.0655 275.34 74.2744C275.774 73.3693 275.999 72.3968 276.002 71.4138Z" fill="#FF6633"/>
<path d="M276.002 99.7719C276.003 98.8218 275.787 97.8813 275.367 97.0071C274.946 96.1329 274.33 95.343 273.555 94.6851C272.602 93.8781 271.442 93.2885 270.174 92.9671C268.906 92.6458 267.568 92.6024 266.277 92.8407C264.986 93.079 263.78 93.5918 262.763 94.3349C261.746 95.078 260.948 96.0289 260.44 97.1056C259.94 98.1771 259.744 99.3405 259.87 100.494C259.996 101.648 260.439 102.757 261.162 103.724C261.884 104.691 262.863 105.487 264.013 106.043C265.163 106.598 266.45 106.895 267.76 106.909C269.364 106.93 270.939 106.531 272.288 105.762C273.636 104.994 274.698 103.89 275.34 102.589C275.777 101.7 276.002 100.741 276.002 99.7719Z" fill="#FF6633"/>
<path d="M270.976 43.023L268.559 43.3516V41.2439C268.561 41.1527 268.539 41.0623 268.498 40.979C268.458 40.902 268.4 40.8338 268.327 40.7794C268.253 40.725 268.166 40.6856 268.073 40.6643C267.972 40.6414 267.866 40.6374 267.763 40.6526C267.653 40.6682 267.548 40.7015 267.452 40.7509C267.357 40.7999 267.271 40.8626 267.199 40.9363C267.127 41.0094 267.069 41.0927 267.027 41.1827C266.986 41.272 266.965 41.3674 266.964 41.4638V43.5685L264.593 43.8902C264.486 43.9053 264.382 43.9379 264.288 43.9865C264.099 44.0835 263.952 44.2335 263.871 44.4127C263.83 44.5014 263.809 44.5959 263.809 44.6915C263.808 44.7818 263.829 44.8712 263.871 44.9538C263.909 45.0299 263.966 45.0977 264.037 45.1521C264.109 45.2065 264.194 45.2462 264.286 45.2681C264.386 45.2916 264.49 45.2964 264.592 45.2823L266.966 44.9682V47.0681C266.965 47.1594 266.986 47.2497 267.028 47.3331C267.067 47.4104 267.126 47.479 267.198 47.5341C267.272 47.5892 267.358 47.6293 267.451 47.6518C267.552 47.6761 267.658 47.6815 267.761 47.6677C267.871 47.6537 267.976 47.6217 268.072 47.5735C268.168 47.5257 268.254 47.464 268.326 47.391C268.399 47.3186 268.456 47.2358 268.498 47.1461C268.538 47.0566 268.559 46.961 268.559 46.8644V44.7568L270.976 44.436C271.087 44.4209 271.194 44.3879 271.291 44.3385C271.388 44.2897 271.475 44.2269 271.549 44.1528C271.622 44.0798 271.681 43.9964 271.723 43.9061C271.765 43.8158 271.787 43.7191 271.787 43.6215C271.788 43.5294 271.766 43.4383 271.723 43.3545C271.683 43.2767 271.623 43.2079 271.549 43.1532C271.474 43.0976 271.386 43.0574 271.291 43.0354C271.188 43.0121 271.081 43.0079 270.976 43.023Z" fill="white"/>
<path d="M269.281 73.8645L262.571 74.2949H262.546L265.693 69.2407C265.713 69.209 265.741 69.1819 265.775 69.1618C265.791 69.152 265.809 69.144 265.828 69.138C265.847 69.1319 265.867 69.1281 265.887 69.1265C265.907 69.1249 265.926 69.1257 265.946 69.1289C265.964 69.1319 265.982 69.1373 265.999 69.1448C266.033 69.1596 266.062 69.1828 266.081 69.2116L268.222 72.3253L268.325 72.4751L269.281 73.8645Z" fill="white"/>
<path d="M273.109 73.6185L267.189 73.9982L268.324 72.4746L268.406 72.3645L269.894 70.3661C269.92 70.3351 269.953 70.3089 269.99 70.2889C270.009 70.2793 270.028 70.2712 270.048 70.2648C270.069 70.2583 270.09 70.2536 270.112 70.251C270.133 70.2483 270.154 70.2476 270.176 70.2489C270.196 70.2501 270.217 70.2533 270.236 70.2583C270.256 70.2633 270.275 70.2703 270.293 70.2789C270.311 70.2876 270.327 70.2981 270.343 70.3101L270.348 70.3154L270.354 70.3207L270.359 70.3263L270.364 70.3319L273.109 73.6185Z" fill="white"/>
<path d="M268.631 68.4087C268.495 68.4192 268.362 68.4528 268.24 68.5076C268.12 68.5615 268.012 68.6338 267.921 68.721C267.83 68.8078 267.757 68.9083 267.706 69.0177C267.654 69.1284 267.627 69.247 267.627 69.3669C267.626 69.4829 267.653 69.5978 267.706 69.7042C267.756 69.8048 267.829 69.8951 267.921 69.9691C268.013 70.0433 268.122 70.0997 268.24 70.1348C268.366 70.172 268.499 70.1859 268.631 70.1758C268.768 70.1656 268.901 70.1323 269.024 70.0777C269.144 70.0241 269.253 69.9519 269.344 69.8646C269.436 69.7778 269.51 69.6771 269.561 69.5673C269.613 69.4561 269.64 69.3369 269.641 69.2164C269.641 69.0999 269.614 68.9846 269.561 68.8779C269.511 68.7772 269.437 68.6869 269.344 68.613C269.252 68.5392 269.142 68.4833 269.024 68.4488C268.897 68.4118 268.764 68.3982 268.631 68.4087Z" fill="white"/>
<path d="M196.223 88.556L129.779 32.7876L129.494 33.2291L195.807 89.0279L196.223 88.556Z" fill="#333333"/>
<path d="M196.209 25.3473L195.792 24.9058L129.497 85.7867L129.783 86.2061L196.209 25.3473Z" fill="#333333"/>
<path d="M130.451 31.9735L195.038 24.1241C195.337 24.0864 195.641 24.1093 195.928 24.1912C196.201 24.2709 196.451 24.4041 196.658 24.5809C196.872 24.7638 197.04 24.9845 197.152 25.2285C197.274 25.4978 197.336 25.7855 197.334 26.0757V87.5791C197.335 87.8732 197.273 88.1648 197.152 88.4387C197.039 88.6933 196.871 88.9261 196.658 89.1239C196.452 89.3145 196.204 89.4649 195.928 89.5655C195.646 89.6675 195.342 89.7125 195.038 89.6973L130.451 86.5506C130.233 86.538 130.022 86.4773 129.837 86.374C129.641 86.2648 129.472 86.1227 129.338 85.9557C129.19 85.7732 129.077 85.5707 129.002 85.3561C128.92 85.1231 128.878 84.8803 128.878 84.6361V34.0004C128.879 33.7533 128.92 33.5076 129.002 33.2713C129.078 33.0495 129.191 32.8391 129.338 32.6473C129.472 32.4703 129.641 32.3163 129.837 32.1925C130.019 32.0776 130.23 32.0025 130.451 31.9735ZM195.038 89.0645C195.255 89.0749 195.472 89.0423 195.673 88.9691C195.87 88.8969 196.047 88.7893 196.194 88.653C196.346 88.5113 196.465 88.3447 196.546 88.1626C196.632 87.9672 196.676 87.7592 196.675 87.5494V26.1519C196.677 25.9452 196.633 25.7401 196.546 25.5482C196.466 25.3737 196.346 25.2158 196.194 25.0849C196.046 24.9588 195.868 24.8637 195.673 24.8067C195.468 24.7479 195.251 24.731 195.038 24.7576L130.451 32.5007C130.293 32.5214 130.142 32.5751 130.012 32.6573C129.872 32.7453 129.751 32.855 129.655 32.9811C129.549 33.1181 129.468 33.2685 129.414 33.427C129.356 33.596 129.326 33.7717 129.326 33.9483V84.6567C129.325 84.8314 129.355 85.0051 129.414 85.1719C129.468 85.3253 129.549 85.47 129.655 85.6005C129.751 85.7197 129.872 85.8211 130.012 85.8989C130.144 85.9722 130.295 86.015 130.451 86.0235L195.038 89.0645Z" fill="#333333"/>
<path d="M197.177 96.1923C197.348 96.2089 197.512 96.2652 197.652 96.3554C197.805 96.4553 197.936 96.5803 198.037 96.7237C198.151 96.8838 198.238 97.0582 198.294 97.2411C198.356 97.4408 198.385 97.647 198.383 97.854C198.381 98.0522 198.348 98.2492 198.283 98.4389C198.226 98.6057 198.139 98.7629 198.023 98.904C197.923 99.028 197.792 99.1309 197.642 99.2051C197.499 99.2741 197.338 99.3062 197.176 99.2978L84.1055 91.0154C84.0155 91.0088 83.931 90.9745 83.8665 90.9186C83.7843 90.849 83.7177 90.7663 83.6702 90.6749C83.61 90.5622 83.5653 90.4437 83.5371 90.3216C83.5036 90.1805 83.4862 90.0367 83.4852 89.8924C83.4833 89.7497 83.498 89.6072 83.5291 89.4671C83.5549 89.348 83.5978 89.2324 83.6569 89.123C83.7018 89.0356 83.7669 88.9575 83.8479 88.8937C83.9133 88.8423 83.9981 88.8146 84.0855 88.816H84.1055L197.177 96.1923Z" fill="#333333"/>
<path d="M197.177 105.618C197.349 105.639 197.513 105.699 197.652 105.792C197.805 105.895 197.936 106.023 198.037 106.168C198.151 106.331 198.238 106.507 198.294 106.692C198.356 106.893 198.385 107.101 198.383 107.309C198.381 107.506 198.348 107.702 198.283 107.891C198.227 108.056 198.139 108.212 198.023 108.35C197.923 108.472 197.793 108.571 197.642 108.642C197.499 108.708 197.337 108.736 197.176 108.723L84.1055 97.6891C84.0149 97.68 83.9306 97.6437 83.8666 97.5864C83.7844 97.5148 83.7179 97.4305 83.6702 97.3376C83.61 97.2234 83.5654 97.1033 83.5372 96.9797C83.5036 96.8381 83.4862 96.6938 83.4852 96.5491C83.4833 96.4066 83.498 96.2644 83.5292 96.1246C83.5548 96.0065 83.5978 95.8919 83.6569 95.7837C83.7021 95.6979 83.7676 95.6216 83.8489 95.56C83.9148 95.51 83.9998 95.4842 84.0865 95.4879H84.1065L197.177 105.618Z" fill="#333333"/>
<path d="M197.177 114.89C197.35 114.916 197.514 114.98 197.652 115.076C197.805 115.183 197.936 115.314 198.037 115.462C198.151 115.627 198.237 115.805 198.294 115.992C198.355 116.193 198.385 116.402 198.383 116.61C198.382 116.807 198.348 117.002 198.283 117.19C198.227 117.353 198.139 117.507 198.023 117.643C197.923 117.762 197.792 117.859 197.642 117.926C197.498 117.988 197.336 118.012 197.176 117.996L84.1055 104.254C84.0144 104.243 83.9303 104.205 83.8666 104.146C83.7845 104.073 83.718 103.987 83.6702 103.893C83.6101 103.777 83.5655 103.656 83.5371 103.531C83.5036 103.389 83.4863 103.245 83.4852 103.1C83.4832 102.958 83.498 102.816 83.5292 102.676C83.5546 102.559 83.5976 102.446 83.6569 102.338C83.702 102.254 83.7675 102.179 83.8489 102.119C83.9154 102.071 84.0006 102.047 84.0865 102.053H84.1065L197.177 114.89Z" fill="#333333"/>
<path d="M264.536 96.7856L270.991 96.7173C271.098 96.714 271.206 96.7274 271.308 96.757C271.407 96.7857 271.5 96.8292 271.582 96.8857C271.664 96.9419 271.734 97.0103 271.79 97.0879C271.846 97.1675 271.886 97.2556 271.908 97.3478C271.929 97.458 271.922 97.571 271.889 97.6787C271.872 97.7325 271.848 97.7845 271.819 97.8338C271.758 97.9343 271.674 98.022 271.572 98.0908C271.418 98.1939 271.23 98.2504 271.038 98.2518L269.096 98.2674C269.005 98.2679 268.915 98.2921 268.839 98.3369C268.763 98.3817 268.703 98.4452 268.667 98.5197C268.643 98.57 268.63 98.6242 268.63 98.6789V102.048C268.635 102.234 268.565 102.415 268.433 102.559C268.3 102.704 268.114 102.803 267.907 102.839C267.72 102.867 267.527 102.84 267.359 102.761C267.191 102.683 267.056 102.558 266.976 102.406C266.923 102.305 266.895 102.196 266.895 102.085V98.6883C266.895 98.6353 266.883 98.5829 266.86 98.5339C266.837 98.485 266.804 98.4405 266.761 98.403C266.719 98.3656 266.669 98.3359 266.613 98.3156C266.558 98.2954 266.498 98.285 266.439 98.285L266.434 98.2851L264.58 98.298C264.373 98.3039 264.17 98.2446 264.008 98.1307C263.846 98.0169 263.734 97.8557 263.694 97.676C263.673 97.5673 263.68 97.4559 263.713 97.3495C263.745 97.2432 263.804 97.1444 263.884 97.0598C263.964 96.9753 264.063 96.907 264.176 96.8597C264.288 96.8123 264.411 96.7871 264.536 96.7856Z" fill="white"/>
<path d="M264.536 101.324C264.352 101.324 264.173 101.376 264.025 101.473C263.877 101.57 263.769 101.707 263.716 101.863C263.663 102.019 263.668 102.186 263.73 102.339C263.792 102.492 263.909 102.623 264.062 102.713C264.216 102.803 264.398 102.847 264.582 102.839C264.765 102.83 264.941 102.769 265.083 102.665C265.224 102.561 265.324 102.42 265.368 102.262C265.412 102.103 265.397 101.937 265.325 101.787C265.26 101.65 265.15 101.532 265.01 101.45C264.869 101.368 264.705 101.324 264.536 101.324Z" fill="white"/>
<path d="M113.25 56.682C113.28 56.8875 113.329 57.0906 113.395 57.2894L99.9395 71.541L94.9143 70.775L92.6163 77.3329L101.363 79.4537C102.07 79.625 102.821 79.589 103.502 79.3509C104.184 79.1129 104.759 78.6857 105.143 78.1335L117.648 60.1366C118.55 60.1388 119.432 59.898 120.176 59.4462C120.919 58.9944 121.49 58.353 121.812 57.6073C122.133 56.8617 122.191 56.047 121.976 55.2718C121.762 54.4966 121.285 53.7975 120.611 53.2676C119.936 52.7376 119.095 52.4019 118.199 52.3051C117.304 52.2083 116.396 52.355 115.597 52.7257C114.798 53.0964 114.146 53.6734 113.727 54.3802C113.307 55.0869 113.141 55.8898 113.25 56.682Z" fill="#FFB6B6"/>
<path d="M99.3443 70.7463C99.2006 70.5403 99.0082 70.3641 98.7805 70.2298C98.5527 70.0956 98.2949 70.0063 98.0246 69.9682L88.5847 68.6365C87.2493 68.2638 85.8012 68.3747 84.5581 68.945C83.315 69.5152 82.3782 70.4983 81.9531 71.6786C81.5281 72.859 81.6495 74.1402 82.2907 75.2415C82.9319 76.3428 84.0407 77.1741 85.3738 77.5534L93.9986 81.2628C94.2448 81.3687 94.5138 81.4264 94.7875 81.4319C95.0611 81.4375 95.3328 81.3908 95.5842 81.2951C95.8356 81.1994 96.0608 81.0569 96.2443 80.8773C96.4278 80.6976 96.5654 80.4851 96.6477 80.2542L99.5405 72.1387C99.623 71.9078 99.6482 71.6638 99.6143 71.4235C99.5804 71.1832 99.4883 70.9522 99.3443 70.7463Z" fill="#3F3D56"/>
<path d="M98.8158 186.188H102.895L104.836 172.268L98.8151 172.268L98.8158 186.188Z" fill="#FFB6B6"/>
<path d="M97.7777 189.686L110.932 189.685V189.538C110.932 188.337 110.392 187.185 109.432 186.336C108.472 185.486 107.17 185.009 105.812 185.009H105.811L97.7775 185.009L97.7777 189.686Z" fill="#2F2E41"/>
<path d="M56.224 186.188H60.3036L62.2441 172.268L56.2234 172.268L56.224 186.188Z" fill="#FFB6B6"/>
<path d="M55.184 189.686L68.3379 189.685V189.538C68.3378 188.337 67.7983 187.185 66.8382 186.336C65.878 185.486 64.5758 185.009 63.218 185.009H63.2177L55.1837 185.009L55.184 189.686Z" fill="#2F2E41"/>
<path d="M97.224 101.398L79.5464 96.8787C73.1067 100.919 68.6603 109.018 70.1004 119.497C72.421 136.384 58.9869 158.096 53.193 180.097L63.2116 180.375L85.1497 133.931L98.0114 181.342L106.961 181.591L100.976 116.311L97.224 101.398Z" fill="#2F2E41"/>
<path d="M89.3534 60.3307C84.3029 60.3307 80.2087 56.7089 80.2087 52.2412C80.2087 47.7734 84.3029 44.1516 89.3534 44.1516C94.4038 44.1516 98.498 47.7734 98.498 52.2412C98.498 56.7089 94.4038 60.3307 89.3534 60.3307Z" fill="#FFB6B6"/>
<path d="M98.6568 88.2127C100.678 85.074 101.677 81.2621 99.9175 78.0022C99.4745 77.1814 98.2667 76.4055 97.6344 75.6883L90.5688 66.369L82.5908 65.2336C75.6865 70.3562 81.5846 87.8573 75.9278 99.3373L99.5531 110.523C97.8644 104.818 95.5852 92.9824 98.6568 88.2127Z" fill="#3F3D56"/>
<path d="M98.5554 49.0018C98.5554 49.0018 97.936 47.9872 94.2296 49.2962C92.9323 49.7543 92.324 49.649 92.2396 50.6459C91.939 54.3977 90.3877 57.9865 87.7819 60.9586L87.7538 60.9908L85.9006 59.4948L83.5178 61.1778L73.4575 61.3648C73.4575 61.3648 71.869 54.446 77.1639 46.5921C82.4589 38.7383 93.3135 43.0392 93.3135 43.0392C100.726 43.4132 98.5554 49.0018 98.5554 49.0018Z" fill="#2F2E41"/>
<path d="M121.9 38.6617L186.487 30.8123C186.786 30.7746 187.09 30.7975 187.377 30.8794C187.651 30.9592 187.9 31.0924 188.107 31.2692C188.321 31.4521 188.489 31.6727 188.601 31.9168C188.723 32.186 188.785 32.4738 188.783 32.7639V94.2674C188.784 94.5614 188.722 94.853 188.601 95.1269C188.488 95.3815 188.321 95.6143 188.107 95.8121C187.902 96.0027 187.653 96.1531 187.378 96.2537C187.096 96.3557 186.792 96.4007 186.487 96.3856L121.9 93.2389C121.682 93.2262 121.471 93.1655 121.286 93.0622C121.091 92.953 120.921 92.8109 120.787 92.644C120.639 92.4614 120.526 92.2589 120.451 92.0444C120.369 91.8113 120.327 91.5685 120.328 91.3243V40.6887C120.328 40.4416 120.369 40.1959 120.451 39.9595C120.527 39.7377 120.64 39.5273 120.787 39.3355C120.921 39.1586 121.09 39.0045 121.286 38.8807C121.468 38.7658 121.679 38.6907 121.9 38.6617Z" fill="#FF6633"/>
<path opacity="0.2" d="M121.9 38.6617L186.487 30.8123C186.786 30.7746 187.09 30.7975 187.377 30.8794C187.651 30.9592 187.9 31.0924 188.107 31.2692C188.321 31.4521 188.489 31.6727 188.601 31.9168C188.723 32.186 188.785 32.4738 188.783 32.7639V94.2674C188.784 94.5614 188.722 94.853 188.601 95.1269C188.488 95.3815 188.321 95.6143 188.107 95.8121C187.902 96.0027 187.653 96.1531 187.378 96.2537C187.096 96.3557 186.792 96.4007 186.487 96.3856L121.9 93.2389C121.682 93.2262 121.471 93.1655 121.286 93.0622C121.091 92.953 120.921 92.8109 120.787 92.644C120.639 92.4614 120.526 92.2589 120.451 92.0444C120.369 91.8113 120.327 91.5685 120.328 91.3243V40.6887C120.328 40.4416 120.369 40.1959 120.451 39.9595C120.527 39.7377 120.64 39.5273 120.787 39.3355C120.921 39.1586 121.09 39.0045 121.286 38.8807C121.468 38.7658 121.679 38.6907 121.9 38.6617Z" fill="black"/>
<path d="M119.24 38.6617L183.827 30.8123C184.126 30.7746 184.43 30.7975 184.717 30.8794C184.99 30.9592 185.24 31.0924 185.447 31.2692C185.661 31.4521 185.829 31.6727 185.941 31.9168C186.063 32.186 186.125 32.4738 186.123 32.7639V94.2674C186.124 94.5614 186.062 94.853 185.941 95.1269C185.828 95.3815 185.661 95.6143 185.447 95.8121C185.241 96.0027 184.993 96.1531 184.717 96.2537C184.436 96.3557 184.131 96.4007 183.827 96.3856L119.24 93.2389C119.022 93.2262 118.811 93.1655 118.626 93.0622C118.43 92.953 118.261 92.8109 118.127 92.644C117.979 92.4614 117.866 92.2589 117.791 92.0444C117.709 91.8113 117.667 91.5685 117.667 91.3243V40.6887C117.668 40.4416 117.709 40.1959 117.791 39.9595C117.867 39.7377 117.98 39.5273 118.127 39.3355C118.261 39.1586 118.43 39.0045 118.626 38.8807C118.808 38.7658 119.019 38.6907 119.24 38.6617Z" fill="#FF6633"/>
<path d="M119.516 87.8317C119.341 87.9687 119.177 88.1176 119.028 88.2773L98.1467 86.3891L96.052 82.2764L88.6224 84.2617L91.5309 91.8613C91.7659 92.4753 92.2196 93.0052 92.8241 93.3716C93.4285 93.738 94.151 93.9211 94.883 93.8933L118.741 92.9891C119.244 93.6517 119.963 94.1633 120.803 94.4557C121.642 94.7481 122.562 94.8075 123.441 94.6259C124.319 94.4443 125.115 94.0305 125.721 93.4393C126.327 92.8482 126.715 92.1078 126.834 91.3167C126.953 90.5255 126.797 89.7211 126.386 89.0104C125.976 88.2997 125.331 87.7164 124.536 87.338C123.742 86.9597 122.836 86.8043 121.939 86.8925C121.043 86.9807 120.197 87.3083 119.516 87.8317V87.8317Z" fill="#FFB6B6"/>
<path d="M98.5602 85.5077C98.6727 85.287 98.7301 85.0474 98.7285 84.8053C98.7268 84.5632 98.6661 84.3242 98.5505 84.1048L94.515 76.439C94.117 75.2512 93.2027 74.2516 91.9727 73.6593C90.7427 73.067 89.2974 72.9304 87.9537 73.2794C86.6099 73.6284 85.4775 74.4345 84.8047 75.521C84.1319 76.6075 83.9736 77.8857 84.3646 79.0753L85.7164 87.4743C85.755 87.714 85.8516 87.9435 85.9995 88.1472C86.1474 88.3509 86.3432 88.5241 86.5735 88.6548C86.8039 88.7855 87.0634 88.8708 87.3344 88.9048C87.6054 88.9388 87.8815 88.9208 88.1439 88.8519L97.3656 86.4308C97.6281 86.362 97.8707 86.2439 98.0768 86.0846C98.283 85.9253 98.4479 85.7285 98.5602 85.5077Z" fill="#3F3D56"/>
<path d="M0.332336 190H127.111C127.199 190 127.284 189.969 127.346 189.914C127.408 189.858 127.443 189.783 127.443 189.705C127.443 189.627 127.408 189.553 127.346 189.497C127.284 189.442 127.199 189.411 127.111 189.411H0.332336C0.244087 189.411 0.159454 189.442 0.0970535 189.497C0.0346527 189.553 -0.000411987 189.627 -0.000411987 189.705C-0.000411987 189.783 0.0346527 189.858 0.0970535 189.914C0.159454 189.969 0.244087 190 0.332336 190Z" fill="#CACACA"/>
</svg>
