<svg width="745" height="421" viewBox="0 0 745 421" fill="none" xmlns="http://www.w3.org/2000/svg">
<g clip-path="url(#clip0_400_5298)">
<path d="M109.347 267.286C108.674 267.121 108.046 266.809 107.506 266.374C106.966 265.939 106.529 265.391 106.224 264.768C105.919 264.145 105.754 263.463 105.741 262.769C105.728 262.076 105.867 261.388 106.148 260.754L93.8436 249.238L102.356 247.191L112.735 258.441C113.768 258.984 114.566 259.888 114.977 260.981C115.389 262.073 115.385 263.279 114.967 264.37C114.55 265.46 113.747 266.359 112.711 266.897C111.675 267.434 110.478 267.573 109.347 267.286Z" fill="#FFB6B6"/>
<path d="M102.99 258.01L108.729 249.914L87.1747 227.605L82.1701 192.44C81.9227 190.702 81.2959 189.04 80.3343 187.571C79.3727 186.103 78.0998 184.864 76.606 183.943C75.1123 183.023 73.4342 182.442 71.691 182.243C69.9479 182.044 68.1823 182.232 66.5197 182.793C63.5179 183.809 61.0415 185.975 59.6339 188.816C58.2262 191.657 58.0022 194.941 59.0111 197.947L71.7801 235.859L102.99 258.01Z" fill="#E4E4E4"/>
<path d="M62.5215 407.843H68.8913L71.9219 383.255L62.52 383.255L62.5215 407.843Z" fill="#FFB6B6"/>
<path d="M59.0932 419.947H63.6133L64.4201 415.676L66.4865 419.947H78.4749C79.0495 419.947 79.6091 419.763 80.072 419.422C80.5349 419.082 80.8768 418.602 81.0478 418.053C81.2188 417.504 81.21 416.914 81.0226 416.371C80.8352 415.827 80.4791 415.358 80.0062 415.031L70.4326 408.414V404.097L60.3629 404.698L59.0932 419.947Z" fill="#2F2E41"/>
<path d="M23.2196 401.356L28.8148 404.403L43.2207 384.255L34.9626 379.758L23.2196 401.356Z" fill="#FFB6B6"/>
<path d="M14.4299 410.349L18.4003 412.511L21.1487 409.145L20.9241 413.885L31.4544 419.619C31.9592 419.894 32.5385 420 33.1078 419.922C33.6771 419.845 34.2067 419.587 34.6191 419.186C35.0315 418.786 35.3053 418.264 35.4004 417.697C35.4954 417.13 35.4069 416.547 35.1476 416.034L29.8986 405.643L31.9608 401.85L22.8285 397.562L14.4299 410.349Z" fill="#2F2E41"/>
<path d="M59.8373 399.087H73.0018V352.176L81.1518 321.592C87.001 299.72 88.5555 276.921 85.729 254.457L85.7176 254.365L85.6469 254.305C85.4376 254.129 64.5785 236.87 51.3844 250.073C42.491 258.973 50.8476 290.975 51.3153 292.731V347.899L59.8373 399.087Z" fill="#2F2E41"/>
<path d="M59.8682 177.893L59.9379 177.823L76.7235 178.079L85.6851 199.128C93.9811 212.022 86.0488 219.356 85.4916 220.518L87.0781 236.34L88.0996 246.547L89.7402 262.98L51.2703 250.403L55.5499 233.25L50.6049 208.506C49.5068 203.035 49.7779 197.377 51.3941 192.035C53.0104 186.694 55.9215 181.836 59.8682 177.893Z" fill="#E4E4E4"/>
<path d="M67.6914 352.418L40.6472 390.485L30.2733 383.104L52.8591 336.656L67.6914 352.418Z" fill="#2F2E41"/>
<path d="M69.9001 173.802C61.3416 173.802 54.4036 166.859 54.4036 158.295C54.4036 149.73 61.3416 142.787 69.9001 142.787C78.4585 142.787 85.3965 149.73 85.3965 158.295C85.3965 166.859 78.4585 173.802 69.9001 173.802Z" fill="#FFB6B6"/>
<path opacity="0.1" d="M54.9541 218.287L71.8558 237.803L88.0996 246.546L87.0781 236.339L77.5129 230.965L54.9541 218.287Z" fill="black"/>
<path d="M80.7539 187.356L82.2079 180.98C82.6856 178.847 82.7318 176.639 82.3438 174.487C81.9557 172.335 81.1412 170.283 79.9482 168.451C78.8522 166.723 78.2413 164.733 78.1797 162.687C78.1182 160.642 78.6082 158.618 79.5983 156.828C80.3289 155.381 81.4391 154.16 82.81 153.296C84.1809 152.432 85.7608 151.957 87.3806 151.923H87.7676V151.535C87.7676 145.975 83.4371 142.05 79.4109 141.825C79.2654 140.668 78.4458 139.631 77.0186 138.807C73.6098 136.84 67.0189 136.414 62.0389 139.035C61.9468 138.188 61.6273 137.381 61.1142 136.7C60.6011 136.02 59.9135 135.491 59.1243 135.169C58.3061 134.885 57.4248 134.834 56.5794 135.023C56.5068 133.629 55.9315 132.309 54.9602 131.307C53.5855 129.973 51.3798 129.467 48.9081 129.914C45.5141 130.53 42.1688 132.694 39.4881 136.007C37.1117 138.944 35.4619 142.406 33.8661 145.754C32.2972 149.046 30.675 152.451 28.3231 155.333C25.7467 158.491 22.5544 160.537 19.3342 161.095C15.5785 161.745 11.7242 160.198 9.96027 157.333L9.60999 156.764L9.29106 157.351C7.30949 160.995 8.12003 166.002 11.219 169.256C13.9979 172.175 18.3589 173.662 22.8809 173.23C26.7095 172.866 30.571 171.238 34.3585 168.392C38.1206 165.565 40.4472 162.44 41.2736 159.103C41.5048 158.071 41.6708 157.025 41.7705 155.972C42.0267 153.766 42.2681 151.682 43.6247 150.148C44.8433 148.769 46.7297 148.171 48.4022 147.72L48.7306 147.632C48.7905 148.253 48.985 148.854 49.3007 149.392C49.6165 149.931 50.0458 150.394 50.5587 150.749C50.8667 150.934 51.2047 151.065 51.5574 151.134C49.6182 158.944 50.4151 164.924 53.9293 168.911C59.8608 175.642 71.2583 174.257 71.7409 174.196L72.0617 174.154L72.0779 173.831C72.1212 172.963 72.2271 172.1 72.3949 171.247C74.0273 175.183 79.519 185.592 80.2536 186.641L80.7539 187.356Z" fill="#2F2E41"/>
<path d="M628.002 212.396C628.455 212.992 629.033 213.482 629.696 213.83C630.359 214.179 631.09 214.378 631.838 214.413C632.585 214.449 633.332 214.319 634.024 214.035C634.717 213.75 635.339 213.317 635.846 212.766L652.535 220.029L650.91 210.706L635.31 205.238C634.329 204.447 633.091 204.043 631.832 204.104C630.573 204.165 629.38 204.686 628.479 205.568C627.578 206.45 627.032 207.633 626.944 208.891C626.856 210.15 627.232 211.396 628.002 212.396V212.396Z" fill="#A0616A"/>
<path d="M639.14 215.307L677.903 232.586L677.986 232.556L722.167 216.801C725.458 215.08 727.966 212.165 729.18 208.653C730.393 205.141 730.219 201.298 728.693 197.91C727.847 196.039 726.615 194.368 725.077 193.007C723.539 191.646 721.731 190.627 719.771 190.016C717.811 189.405 715.745 189.216 713.707 189.462C711.669 189.709 709.706 190.384 707.948 191.444L675.069 211.263L643.187 207.128L639.14 215.307Z" fill="#3F3D56"/>
<path d="M622.899 101.54C637.553 69.103 637.012 27.9878 614.27 0.616211C606.661 38.5714 585.882 72.61 555.609 96.7097C543.9 105.962 529.914 115.032 526.716 129.614C524.725 138.688 527.546 148.285 532.424 156.189C537.301 164.093 544.1 170.594 550.821 177.002L551.575 179.195C580.822 158.931 608.245 133.977 622.899 101.54Z" fill="#F0F0F0"/>
<path d="M613.638 1.01199C618.872 29.6924 614.984 60.2318 602.262 86.5085C599.512 92.1894 596.227 97.7127 591.831 102.282C587.51 106.702 582.086 109.885 576.122 111.498C570.59 113.114 564.745 114.126 559.703 117.06C554.388 120.152 551.089 125.34 549.804 131.29C548.232 138.57 549.368 145.981 550.73 153.19C552.242 161.193 553.94 169.483 551.748 177.529C551.483 178.504 553.01 178.859 553.275 177.886C557.088 163.887 549.675 150.081 550.711 136.007C551.194 129.439 553.659 122.978 559.285 119.173C564.206 115.846 570.232 114.797 575.847 113.209C581.743 111.542 587.037 108.995 591.543 104.77C596.151 100.448 599.658 95.042 602.542 89.4563C608.986 76.7413 613.392 63.0914 615.599 49.0067C618.207 32.9459 618.051 16.5569 615.136 0.54893C614.955 -0.441783 613.458 0.0277353 613.638 1.01199Z" fill="white"/>
<path d="M606.848 78.1856C611.595 79.7082 616.729 79.4924 621.332 77.5769C625.935 75.6613 629.708 72.1707 631.977 67.7284C632.433 66.828 631.056 66.0766 630.6 66.9782C628.495 71.1188 624.98 74.37 620.69 76.145C616.4 77.9199 611.617 78.1018 607.204 76.6578C606.245 76.3451 605.894 77.8747 606.848 78.1856L606.848 78.1856Z" fill="white"/>
<path d="M579.034 111.048C574.29 102.022 573.12 91.5388 575.757 81.6878C576.019 80.7121 574.492 80.3565 574.23 81.3311C571.505 91.5873 572.745 102.495 577.702 111.877C578.175 112.77 579.504 111.937 579.034 111.048Z" fill="white"/>
<path d="M616.192 33.4555C614.232 33.2494 612.355 32.5595 610.727 31.4477C609.1 30.3359 607.774 28.8371 606.869 27.0858C606.407 26.1864 605.079 27.0203 605.537 27.9139C606.547 29.8441 608.013 31.4976 609.808 32.73C611.603 33.9623 613.673 34.7359 615.836 34.9833C616.037 35.0237 616.247 34.9857 616.422 34.8769C616.597 34.7682 616.724 34.5969 616.777 34.3978C616.823 34.1953 616.788 33.9827 616.678 33.8062C616.569 33.6298 616.394 33.5037 616.192 33.4555Z" fill="white"/>
<path d="M493.83 0.933929C494.102 1.50377 494.374 2.0736 494.64 2.65508C498.26 10.3351 501.251 18.2967 503.584 26.4615C503.774 27.0899 503.957 27.7296 504.129 28.3621C509.538 48.0927 511.239 68.6568 509.147 89.0089C508.306 97.1067 506.852 105.129 504.795 113.006C501.955 123.884 498.01 135.453 498.9 146.315C498.98 147.449 499.13 148.578 499.35 149.693L548.844 179.945C548.991 179.958 549.131 179.981 549.279 179.994L551.2 181.292C551.334 180.894 551.465 180.477 551.599 180.078C551.678 179.847 551.746 179.609 551.825 179.378C551.874 179.222 551.923 179.066 551.976 178.927C551.993 178.876 552.009 178.823 552.018 178.783C552.072 178.645 552.107 178.511 552.153 178.384C552.891 176.057 553.613 173.722 554.321 171.377C554.328 171.366 554.328 171.366 554.324 171.348C559.671 153.467 563.572 134.983 564.547 116.494C564.576 115.938 564.613 115.371 564.619 114.8C565.012 106.464 564.723 98.1093 563.756 89.8199C563.212 85.2826 562.439 80.7757 561.439 76.3167C558.834 64.8001 554.435 53.7652 548.404 43.6165C536.377 23.387 518.019 7.23192 495.551 1.36534C494.976 1.21561 494.411 1.07226 493.83 0.933929Z" fill="#F0F0F0"/>
<path d="M493.558 1.63057C514.993 21.3768 530.262 48.1035 535.913 76.7487C537.135 82.9417 537.836 89.3305 537.074 95.6278C536.285 101.76 533.868 107.569 530.077 112.451C526.633 117.074 522.575 121.404 520.313 126.784C517.93 132.455 518.418 138.585 520.972 144.11C524.096 150.87 529.461 156.103 534.886 161.038C540.909 166.517 547.252 172.113 550.343 179.858C550.717 180.796 552.15 180.16 551.776 179.223C546.398 165.749 532.173 159.191 524.533 147.33C520.968 141.795 519.048 135.151 521.251 128.723C523.178 123.102 527.359 118.633 530.887 113.983C534.591 109.099 537.286 103.876 538.342 97.788C539.421 91.5607 538.969 85.1311 537.91 78.9339C535.406 64.8991 530.712 51.3456 524 38.7699C516.42 24.3749 506.434 11.3836 494.476 0.358164C493.736 -0.323936 492.823 0.952923 493.558 1.63056V1.63057Z" fill="white"/>
<path d="M534.567 67.3407C539.274 65.696 543.243 62.4307 545.766 58.1278C548.289 53.825 549.201 48.7647 548.34 43.8509C548.163 42.8572 546.611 43.0868 546.789 44.0818C547.599 48.6561 546.749 53.3696 544.392 57.3717C542.034 61.3737 538.325 64.4006 533.933 65.906C532.979 66.2343 533.619 67.6671 534.567 67.3407H534.567Z" fill="white"/>
<path d="M532.132 110.337C522.914 105.989 515.672 98.3231 511.851 88.8688C511.473 87.9318 510.04 88.5679 510.417 89.5038C514.412 99.3347 521.964 107.297 531.567 111.801C532.483 112.229 533.043 110.764 532.132 110.337Z" fill="white"/>
<path d="M515.116 25.9961C513.427 27.0122 511.513 27.5927 509.545 27.6855C507.576 27.7782 505.616 27.3803 503.839 26.5275C502.93 26.0874 502.371 27.5537 503.274 27.9909C505.241 28.924 507.407 29.3608 509.582 29.2632C511.757 29.1656 513.874 28.5364 515.75 27.4308C515.936 27.3414 516.08 27.1847 516.155 26.9925C516.229 26.8003 516.227 26.587 516.15 26.396C516.065 26.2064 515.909 26.0581 515.715 25.9833C515.521 25.9084 515.306 25.913 515.116 25.9961Z" fill="white"/>
<path d="M304.059 118.577C318.713 86.1406 318.172 45.0254 295.43 17.6538C287.821 55.609 267.042 89.6476 236.769 113.747C225.06 122.999 211.074 132.07 207.876 146.652C205.885 155.725 208.707 165.323 213.584 173.226C218.461 181.13 225.26 187.632 231.981 194.04L232.735 196.232C261.982 175.969 289.405 151.014 304.059 118.577Z" fill="#F0F0F0"/>
<path d="M294.796 18.0496C300.03 46.73 296.142 77.2694 283.42 103.546C280.67 109.227 277.386 114.75 272.989 119.319C268.669 123.74 263.245 126.922 257.28 128.536C251.749 130.152 245.904 131.164 240.861 134.098C235.546 137.19 232.248 142.378 230.963 148.328C229.391 155.608 230.526 163.018 231.888 170.227C233.4 178.231 235.098 186.52 232.907 194.566C232.641 195.541 234.168 195.897 234.433 194.923C238.246 180.925 230.833 167.118 231.869 153.044C232.353 146.477 234.817 140.016 240.444 136.211C245.364 132.883 251.391 131.835 257.005 130.247C262.901 128.579 268.196 126.032 272.701 121.808C277.31 117.486 280.816 112.08 283.7 106.494C290.144 93.7789 294.551 80.129 296.758 66.0443C299.366 49.9834 299.209 33.5945 296.294 17.5865C296.114 16.5958 294.617 17.0653 294.796 18.0496Z" fill="white"/>
<path d="M288.006 95.2232C292.753 96.7458 297.887 96.5301 302.49 94.6145C307.094 92.6989 310.866 89.2083 313.135 84.766C313.591 83.8656 312.214 83.1142 311.758 84.0158C309.653 88.1564 306.138 91.4076 301.848 93.1826C297.558 94.9576 292.775 95.1394 288.362 93.6954C287.403 93.3827 287.052 94.9123 288.006 95.2232V95.2232Z" fill="white"/>
<path d="M260.194 128.086C255.45 119.06 254.28 108.576 256.917 98.7254C257.179 97.7497 255.652 97.3941 255.39 98.3687C252.665 108.625 253.905 119.532 258.862 128.914C259.335 129.808 260.664 128.975 260.194 128.086Z" fill="white"/>
<path d="M297.35 50.4931C295.391 50.287 293.513 49.5971 291.886 48.4853C290.258 47.3735 288.933 45.8747 288.027 44.1234C287.566 43.224 286.237 44.0579 286.695 44.9515C287.705 46.8817 289.171 48.5352 290.966 49.7676C292.761 50.9999 294.831 51.7735 296.994 52.0209C297.196 52.0613 297.405 52.0233 297.58 51.9145C297.755 51.8058 297.882 51.6345 297.935 51.4354C297.982 51.2329 297.946 51.0203 297.836 50.8438C297.727 50.6674 297.552 50.5413 297.35 50.4931Z" fill="white"/>
<path d="M174.99 17.9715C175.262 18.5414 175.534 19.1112 175.8 19.6927C179.421 27.3727 182.412 35.3343 184.744 43.4991C184.934 44.1275 185.117 44.7672 185.289 45.3997C190.698 65.1303 192.399 85.6944 190.307 106.047C189.466 114.144 188.012 122.166 185.955 130.043C183.115 140.922 179.17 152.49 180.06 163.353C180.14 164.487 180.291 165.615 180.51 166.731L230.004 196.983C230.151 196.995 230.291 197.019 230.439 197.032L232.36 198.33C232.494 197.931 232.625 197.515 232.76 197.116C232.839 196.885 232.906 196.647 232.985 196.416C233.035 196.26 233.083 196.103 233.136 195.965C233.153 195.913 233.169 195.861 233.179 195.82C233.232 195.682 233.267 195.548 233.313 195.421C234.051 193.095 234.774 190.759 235.481 188.415C235.488 188.403 235.488 188.403 235.484 188.385C240.831 170.505 244.733 152.021 245.707 133.532C245.736 132.975 245.773 132.408 245.779 131.838C246.172 123.502 245.884 115.147 244.916 106.858C244.372 102.32 243.599 97.8133 242.599 93.3543C239.994 81.8377 235.596 70.8027 229.564 60.6541C217.537 40.4246 199.179 24.2695 176.711 18.4029C176.136 18.2532 175.572 18.1099 174.99 17.9715Z" fill="#F0F0F0"/>
<path d="M174.717 18.6682C196.151 38.4144 211.42 65.1411 217.072 93.7863C218.294 99.9794 218.994 106.368 218.233 112.665C217.443 118.798 215.027 124.607 211.235 129.489C207.791 134.112 203.733 138.442 201.472 143.822C199.088 149.493 199.576 155.623 202.13 161.148C205.254 167.907 210.62 173.14 216.044 178.075C222.067 183.555 228.41 189.151 231.501 196.895C231.875 197.834 233.308 197.197 232.934 196.26C227.557 182.786 213.331 176.229 205.691 164.367C202.126 158.832 200.206 152.189 202.41 145.761C204.337 140.139 208.517 135.671 212.045 131.02C215.749 126.137 218.444 120.913 219.5 114.826C220.58 108.598 220.127 102.169 219.068 95.9715C216.564 81.9367 211.87 68.3832 205.158 55.8075C197.578 41.4125 187.592 28.4212 175.634 17.3958C174.894 16.7137 173.981 17.9905 174.717 18.6682V18.6682Z" fill="white"/>
<path d="M215.726 84.3783C220.432 82.7337 224.401 79.4683 226.924 75.1655C229.447 70.8626 230.36 65.8024 229.498 60.8885C229.321 59.8948 227.769 60.1244 227.947 61.1194C228.758 65.6937 227.907 70.4073 225.55 74.4093C223.192 78.4113 219.483 81.4382 215.091 82.9436C214.137 83.2719 214.777 84.7047 215.726 84.3783Z" fill="white"/>
<path d="M213.29 127.375C204.072 123.026 196.83 115.361 193.009 105.906C192.631 104.969 191.198 105.606 191.576 106.541C195.57 116.372 203.123 124.334 212.725 128.838C213.641 129.267 214.201 127.801 213.29 127.375Z" fill="white"/>
<path d="M196.276 43.0338C194.587 44.0499 192.673 44.6303 190.705 44.7231C188.737 44.8158 186.776 44.4179 185 43.5651C184.09 43.125 183.531 44.5914 184.434 45.0286C186.402 45.9616 188.567 46.3985 190.742 46.3008C192.917 46.2032 195.035 45.5741 196.91 44.4684C197.096 44.3791 197.24 44.2223 197.315 44.0301C197.389 43.8379 197.387 43.6246 197.31 43.4336C197.225 43.2441 197.069 43.0958 196.875 43.0209C196.681 42.946 196.466 42.9506 196.276 43.0338Z" fill="white"/>
<path d="M600.434 331.722H223.412V113.294C223.414 111.657 224.064 110.088 225.221 108.931C226.377 107.773 227.945 107.123 229.58 107.121H594.265C595.9 107.123 597.468 107.773 598.625 108.931C599.781 110.088 600.432 111.657 600.434 113.294V331.722Z" fill="#CACACA"/>
<path d="M235.06 115.658H588.785V316.617H235.06V115.658Z" fill="white"/>
<path d="M600.762 325.811V352.766C600.762 353.883 600.542 354.99 600.115 356.022C599.687 357.054 599.061 357.992 598.271 358.782C597.482 359.573 596.544 360.199 595.513 360.627C594.481 361.055 593.375 361.275 592.259 361.275H453.103V414.47H454.952C455.097 414.47 455.24 414.498 455.374 414.554C455.508 414.609 455.63 414.691 455.733 414.793C455.835 414.896 455.917 415.018 455.972 415.152C456.028 415.286 456.056 415.43 456.056 415.575V419.275C456.056 419.42 456.028 419.564 455.972 419.698C455.917 419.832 455.835 419.954 455.733 420.057C455.63 420.159 455.508 420.241 455.374 420.296C455.24 420.352 455.097 420.38 454.952 420.38H368.565C368.42 420.38 368.277 420.352 368.143 420.296C368.009 420.241 367.887 420.159 367.784 420.057C367.682 419.954 367.601 419.832 367.545 419.698C367.489 419.564 367.461 419.42 367.461 419.275V415.575C367.461 415.43 367.489 415.286 367.545 415.152C367.601 415.018 367.682 414.896 367.784 414.793C367.887 414.691 368.009 414.609 368.143 414.554C368.277 414.498 368.42 414.47 368.565 414.47H370.414V361.275H231.258C230.142 361.275 229.036 361.055 228.004 360.627C226.973 360.199 226.035 359.573 225.246 358.782C224.456 357.992 223.83 357.054 223.403 356.022C222.975 354.99 222.755 353.883 222.755 352.766V325.811L600.762 325.811Z" fill="#3F3D56"/>
<path d="M478.794 215.04H564.994C565.595 215.039 566.171 214.8 566.595 214.375C567.02 213.95 567.259 213.374 567.26 212.773V177.771C567.259 177.17 567.02 176.594 566.595 176.169C566.171 175.744 565.595 175.505 564.994 175.504H478.794C478.193 175.505 477.617 175.744 477.192 176.169C476.768 176.594 476.529 177.17 476.528 177.771V212.773C476.529 213.374 476.768 213.95 477.192 214.375C477.617 214.8 478.193 215.039 478.794 215.04Z" fill="#FF6633"/>
<path d="M487.002 231.83H556.787C557.508 231.83 558.2 231.544 558.71 231.033C559.219 230.523 559.506 229.831 559.506 229.109C559.506 228.388 559.219 227.696 558.71 227.185C558.2 226.675 557.508 226.389 556.787 226.389H487.002C483.496 226.34 483.461 231.88 487.002 231.83Z" fill="#E4E4E4"/>
<path d="M487.002 244.301H556.787C557.508 244.301 558.2 244.014 558.71 243.504C559.219 242.993 559.506 242.301 559.506 241.58C559.506 240.858 559.219 240.166 558.71 239.656C558.2 239.146 557.508 238.859 556.787 238.859H487.002C483.496 238.81 483.461 244.35 487.002 244.301Z" fill="#E4E4E4"/>
<path d="M487.002 256.771H556.787C557.508 256.771 558.2 256.484 558.71 255.974C559.219 255.464 559.506 254.772 559.506 254.05C559.506 253.329 559.219 252.637 558.71 252.126C558.2 251.616 557.508 251.329 556.787 251.329H487.002C483.496 251.28 483.461 256.82 487.002 256.771Z" fill="#E4E4E4"/>
<path d="M368.823 215.04H455.023C455.624 215.039 456.2 214.8 456.625 214.375C457.049 213.95 457.288 213.374 457.289 212.773V177.771C457.288 177.17 457.049 176.594 456.625 176.169C456.2 175.744 455.624 175.505 455.023 175.504H368.823C368.222 175.505 367.646 175.744 367.222 176.169C366.797 176.594 366.558 177.17 366.557 177.771V212.773C366.558 213.374 366.797 213.95 367.222 214.375C367.646 214.8 368.222 215.039 368.823 215.04Z" fill="#FF6633"/>
<path d="M377.03 231.83H446.814C447.535 231.83 448.227 231.544 448.737 231.033C449.247 230.523 449.533 229.831 449.533 229.109C449.533 228.388 449.247 227.696 448.737 227.185C448.227 226.675 447.535 226.389 446.814 226.389H377.03C373.523 226.34 373.488 231.88 377.03 231.83Z" fill="#E4E4E4"/>
<path d="M377.03 244.301H446.814C447.535 244.301 448.227 244.014 448.737 243.504C449.247 242.993 449.533 242.301 449.533 241.58C449.533 240.858 449.247 240.166 448.737 239.656C448.227 239.146 447.535 238.859 446.814 238.859H377.03C373.523 238.81 373.488 244.35 377.03 244.301Z" fill="#E4E4E4"/>
<path d="M377.03 256.771H446.814C447.535 256.771 448.227 256.484 448.737 255.974C449.247 255.464 449.533 254.772 449.533 254.05C449.533 253.329 449.247 252.637 448.737 252.126C448.227 251.616 447.535 251.329 446.814 251.329H377.03C373.523 251.28 373.488 256.82 377.03 256.771Z" fill="#E4E4E4"/>
<path d="M258.852 215.04H345.053C345.653 215.039 346.229 214.8 346.654 214.375C347.079 213.95 347.318 213.374 347.318 212.773V177.771C347.318 177.17 347.079 176.594 346.654 176.169C346.229 175.744 345.653 175.505 345.053 175.504H258.852C258.252 175.505 257.676 175.744 257.251 176.169C256.826 176.594 256.587 177.17 256.587 177.771V212.773C256.587 213.374 256.826 213.95 257.251 214.375C257.676 214.8 258.252 215.039 258.852 215.04Z" fill="#FF6633"/>
<path d="M267.059 231.83H336.844C337.565 231.83 338.256 231.544 338.766 231.033C339.276 230.523 339.562 229.831 339.562 229.109C339.562 228.388 339.276 227.696 338.766 227.185C338.256 226.675 337.565 226.389 336.844 226.389H267.059C263.553 226.34 263.518 231.88 267.059 231.83Z" fill="#E4E4E4"/>
<path d="M267.06 244.301H336.844C337.565 244.299 338.255 244.012 338.764 243.502C339.273 242.992 339.559 242.301 339.559 241.58C339.559 240.859 339.273 240.168 338.764 239.658C338.255 239.147 337.565 238.86 336.844 238.859H267.06C263.554 238.81 263.518 244.35 267.06 244.301Z" fill="#E4E4E4"/>
<path d="M267.059 256.771H336.844C337.565 256.771 338.256 256.484 338.766 255.974C339.276 255.464 339.562 254.772 339.562 254.05C339.562 253.329 339.276 252.637 338.766 252.126C338.256 251.616 337.565 251.329 336.844 251.329H267.059C263.553 251.28 263.518 256.82 267.059 256.771Z" fill="#E4E4E4"/>
<path d="M111.555 175.977L111.32 219.848L110.359 219.793L109.446 236.036L111.23 236.133L111.18 245.891L109.752 245.863L109.463 262.119L111.089 262.149L110.314 405.308C110.297 409.056 111.768 412.658 114.402 415.324C117.036 417.989 120.619 419.499 124.365 419.523L282.392 420.38C286.138 420.397 289.737 418.926 292.401 416.29C295.064 413.654 296.573 410.068 296.597 406.319L297.838 176.988C297.855 173.239 296.384 169.637 293.75 166.972C291.116 164.307 287.533 162.797 283.787 162.773L125.76 161.916C122.015 161.9 118.416 163.372 115.753 166.008C113.09 168.643 111.581 172.228 111.555 175.977Z" fill="#3F3D56"/>
<path d="M124.135 410.504L282.718 411.365C283.873 411.37 284.982 410.916 285.803 410.104C286.624 409.291 287.089 408.186 287.097 407.03L288.348 176.174C288.353 175.019 287.899 173.909 287.087 173.087C286.275 172.266 285.171 171.8 284.016 171.793L125.434 170.932C124.279 170.927 123.17 171.381 122.349 172.193C121.528 173.006 121.063 174.111 121.055 175.266L119.804 406.122C119.799 407.278 120.252 408.388 121.064 409.209C121.876 410.031 122.981 410.497 124.135 410.504Z" fill="white"/>
<path d="M205.351 167.878C204.687 167.878 204.149 167.339 204.149 166.675C204.149 166.011 204.687 165.473 205.351 165.473C206.015 165.473 206.553 166.011 206.553 166.675C206.553 167.339 206.015 167.878 205.351 167.878Z" fill="white"/>
<path d="M158.184 235.91H249.966C250.606 235.91 251.219 235.655 251.671 235.202C252.124 234.75 252.378 234.136 252.379 233.496V196.228C252.378 195.588 252.124 194.975 251.671 194.522C251.219 194.069 250.606 193.815 249.966 193.814H158.184C157.544 193.815 156.931 194.069 156.479 194.522C156.026 194.975 155.772 195.588 155.771 196.228V233.496C155.772 234.136 156.026 234.75 156.479 235.203C156.931 235.655 157.544 235.91 158.184 235.91Z" fill="#FF6633"/>
<path d="M166.924 253.788H241.228C241.996 253.788 242.732 253.483 243.275 252.94C243.818 252.396 244.123 251.659 244.123 250.891C244.123 250.123 243.818 249.386 243.275 248.843C242.732 248.299 241.996 247.994 241.228 247.994H166.924C163.191 247.942 163.153 253.841 166.924 253.788Z" fill="#E4E4E4"/>
<path d="M166.925 267.066H241.229C241.996 267.065 242.731 266.759 243.273 266.216C243.815 265.673 244.119 264.937 244.119 264.169C244.119 263.402 243.815 262.665 243.273 262.122C242.731 261.579 241.996 261.273 241.229 261.272H166.925C163.192 261.22 163.154 267.119 166.925 267.066Z" fill="#E4E4E4"/>
<path d="M166.924 280.344H241.228C241.996 280.344 242.732 280.039 243.275 279.496C243.818 278.952 244.123 278.215 244.123 277.447C244.123 276.679 243.818 275.942 243.275 275.399C242.732 274.855 241.996 274.55 241.228 274.55H166.924C163.191 274.498 163.153 280.397 166.924 280.344Z" fill="#E4E4E4"/>
<path d="M158.184 344.049H249.966C250.606 344.048 251.219 343.793 251.671 343.341C252.124 342.888 252.378 342.274 252.379 341.634V304.366C252.378 303.726 252.124 303.113 251.671 302.66C251.219 302.208 250.606 301.953 249.966 301.952H158.184C157.544 301.953 156.931 302.208 156.479 302.66C156.026 303.113 155.772 303.726 155.771 304.366V341.634C155.772 342.274 156.026 342.888 156.479 343.341C156.931 343.793 157.544 344.048 158.184 344.049Z" fill="#FF6633"/>
<path d="M166.924 361.926H241.228C241.996 361.926 242.732 361.621 243.275 361.078C243.818 360.535 244.123 359.798 244.123 359.029C244.123 358.261 243.818 357.524 243.275 356.981C242.732 356.438 241.996 356.132 241.228 356.132H166.924C163.191 356.08 163.153 361.979 166.924 361.926Z" fill="#E4E4E4"/>
<path d="M166.925 375.204H241.229C241.996 375.203 242.731 374.897 243.273 374.354C243.815 373.811 244.119 373.075 244.119 372.307C244.119 371.54 243.815 370.804 243.273 370.26C242.731 369.717 241.996 369.412 241.229 369.41H166.925C163.192 369.358 163.154 375.257 166.925 375.204Z" fill="#E4E4E4"/>
<path d="M166.924 388.482H241.228C241.996 388.482 242.732 388.177 243.275 387.634C243.818 387.09 244.123 386.354 244.123 385.585C244.123 384.817 243.818 384.08 243.275 383.537C242.732 382.993 241.996 382.688 241.228 382.688H166.924C163.191 382.636 163.153 388.535 166.924 388.482Z" fill="#E4E4E4"/>
<path d="M565.986 409.115L566.291 282.685L565.14 282.682L565.195 259.429L566.347 259.432L566.441 220.614C566.445 219.164 566.733 217.729 567.291 216.391C567.849 215.053 568.664 213.838 569.691 212.815C570.718 211.792 571.936 210.982 573.276 210.43C574.616 209.879 576.051 209.597 577.5 209.6L659.598 209.798C661.047 209.802 662.481 210.091 663.818 210.649C665.155 211.207 666.369 212.023 667.391 213.051C668.413 214.078 669.223 215.297 669.774 216.638C670.326 217.979 670.607 219.415 670.604 220.865L670.539 247.931L672.373 247.977L671.968 264.235L670.499 264.198L670.491 267.786L672.053 267.825L671.648 284.083L670.451 284.053L670.149 409.366C670.148 410.817 669.861 412.253 669.304 413.592C668.748 414.932 667.932 416.148 666.905 417.171C665.877 418.195 664.658 419.005 663.317 419.555C661.976 420.106 660.539 420.386 659.09 420.38L576.992 420.182C574.067 420.171 571.266 419 569.202 416.926C567.139 414.851 565.982 412.042 565.986 409.115Z" fill="#3F3D56"/>
<path d="M661.6 415.321C662.624 414.953 663.51 414.278 664.137 413.388C664.765 412.499 665.103 411.438 665.107 410.349L665.566 219.858C665.57 218.455 665.016 217.108 664.027 216.114C663.038 215.119 661.695 214.559 660.293 214.555L642.825 214.513L643.041 215.047C643.416 215.974 643.558 216.979 643.454 217.973C643.349 218.968 643.002 219.921 642.443 220.75C641.883 221.578 641.129 222.257 640.246 222.725C639.363 223.193 638.378 223.436 637.379 223.434L598.613 223.34C597.648 223.256 596.716 222.946 595.893 222.435C595.07 221.923 594.379 221.225 593.876 220.397C593.38 219.583 593.083 218.663 593.01 217.713C592.937 216.762 593.089 215.808 593.455 214.927L593.674 214.394L575.631 214.35C574.229 214.349 572.884 214.904 571.891 215.893C570.897 216.883 570.337 218.226 570.331 219.628L569.892 401.373C569.888 405.094 571.359 408.665 573.982 411.303C576.605 413.941 580.167 415.43 583.886 415.443L659.807 415.627C660.418 415.629 661.025 415.525 661.6 415.321Z" fill="white"/>
<path d="M631.693 219.028C631.029 219.028 630.491 218.49 630.491 217.826C630.491 217.161 631.029 216.623 631.693 216.623C632.356 216.623 632.895 217.161 632.895 217.826C632.895 218.49 632.356 219.028 631.693 219.028Z" fill="white"/>
<path d="M585.235 277.572H647.609C648.043 277.571 648.46 277.398 648.767 277.091C649.075 276.783 649.248 276.366 649.248 275.931V250.605C649.248 250.17 649.075 249.753 648.767 249.445C648.46 249.138 648.043 248.965 647.609 248.964H585.235C584.801 248.965 584.384 249.138 584.077 249.445C583.769 249.753 583.596 250.17 583.596 250.605V275.931C583.596 276.366 583.769 276.783 584.077 277.091C584.384 277.398 584.801 277.571 585.235 277.572Z" fill="#FF6633"/>
<path d="M591.174 289.721H641.669C641.928 289.722 642.184 289.671 642.423 289.572C642.663 289.474 642.88 289.329 643.063 289.146C643.246 288.963 643.391 288.746 643.491 288.507C643.59 288.268 643.641 288.011 643.641 287.752C643.641 287.494 643.59 287.237 643.491 286.998C643.391 286.759 643.246 286.542 643.063 286.359C642.88 286.176 642.663 286.031 642.423 285.932C642.184 285.834 641.928 285.783 641.669 285.784H591.174C588.637 285.748 588.612 289.757 591.174 289.721Z" fill="#E4E4E4"/>
<path d="M591.174 298.745H641.669C642.191 298.745 642.692 298.537 643.061 298.168C643.429 297.799 643.637 297.298 643.637 296.776C643.637 296.254 643.429 295.753 643.061 295.384C642.692 295.015 642.191 294.807 641.669 294.807H591.174C588.637 294.772 588.612 298.78 591.174 298.745Z" fill="#E4E4E4"/>
<path d="M591.174 307.768H641.669C641.928 307.769 642.184 307.718 642.423 307.619C642.663 307.521 642.88 307.376 643.063 307.193C643.246 307.01 643.391 306.793 643.491 306.554C643.59 306.314 643.641 306.058 643.641 305.799C643.641 305.54 643.59 305.284 643.491 305.045C643.391 304.806 643.246 304.589 643.063 304.406C642.88 304.223 642.663 304.078 642.423 303.979C642.184 303.881 641.928 303.83 641.669 303.83H591.174C588.637 303.795 588.612 307.804 591.174 307.768Z" fill="#E4E4E4"/>
<path d="M585.235 353.467H647.609C648.043 353.466 648.46 353.293 648.767 352.986C649.075 352.678 649.248 352.261 649.248 351.826V326.5C649.248 326.065 649.075 325.648 648.767 325.34C648.46 325.033 648.043 324.86 647.609 324.859H585.235C584.801 324.86 584.384 325.033 584.077 325.34C583.769 325.648 583.596 326.065 583.596 326.5V351.826C583.596 352.261 583.769 352.678 584.077 352.986C584.384 353.293 584.801 353.466 585.235 353.467Z" fill="#FF6633"/>
<path d="M591.174 365.616H641.669C641.928 365.616 642.184 365.566 642.423 365.467C642.663 365.368 642.88 365.224 643.063 365.041C643.246 364.858 643.391 364.641 643.491 364.402C643.59 364.162 643.641 363.906 643.641 363.647C643.641 363.388 643.59 363.132 643.491 362.893C643.391 362.654 643.246 362.437 643.063 362.254C642.88 362.071 642.663 361.926 642.423 361.827C642.184 361.728 641.928 361.678 641.669 361.678H591.174C588.637 361.643 588.612 365.652 591.174 365.616Z" fill="#E4E4E4"/>
<path d="M591.174 374.639H641.669C642.191 374.639 642.692 374.432 643.061 374.063C643.429 373.694 643.637 373.193 643.637 372.671C643.637 372.148 643.429 371.648 643.061 371.279C642.692 370.909 642.191 370.702 641.669 370.702H591.174C588.637 370.666 588.612 374.675 591.174 374.639Z" fill="#E4E4E4"/>
<path d="M591.174 383.663H641.669C641.928 383.663 642.184 383.613 642.423 383.514C642.663 383.415 642.88 383.27 643.063 383.088C643.246 382.905 643.391 382.687 643.491 382.448C643.59 382.209 643.641 381.953 643.641 381.694C643.641 381.435 643.59 381.179 643.491 380.94C643.391 380.701 643.246 380.483 643.063 380.301C642.88 380.118 642.663 379.973 642.423 379.874C642.184 379.775 641.928 379.725 641.669 379.725H591.174C588.637 379.69 588.612 383.699 591.174 383.663Z" fill="#E4E4E4"/>
<path d="M724.664 413.462L717.887 413.461L714.663 387.301H724.666L724.664 413.462Z" fill="#A0616A"/>
<path d="M726.395 411.247L724.487 411.247L717.039 408.216L713.047 411.246H713.047C710.791 411.247 708.628 412.143 707.032 413.74C705.437 415.336 704.541 417.501 704.541 419.758V420.035L726.394 420.036L726.395 411.247Z" fill="#2F2E41"/>
<path d="M698.402 409.187L691.792 410.681L682.888 385.875L692.645 383.67L698.402 409.187Z" fill="#A0616A"/>
<path d="M699.601 406.646L697.74 407.067L689.808 405.752L686.582 409.588L686.581 409.588C684.381 410.086 682.468 411.437 681.263 413.346C680.059 415.255 679.661 417.564 680.158 419.766L680.219 420.036L701.535 415.219L699.601 406.646Z" fill="#2F2E41"/>
<path d="M733.249 253.532C736.427 263.123 736.091 273.533 732.486 284.706L730.944 347.612C730.944 347.612 733.241 388.864 725.831 403.381H715.084L709.764 343.844L709.096 303.883L686.057 337.597L700.731 402.407L687.505 403.59L663.692 333.256L693.072 265.02L733.249 253.532Z" fill="#2F2E41"/>
<path d="M691.156 267.035L730.233 260.78C731.257 260.451 732.199 259.905 732.993 259.178C733.787 258.451 734.414 257.56 734.832 256.568C735.249 255.575 735.447 254.504 735.412 253.428C735.377 252.352 735.109 251.296 734.628 250.332L732.856 246.785L733.544 209.519C733.627 204.671 732.433 199.888 730.082 195.649C727.731 191.41 724.305 187.865 720.15 185.372L716.34 183.092L714.414 178.198L696.656 178.631L696.605 185.05L690.245 195.197L690.246 195.24L690.645 250.474L692.397 256.174L689.747 262.804L691.156 267.035Z" fill="#3F3D56"/>
<path d="M703.908 172.112C694.998 172.112 687.774 164.883 687.774 155.966C687.774 147.049 694.998 139.82 703.908 139.82C712.819 139.82 720.043 147.049 720.043 155.966C720.043 164.883 712.819 172.112 703.908 172.112Z" fill="#A0616A"/>
<path d="M720.709 159.486C721.19 157.457 720.969 154.602 720.697 152.559C720.349 149.866 719.439 147.275 718.027 144.956C716.614 142.637 714.73 140.641 712.497 139.097C711.641 138.446 710.624 138.041 709.555 137.927C709.02 137.882 708.486 138.007 708.027 138.285C707.568 138.562 707.209 138.978 707.001 139.473C706.732 138.8 706.328 138.191 705.814 137.681C705.3 137.171 704.688 136.772 704.014 136.508C702.66 135.989 701.204 135.793 699.762 135.935C696.965 136.166 694.284 137.15 692.001 138.782C689.719 140.415 687.921 142.636 686.798 145.209C686.367 146.233 685.163 142.449 684.617 143.417C684.115 144.423 683.24 145.193 682.178 145.561C681.108 145.86 680.674 150.271 680.253 149.243C679.926 150.003 679.797 150.833 679.877 151.657C679.958 152.481 680.245 153.27 680.713 153.953C681.18 154.635 681.813 155.188 682.551 155.56C683.29 155.932 684.111 156.111 684.937 156.08C686.017 155.94 687.088 155.735 688.143 155.466C690.081 155.222 692.041 155.696 693.654 156.799C695.266 157.902 696.419 159.557 696.895 161.453C697.19 160.351 697.66 159.303 698.289 158.351C698.608 157.877 699.035 157.487 699.535 157.212C700.035 156.937 700.594 156.785 701.164 156.77C701.71 156.832 702.236 157.006 702.712 157.28C703.188 157.553 703.603 157.922 703.932 158.362C704.642 159.196 705.175 160.17 705.891 161C707.991 163.436 710.83 169.116 713.823 168.702C716.184 168.375 720.052 162.256 720.709 159.486Z" fill="#2F2E41"/>
<path d="M643.76 255.249C644.447 255.548 645.191 255.692 645.939 255.672C646.688 255.651 647.422 255.467 648.092 255.132C648.762 254.797 649.35 254.319 649.815 253.732C650.28 253.144 650.61 252.462 650.783 251.733L668.891 249.903L662.917 242.566L646.638 245.429C645.395 245.219 644.118 245.473 643.05 246.142C641.981 246.811 641.195 247.849 640.84 249.06C640.486 250.27 640.587 251.569 641.125 252.71C641.663 253.85 642.601 254.754 643.76 255.249Z" fill="#A0616A"/>
<path d="M654.898 252.338L697.154 248.442L697.212 248.375L728.052 213.013C730.081 209.902 730.846 206.131 730.188 202.474C729.53 198.817 727.5 195.55 724.514 193.342C722.862 192.123 720.97 191.268 718.964 190.834C716.957 190.4 714.882 190.395 712.874 190.821C710.866 191.247 708.971 192.094 707.313 193.306C705.656 194.518 704.274 196.068 703.258 197.852L684.263 231.23L654.432 243.224L654.898 252.338Z" fill="#3F3D56"/>
<path d="M0.922241 421H744.079C744.323 420.999 744.557 420.902 744.729 420.729C744.901 420.556 744.998 420.322 744.998 420.078C744.998 419.834 744.901 419.6 744.729 419.427C744.557 419.254 744.323 419.156 744.079 419.156H0.922241C0.677856 419.156 0.443481 419.253 0.270691 419.426C0.0978394 419.599 0.000793457 419.833 0.000793457 420.078C0.000793457 420.322 0.0978394 420.557 0.270691 420.73C0.443481 420.903 0.677856 421 0.922241 421Z" fill="#CCCCCC"/>
<path d="M130.161 256.181C129.471 256.247 128.775 256.161 128.122 255.93C127.469 255.698 126.874 255.325 126.38 254.838C125.887 254.352 125.506 253.763 125.264 253.113C125.022 252.462 124.926 251.767 124.982 251.076L109.563 244.283L116.919 239.533L130.433 246.712C131.588 246.883 132.639 247.471 133.389 248.366C134.138 249.261 134.534 250.4 134.5 251.567C134.466 252.735 134.006 253.849 133.206 254.699C132.407 255.55 131.323 256.077 130.161 256.181V256.181Z" fill="#FFB6B6"/>
<path d="M121.096 249.532L123.834 239.992L96.1179 226.076L79.768 194.55C78.9598 192.991 77.8187 191.63 76.4257 190.563C75.0326 189.495 73.4219 188.748 71.7078 188.374C69.9937 187.999 68.2183 188.007 66.5075 188.397C64.7968 188.786 63.1927 189.548 61.8092 190.627C59.3124 192.58 57.6918 195.445 57.3028 198.592C56.9138 201.739 57.7883 204.912 59.7344 207.415L84.3195 238.963L121.096 249.532Z" fill="#E4E4E4"/>
</g>
<defs>
<clipPath id="clip0_400_5298">
<rect width="745" height="421" fill="white" transform="matrix(-1 0 0 1 745 0)"/>
</clipPath>
</defs>
</svg>
