<svg width="202" height="99" viewBox="0 0 202 99" fill="none" xmlns="http://www.w3.org/2000/svg">
<path fill-rule="evenodd" clip-rule="evenodd" d="M31.7532 28.8971C39.57 27.3311 41.8362 39.5175 34.2372 41.1306C25.973 42.8791 23.5832 30.5337 31.7532 28.8971ZM88.6957 71.5319C88.372 72.3561 88.1836 77.2306 88.7958 77.6663C89.3432 78.0607 94.9939 78.1196 95.3117 77.4661C95.3294 77.4249 95.3883 77.3543 95.4059 77.3013L95.606 76.271C95.6355 75.4939 95.6649 71.8792 95.3529 71.5731C94.264 71.0962 90.0436 71.1315 88.6957 71.5319ZM50.0767 14.7385C50.0767 20.1782 48.9054 20.0664 55.6509 19.7661L57.0754 19.6425C57.3167 17.4525 57.2166 16.9639 57.2108 14.7385C57.2049 12.7604 56.9106 13.2549 51.5306 13.2549C50.0767 13.2549 50.0767 13.302 50.0767 14.7385ZM84.8638 14.7385C84.8638 20.1782 83.6925 20.0664 90.438 19.7661L91.8625 19.6425C92.1038 17.4525 92.0037 16.9639 91.9978 14.7385C91.992 12.7604 91.6977 13.2549 86.3177 13.2549C84.8638 13.2549 84.8638 13.302 84.8638 14.7385ZM181.667 14.7385C181.667 20.1782 180.496 20.0664 187.241 19.7661L188.666 19.6425C188.907 17.4525 188.807 16.9639 188.801 14.7385C188.795 12.7604 188.501 13.2549 183.121 13.2549C181.667 13.2549 181.667 13.302 181.667 14.7385ZM56.7634 47.2533C56.7693 47.2003 56.8458 47.1532 56.8635 47.1237L57.1578 24.105C57.1637 22.6096 57.2049 22.4507 55.6509 22.4507C50.8773 22.4507 50.1238 21.9444 50.1238 23.893V45.8639C50.1238 47.0884 50.2828 47.4652 51.5365 47.4652C53.526 47.4711 54.874 47.6006 56.7693 47.2474L56.7634 47.2533ZM188.542 46.9883C189.137 45.7874 188.319 47.9479 188.678 46.6822L188.731 27.5548C188.731 22.7686 189.237 22.4507 187.236 22.4507C182.462 22.4507 181.703 21.9444 181.703 23.893V45.8639C181.703 47.0884 181.862 47.4652 183.115 47.4652C185.105 47.4711 186.453 47.6006 188.348 47.2474L188.542 46.9824V46.9883ZM91.7389 46.9883C92.3334 45.7874 91.5152 47.9479 91.8742 46.6822C91.9449 46.4291 91.939 46.1465 91.9449 45.8815C91.9566 45.3635 91.9272 44.7924 91.9272 44.2626V27.5548C91.9272 22.7686 92.4334 22.4507 90.4321 22.4507C85.6585 22.4507 84.9051 21.9444 84.9051 23.893V45.8639C84.9051 47.0884 85.064 47.4652 86.3177 47.4652C88.3014 47.4711 89.6552 47.6006 91.5505 47.2474L91.7447 46.9824L91.7389 46.9883ZM85.9999 77.8665C86.353 74.5755 86.1117 56.9671 86.1117 52.2868C86.1117 51.3507 85.8645 51.1152 84.7226 51.1152C79.9725 51.1152 79.1484 50.6855 79.1484 52.2868V76.636C79.1484 77.7605 79.2367 77.9665 80.6023 77.9665L85.9999 77.8665ZM78.6657 29.5035C79.3544 28.8206 81.4793 25.0351 81.4675 23.893C79.9489 22.6155 77.4473 21.7854 74.9163 22.1387C72.3205 22.5037 71.0785 23.9225 69.8365 25.3059C68.6946 23.8871 69.5069 22.4507 67.0759 22.4507C63.1381 22.4507 62.8909 22.0798 62.8909 23.893V45.8639C62.8909 47.2179 62.9792 47.4652 64.3448 47.4652C71.1727 47.4652 69.9189 48.5838 69.9189 41.2837C69.9189 36.9154 68.9889 31.2402 72.8561 29.1915C75.8345 27.6137 76.7881 29.4917 78.6657 29.4976V29.5035ZM144.214 30.0451C144.767 29.6036 147.416 26.3539 147.398 25.0057C143.543 22.227 138.057 20.7199 132.748 23.4162C123.006 28.3555 123.842 42.7731 133.101 46.9C137.68 48.9429 144.573 48.1069 147.434 44.9455C147.345 43.821 144.514 40.1651 144.214 40.1004C143.419 39.9237 140.482 42.8732 136.532 41.1777C129.916 38.3401 132.494 26.607 140.829 28.644C142.336 29.0149 143.095 29.8744 144.22 30.0392L144.214 30.0451ZM140.929 64.0846C142.554 61.9829 146.15 58.2269 146.15 56.3607C146.15 52.8343 146.451 52.8637 144.661 52.8637H127.485C126.073 52.8637 125.937 52.9108 125.937 54.3061C125.926 56.6433 125.749 56.9023 126.132 59.0923C128.215 59.6104 133.701 59.1276 136.385 59.2925C135.997 60.1579 129.086 68.8002 127.986 70.1366C126.626 71.7909 125.731 72.5268 125.731 74.2164C125.731 77.784 125.402 77.8782 127.256 77.8782C131.423 77.8841 143.237 78.1608 146.556 77.7252C146.715 75.5351 146.792 73.8455 146.515 71.6555C144.643 71.2081 137.686 71.4965 135.173 71.4965L140.929 64.0905V64.0846ZM98.0547 47.2062C98.8199 47.7595 100.774 47.4593 101.881 47.4652C103.429 47.477 104.553 47.9008 104.712 46.3466C105.13 42.2963 103.947 34.0013 105.33 31.4698C106.13 29.998 107.896 28.6322 110.127 28.4968C118.232 28.0023 114.147 41.8488 115.248 46.7234C115.501 47.8361 117.02 47.4711 118.35 47.4652C119.592 47.4593 121.017 47.5417 122.117 47.3416C122.565 45.0338 122.247 38.6286 122.247 35.7969C122.247 32.1174 122.141 28.9442 120.34 26.2597C117.667 22.2858 112.617 20.973 108.032 22.9511C105.595 23.999 105.63 24.4523 104.329 25.147C104.123 24.2521 103.676 23.2219 103.199 22.5861C101.834 22.3035 99.0082 22.1092 97.9546 22.7097C97.2659 23.375 97.7015 40.9305 97.678 44.4922C97.6721 45.2752 97.5661 46.0523 97.778 46.7293C97.9487 47.2945 97.7427 46.8824 98.0547 47.212V47.2062ZM104.353 52.8166C103.658 52.4045 98.5256 52.2397 97.8487 52.7106C97.2012 53.164 97.5073 57.9267 97.5073 58.9922C97.5073 65.6035 96.124 76.0061 105.518 77.7487C110.162 78.6141 112.711 76.5595 115.307 74.8405C115.489 75.2349 115.713 75.7647 115.919 76.2534C116.313 77.1835 116.102 76.9716 116.684 77.3719C117.514 77.6663 120.993 77.7193 121.705 77.3072C122.294 76.8244 122.094 75.4174 122.088 74.552C122.07 71.0609 122.476 53.3406 121.811 52.7283C120.922 52.328 116.078 52.275 115.336 52.8107C114.636 53.8586 115.054 62.6835 115.06 64.7087C115.066 66.7338 114.954 68.082 113.847 69.3948C111.534 72.1324 107.408 72.2442 105.501 69.5126C103.446 66.5631 105.377 55.3481 104.353 52.8048V52.8166ZM61.3899 58.7803C65.0864 58.0091 67.9942 60.5641 68.624 63.5253C69.4422 67.3991 66.9347 70.4251 63.9151 71.0786C55.7275 72.8447 52.8962 60.5464 61.3899 58.7803ZM49.4528 67.4933C50.7125 73.8279 56.8635 79.1381 64.851 77.731C71.3081 76.5948 77.1 70.5723 75.5637 62.5245C74.3394 56.0899 68.0942 50.6619 60.0891 52.1337C53.6084 53.3229 47.8577 59.4573 49.4528 67.4933ZM158.741 47.3416C159.194 45.0397 158.876 38.1929 158.87 35.3318C158.859 31.7642 160.065 28.7146 164.127 28.4909C172.391 28.0376 168.388 41.3367 169.524 47.3239C170.784 47.5888 175.081 47.6065 176.287 47.2945C176.729 44.9161 176.417 38.8758 176.417 36.0206C176.417 32.1939 176.47 29.2974 174.639 26.4127C173.297 24.2934 171.043 22.4742 167.535 22.1151C163.456 21.6971 161.372 23.3808 158.87 24.8821C158.87 14.4912 159.995 15.1506 155.421 15.1565C152.031 15.1565 151.883 14.8621 151.895 17.2464L151.907 39.4587C151.907 40.4124 151.53 46.5527 152.284 47.212C153.078 47.789 157.622 47.5417 158.741 47.3475V47.3416ZM32.2594 58.3093C40.3058 57.1083 41.9598 69.4831 34.0194 70.6782C25.7552 71.9204 24.3543 59.4926 32.2594 58.3093ZM39.6053 53.894C38.5693 53.3111 38.0573 52.7519 36.7976 52.2279C30.1522 49.4845 20.4106 54.5062 20.0045 63.8845C19.5865 73.5453 29.9226 81.0396 38.7518 75.6882C38.9461 77.2954 38.6988 82.6174 38.8519 83.3297C39.0285 84.1422 38.7577 83.5417 39.1638 84.0009C39.7937 84.4718 44.8028 84.4659 45.4797 84.0303C45.8976 83.6594 45.8505 82.9706 45.8446 82.2112C45.8152 77.2542 46.186 52.7754 45.5562 52.169C44.4614 51.5862 41.8656 51.8276 40.4588 52.0218C40.0939 52.534 39.8054 53.1051 39.6053 53.8998V53.894ZM26.5852 45.7226C29.8814 48.6132 35.4968 48.5896 39.6701 46.1288C50.4476 39.7825 46.5686 22.7568 33.6897 22.0621C30.2169 21.8737 29.54 22.7156 27.1444 23.7871C27.0796 21.9208 27.5387 16.5812 26.8677 15.3684C26.0201 14.8975 21.2111 14.8975 20.3635 15.3684C19.7396 15.9925 20.1045 35.8263 20.1045 39.4528C20.1045 40.4065 19.7278 46.5468 20.4812 47.2062C21.3053 47.8008 24.4838 47.6241 25.5021 47.3298C26.3262 46.6292 25.9554 46.3584 26.5969 45.7285L26.5852 45.7226Z" fill="white"/>
</svg>
