<svg width="118" height="40" viewBox="0 0 118 40" fill="none" xmlns="http://www.w3.org/2000/svg">
<path d="M4.7935 0H113.207C115.851 0 118 2.152 118 4.8V35.2C118 37.848 115.851 40 113.207 40H4.7935C2.14909 40 0 37.848 0 35.2V4.8C0 2.152 2.14909 0 4.7935 0Z" fill="white"/>
<path d="M25.8289 19.0877C25.8049 16.2237 28.1697 14.8317 28.2736 14.7677C26.9314 12.8157 24.8542 12.5437 24.1272 12.5197C22.3855 12.3357 20.6918 13.5677 19.805 13.5677C18.9023 13.5677 17.5281 12.5437 16.0581 12.5677C14.1647 12.5997 12.3831 13.6957 11.4164 15.4077C9.41113 18.8877 10.9051 24.0077 12.8305 26.8237C13.7972 28.1997 14.9157 29.7437 16.3937 29.6877C17.8317 29.6317 18.375 28.7677 20.1086 28.7677C21.8343 28.7677 22.3376 29.6877 23.8396 29.6557C25.3895 29.6317 26.3562 28.2717 27.2909 26.8797C28.4014 25.3037 28.8488 23.7437 28.8647 23.6637C28.8248 23.6477 25.8608 22.5117 25.8289 19.0877Z" fill="black"/>
<path d="M22.9927 10.6718C23.7676 9.7038 24.2949 8.38379 24.1511 7.03979C23.0326 7.08779 21.6265 7.8158 20.8196 8.7678C20.1086 9.6078 19.4695 10.9758 19.6292 12.2638C20.8915 12.3598 22.1858 11.6238 22.9927 10.6718Z" fill="black"/>
<path d="M46.6967 29.4879H44.6834L43.5809 26.0159H39.7461L38.6995 29.4879H36.7422L40.537 17.6719H42.8859L46.6967 29.4879ZM43.2534 24.5599L42.2547 21.4799C42.1509 21.1599 41.9511 20.4239 41.6635 19.2559H41.6236C41.5037 19.7599 41.32 20.5039 41.0643 21.4799L40.0817 24.5599H43.2534Z" fill="black"/>
<path d="M56.4513 25.128C56.4513 26.576 56.0598 27.72 55.2689 28.56C54.5658 29.312 53.687 29.68 52.6484 29.68C51.522 29.68 50.7151 29.28 50.2197 28.472V32.944H48.3263V23.768C48.3263 22.856 48.3023 21.928 48.2544 20.968H49.9161L50.02 22.32H50.052C50.6831 21.304 51.6418 20.792 52.9201 20.792C53.9267 20.792 54.7576 21.192 55.4287 21.984C56.1157 22.784 56.4513 23.824 56.4513 25.128ZM54.5259 25.192C54.5259 24.36 54.3421 23.68 53.9666 23.144C53.5592 22.584 53.0079 22.304 52.3209 22.304C51.8575 22.304 51.4341 22.464 51.0506 22.768C50.6751 23.08 50.4195 23.48 50.3076 23.984C50.2517 24.216 50.2197 24.408 50.2197 24.56V25.984C50.2197 26.6 50.4115 27.128 50.787 27.552C51.1625 27.976 51.6578 28.192 52.265 28.192C52.976 28.192 53.5272 27.912 53.9267 27.368C54.3262 26.816 54.5259 26.096 54.5259 25.192Z" fill="black"/>
<path d="M66.2301 25.128C66.2301 26.576 65.8386 27.72 65.0477 28.56C64.3446 29.312 63.4658 29.68 62.4272 29.68C61.3008 29.68 60.4939 29.28 59.9985 28.472V32.944H58.1051V23.768C58.1051 22.856 58.0811 21.928 58.0332 20.968H59.695L59.7988 22.32H59.8308C60.4619 21.304 61.4206 20.792 62.6989 20.792C63.7055 20.792 64.5364 21.192 65.2075 21.984C65.8945 22.784 66.2301 23.824 66.2301 25.128ZM64.3047 25.192C64.3047 24.36 64.1209 23.68 63.7455 23.144C63.338 22.584 62.7868 22.304 62.0997 22.304C61.6363 22.304 61.2129 22.464 60.8294 22.768C60.4539 23.08 60.2063 23.48 60.0864 23.984C60.0305 24.216 59.9985 24.408 59.9985 24.56V25.984C59.9985 26.6 60.1903 27.128 60.5658 27.552C60.9413 27.976 61.4366 28.192 62.0438 28.192C62.7548 28.192 63.314 27.912 63.7055 27.368C64.113 26.816 64.3047 26.096 64.3047 25.192Z" fill="black"/>
<path d="M77.1753 26.1759C77.1753 27.1839 76.8238 27.9999 76.1287 28.6319C75.3618 29.3199 74.2912 29.6639 72.9171 29.6639C71.6468 29.6639 70.6322 29.4159 69.8652 28.9279L70.3046 27.3519C71.1355 27.8399 72.0463 28.0879 73.0369 28.0879C73.748 28.0879 74.3072 27.9279 74.6987 27.6079C75.0981 27.2879 75.2979 26.8559 75.2979 26.3199C75.2979 25.8399 75.1301 25.4399 74.8105 25.1119C74.483 24.7839 73.9397 24.4799 73.1807 24.1999C71.0956 23.4239 70.065 22.2959 70.065 20.8159C70.065 19.8479 70.4325 19.0559 71.1595 18.4319C71.8865 17.8159 72.8532 17.5039 74.0595 17.5039C75.1301 17.5039 76.0249 17.6879 76.7359 18.0639L76.2566 19.5999C75.5855 19.2399 74.8345 19.0559 73.9876 19.0559C73.3245 19.0559 72.7973 19.2239 72.4218 19.5439C72.1102 19.8399 71.9504 20.1919 71.9504 20.6159C71.9504 21.0799 72.1342 21.4719 72.4937 21.7679C72.8052 22.0479 73.3805 22.3519 74.2113 22.6799C75.226 23.0879 75.969 23.5679 76.4483 24.1199C76.9356 24.6719 77.1753 25.3599 77.1753 26.1759Z" fill="black"/>
<path d="M83.4387 22.3921H81.3535V26.5281C81.3535 27.5761 81.721 28.1041 82.456 28.1041C82.7916 28.1041 83.0712 28.0721 83.2949 28.0161L83.3508 29.4561C82.9753 29.5921 82.488 29.6641 81.8808 29.6641C81.1298 29.6641 80.5546 29.4321 80.1312 28.9761C79.7078 28.5201 79.5 27.7521 79.5 26.6801V22.3841H78.2617V20.9681H79.5V19.4081L81.3535 18.8481V20.9681H83.4387V22.3921Z" fill="black"/>
<path d="M92.8181 25.1598C92.8181 26.4718 92.4426 27.5438 91.6996 28.3838C90.9166 29.2478 89.878 29.6798 88.5838 29.6798C87.3375 29.6798 86.3388 29.2638 85.5958 28.4398C84.8529 27.6158 84.4854 26.5678 84.4854 25.3038C84.4854 23.9838 84.8688 22.9038 85.6278 22.0638C86.3948 21.2238 87.4254 20.7998 88.7196 20.7998C89.9659 20.7998 90.9726 21.2158 91.7315 22.0478C92.4585 22.8478 92.8181 23.8878 92.8181 25.1598ZM90.8607 25.1998C90.8607 24.4158 90.6929 23.7518 90.3574 23.1918C89.9579 22.5118 89.3907 22.1758 88.6557 22.1758C87.8967 22.1758 87.3135 22.5118 86.922 23.1918C86.5785 23.7518 86.4187 24.4318 86.4187 25.2398C86.4187 26.0238 86.5865 26.6958 86.922 27.2478C87.3295 27.9278 87.9047 28.2638 88.6397 28.2638C89.3587 28.2638 89.926 27.9198 90.3414 27.2318C90.6849 26.6558 90.8607 25.9838 90.8607 25.1998Z" fill="black"/>
<path d="M98.97 22.632C98.7863 22.6 98.5865 22.584 98.3708 22.584C97.7077 22.584 97.1884 22.832 96.8289 23.336C96.5173 23.776 96.3576 24.344 96.3576 25.016V29.488H94.4641V23.648C94.4641 22.664 94.4481 21.768 94.4082 20.968H96.054L96.1259 22.6H96.1818C96.3815 22.04 96.6931 21.584 97.1245 21.248C97.5479 20.944 98.0033 20.792 98.4907 20.792C98.6664 20.792 98.8262 20.808 98.962 20.824L98.97 22.632Z" fill="black"/>
<path d="M107.422 24.8241C107.422 25.1601 107.398 25.4481 107.35 25.6801H101.678C101.702 26.5201 101.974 27.1681 102.501 27.6081C102.98 28.0001 103.595 28.2001 104.354 28.2001C105.193 28.2001 105.96 28.0641 106.647 27.8001L106.943 29.1121C106.136 29.4641 105.185 29.6401 104.091 29.6401C102.772 29.6401 101.734 29.2481 100.983 28.4721C100.232 27.6961 99.8564 26.6481 99.8564 25.3441C99.8564 24.0641 100.208 22.9921 100.911 22.1361C101.646 21.2241 102.637 20.7681 103.883 20.7681C105.105 20.7681 106.04 21.2241 106.663 22.1361C107.167 22.8721 107.422 23.7601 107.422 24.8241ZM105.617 24.3361C105.633 23.7761 105.505 23.2881 105.249 22.8801C104.922 22.3521 104.418 22.0881 103.747 22.0881C103.132 22.0881 102.629 22.3441 102.245 22.8561C101.934 23.2641 101.742 23.7601 101.686 24.3281L105.617 24.3361Z" fill="black"/>
<path d="M42.3427 13.4479H41.352L40.8088 11.7439H38.9233L38.404 13.4479H37.4453L39.3068 7.63989H40.4572L42.3427 13.4479ZM40.641 11.0239L40.1536 9.50389C40.1057 9.35189 40.0098 8.98389 39.858 8.40789H39.8421C39.7781 8.65589 39.6983 9.01589 39.5624 9.50389L39.0831 11.0239H40.641Z" fill="black"/>
<path d="M47.0083 9.25586L45.4264 13.4479H44.5237L42.9897 9.25586H43.9884L44.6994 11.4719C44.8193 11.8399 44.9231 12.1919 45.003 12.5279H45.027C45.0989 12.2239 45.2027 11.8719 45.3306 11.4719L46.0336 9.25586H47.0083Z" fill="black"/>
<path d="M50.3797 13.4481L50.3078 12.9681H50.2838C49.9962 13.3521 49.5888 13.5441 49.0615 13.5441C48.3105 13.5441 47.7832 13.0161 47.7832 12.3121C47.7832 11.2801 48.678 10.7441 50.2279 10.7441V10.6641C50.2279 10.1121 49.9323 9.84008 49.3571 9.84008C48.9416 9.84008 48.5821 9.94408 48.2626 10.1521L48.0708 9.54408C48.4543 9.30408 48.9416 9.18408 49.5089 9.18408C50.6034 9.18408 51.1546 9.76008 51.1546 10.9201V12.4641C51.1546 12.8881 51.1706 13.2161 51.2185 13.4641L50.3797 13.4481ZM50.2519 11.3601C49.2213 11.3601 48.702 11.6081 48.702 12.2081C48.702 12.6481 48.9656 12.8641 49.3411 12.8641C49.8125 12.8641 50.2519 12.5041 50.2519 12.0081V11.3601Z" fill="black"/>
<path d="M53.2241 8.56805C52.9125 8.56805 52.6729 8.32805 52.6729 8.00805C52.6729 7.68805 52.9205 7.45605 53.2401 7.45605C53.5596 7.45605 53.8153 7.68805 53.8073 8.00805C53.8073 8.34405 53.5676 8.56805 53.2241 8.56805ZM52.7767 9.25605H53.7035V13.4401H52.7767V9.25605Z" fill="black"/>
<path d="M55.3569 7.33594H56.2837V13.4399H55.3569V7.33594Z" fill="black"/>
<path d="M60.2303 13.4478L60.1584 12.9678H60.1344C59.8468 13.3518 59.4393 13.5438 58.9121 13.5438C58.1611 13.5438 57.6338 13.0158 57.6338 12.3118C57.6338 11.2798 58.5286 10.7438 60.0785 10.7438V10.6638C60.0785 10.1118 59.7829 9.83978 59.2077 9.83978C58.7922 9.83978 58.4327 9.94378 58.1131 10.1518L57.9214 9.53578C58.3049 9.29578 58.7922 9.17578 59.3594 9.17578C60.454 9.17578 61.0052 9.75178 61.0052 10.9118V12.4558C61.0052 12.8798 61.0212 13.2078 61.0611 13.4558H60.2303V13.4478ZM60.1024 11.3598C59.0718 11.3598 58.5525 11.6078 58.5525 12.2078C58.5525 12.6478 58.8162 12.8638 59.1917 12.8638C59.663 12.8638 60.1024 12.5038 60.1024 12.0078V11.3598Z" fill="black"/>
<path d="M64.7763 13.5439C64.1851 13.5439 63.7457 13.2959 63.458 12.7999H63.4421L63.3861 13.4479H62.5952C62.6192 13.1119 62.6272 12.7359 62.6272 12.3199V7.33594H63.5619V9.87194H63.5779C63.8575 9.40794 64.2969 9.17594 64.9121 9.17594C65.9187 9.17594 66.6218 10.0399 66.6218 11.2959C66.6218 12.5919 65.8388 13.5439 64.7763 13.5439ZM64.5845 9.90394C64.0492 9.90394 63.5619 10.3679 63.5619 11.0159V11.7519C63.5619 12.3279 64.0013 12.7999 64.5685 12.7999C65.2636 12.7999 65.679 12.2319 65.679 11.3279C65.679 10.4799 65.2476 9.90394 64.5845 9.90394Z" fill="black"/>
<path d="M67.9961 7.33594H68.9228V13.4399H67.9961V7.33594Z" fill="black"/>
<path d="M73.9799 11.5762H71.1917C71.2076 12.3682 71.7349 12.8162 72.5099 12.8162C72.9253 12.8162 73.3008 12.7442 73.6363 12.6162L73.7802 13.2642C73.3887 13.4402 72.9253 13.5202 72.382 13.5202C71.0718 13.5202 70.2969 12.6962 70.2969 11.4082C70.2969 10.1282 71.0878 9.16016 72.2782 9.16016C73.3407 9.16016 74.0198 9.95216 74.0198 11.1522C74.0198 11.3202 74.0118 11.4642 73.9799 11.5762ZM73.133 10.9122C73.133 10.2642 72.8055 9.80816 72.2143 9.80816C71.679 9.80816 71.2636 10.2722 71.1997 10.9122H73.133Z" fill="black"/>
<path d="M79.6119 13.5438C78.3896 13.5438 77.5986 12.6318 77.5986 11.3918C77.5986 10.0958 78.4055 9.17578 79.6838 9.17578C80.8902 9.17578 81.6971 10.0478 81.6971 11.3198C81.6971 12.6238 80.8662 13.5438 79.6119 13.5438ZM79.6518 9.85578C78.9808 9.85578 78.5493 10.4878 78.5493 11.3598C78.5493 12.2238 78.9888 12.8478 79.6439 12.8478C80.299 12.8478 80.7384 12.1758 80.7384 11.3358C80.7304 10.4878 80.307 9.85578 79.6518 9.85578Z" fill="black"/>
<path d="M86.6908 13.448H85.764V11.04C85.764 10.296 85.4764 9.92797 84.9172 9.92797C84.3659 9.92797 83.9904 10.4 83.9904 10.952V13.44H83.0637V10.456C83.0637 10.088 83.0557 9.68797 83.0317 9.25597H83.8466L83.8866 9.90397H83.9105C84.1582 9.45597 84.6695 9.16797 85.2368 9.16797C86.1156 9.16797 86.6908 9.83997 86.6908 10.936V13.448Z" fill="black"/>
<path d="M92.7704 9.96006H91.7477V11.9921C91.7477 12.5121 91.9315 12.7681 92.291 12.7681C92.4508 12.7681 92.5946 12.7521 92.7064 12.7281L92.7304 13.4321C92.5467 13.5041 92.307 13.5361 92.0114 13.5361C91.2764 13.5361 90.845 13.1281 90.845 12.0721V9.96006H90.2378V9.26406H90.845V8.49606L91.7557 8.21606V9.25606H92.7783V9.96006" fill="black"/>
<path d="M97.6915 13.4479H96.7648V11.0559C96.7648 10.3039 96.4772 9.92794 95.9179 9.92794C95.4386 9.92794 94.9912 10.2559 94.9912 10.9199V13.4399H94.0645V7.33594H94.9912V9.84794H95.0072C95.3028 9.39194 95.7182 9.16794 96.2615 9.16794C97.1483 9.16794 97.6915 9.85594 97.6915 10.9519V13.4479Z" fill="black"/>
<path d="M102.437 11.5762H99.6492C99.6652 12.3682 100.192 12.8162 100.967 12.8162C101.383 12.8162 101.758 12.7442 102.094 12.6162L102.238 13.2642C101.846 13.4402 101.383 13.5202 100.84 13.5202C99.5293 13.5202 98.7544 12.6962 98.7544 11.4082C98.7544 10.1282 99.5453 9.16016 100.736 9.16016C101.798 9.16016 102.477 9.95216 102.477 11.1522C102.477 11.3202 102.469 11.4642 102.437 11.5762ZM101.591 10.9122C101.591 10.2642 101.263 9.80816 100.672 9.80816C100.137 9.80816 99.7131 10.2722 99.6572 10.9122H101.591Z" fill="black"/>
</svg>
