<svg width="86" height="86" viewBox="0 0 86 86" fill="none" xmlns="http://www.w3.org/2000/svg">
<circle cx="43" cy="43" r="42.5" fill="white" stroke="#E0E0E0"/>
<path d="M68.425 25C69.325 25 70 25.6727 70 26.5697V60.4303C70 61.3273 69.2688 62 68.425 62H17.575C16.675 62 16 61.3273 16 60.4303V26.5697C16 25.6727 16.675 25 17.575 25H68.425ZM17.575 26.1212C17.35 26.1212 17.125 26.3455 17.125 26.5697V32.7363H68.875V26.5697C68.875 26.3455 68.65 26.1212 68.425 26.1212H17.575ZM68.425 60.8788C68.65 60.8788 68.875 60.6545 68.875 60.4303V33.8576H17.125V60.4303C17.125 60.6545 17.35 60.8788 17.575 60.8788H68.425ZM20.725 31.7833C19.4313 31.7833 18.3625 30.7182 18.3625 29.4288C18.3625 28.1394 19.4313 27.0742 20.725 27.0742C22.0188 27.0742 23.0875 28.1394 23.0875 29.4288C23.0875 30.7182 22.0188 31.7833 20.725 31.7833ZM20.725 28.1394C20.05 28.1394 19.4875 28.7 19.4875 29.3727C19.4875 30.0454 20.05 30.6061 20.725 30.6061C21.4 30.6061 21.9625 30.0454 21.9625 29.3727C21.9625 28.7 21.4 28.1394 20.725 28.1394ZM26.4062 31.7833C25.1125 31.7833 24.0438 30.7182 24.0438 29.4288C24.0438 28.1394 25.1125 27.0742 26.4062 27.0742C27.7 27.0742 28.7688 28.1394 28.7688 29.4288C28.7688 30.7182 27.7 31.7833 26.4062 31.7833ZM26.4062 28.1394C25.7312 28.1394 25.1687 28.7 25.1687 29.3727C25.1687 30.0454 25.7312 30.6061 26.4062 30.6061C27.0812 30.6061 27.6437 30.0454 27.6437 29.3727C27.6437 28.7 27.0812 28.1394 26.4062 28.1394ZM32.1438 31.7833C30.7938 31.7833 29.7812 30.7182 29.7812 29.4288C29.7812 28.1394 30.85 27.0742 32.1438 27.0742C33.4375 27.0742 34.5062 28.1394 34.5062 29.4288C34.5062 30.7182 33.4375 31.7833 32.1438 31.7833ZM32.1438 28.1394C31.4125 28.1394 30.9063 28.7 30.9063 29.3727C30.9063 30.0454 31.4688 30.6061 32.1438 30.6061C32.8188 30.6061 33.3813 30.0454 33.3813 29.3727C33.3813 28.7 32.8188 28.1394 32.1438 28.1394ZM36.4188 31.5591C36.0813 31.5591 35.8563 31.2788 35.8563 30.9424V27.803C35.8563 27.4667 36.0813 27.2424 36.4188 27.2424H66.9063C67.2438 27.2424 67.4688 27.4667 67.4688 27.803V30.9985C67.4688 31.3349 67.2438 31.5591 66.9063 31.5591H36.4188ZM36.9812 28.3636V30.3818H66.3437V28.3636H36.9812ZM34.3937 45.2379C34.7312 45.2379 34.9563 45.4621 35.0688 45.7424L35.6312 56.506C35.6312 57.1788 35.4062 57.8515 34.9562 58.3C34.5062 58.7485 34 58.9727 33.3813 58.9727H23.3125C22.6938 58.9727 22.1312 58.7485 21.7375 58.3C21.2875 57.8515 21.0062 57.1788 21.0625 56.506L21.5688 45.7424C21.5688 45.4621 21.85 45.2379 22.1312 45.2379H23.8187V44.2288C23.8187 41.5379 25.8438 39.2954 28.2625 39.2954C30.6813 39.2954 32.7062 41.4818 32.7062 44.2288V45.2379H34.3937ZM25 44.2288V45.2379H31.6375V44.2288C31.6375 42.0985 30.1188 40.4167 28.3188 40.4167C26.4625 40.4167 25 42.0985 25 44.2288ZM34.1125 57.5712C34.3375 57.2909 34.45 56.9545 34.3937 56.5621L33.8313 46.3591H32.7062V47.4242H32.9875C33.325 47.4242 33.55 47.6485 33.55 47.9848C33.55 48.3212 33.325 48.5454 32.9875 48.5454H31.3C30.9625 48.5454 30.7375 48.3212 30.7375 47.9848C30.7375 47.6485 30.9625 47.4242 31.3 47.4242H31.5812V46.3591H25V47.4242H25.3375C25.675 47.4242 25.9 47.6485 25.9 47.9848C25.9 48.3212 25.675 48.5454 25.3375 48.5454H23.65C23.3125 48.5454 23.0875 48.3212 23.0875 47.9848C23.0875 47.6485 23.3125 47.4242 23.65 47.4242H23.875V46.3591H22.75L22.1875 56.5621C22.1875 56.9545 22.3 57.2909 22.5812 57.5712C22.75 57.7955 23.0313 57.9076 23.3125 57.9076H33.3813C33.6625 57.9076 33.8875 57.7955 34.1125 57.5712ZM32.2 51.5727C32.4813 51.5727 32.7625 51.797 32.7062 52.1333C32.7062 52.4697 32.4813 52.6939 32.1438 52.6939H24.4375C24.1 52.6939 23.875 52.4697 23.875 52.1333C23.875 51.797 24.1 51.5727 24.4375 51.5727H32.2ZM32.2 54.7121C32.4813 54.7121 32.7625 54.9364 32.7062 55.2727C32.7062 55.6091 32.4813 55.8333 32.1438 55.8333H24.4375C24.1 55.8333 23.875 55.6091 23.875 55.2727C23.875 54.9364 24.1 54.7121 24.4375 54.7121H32.2ZM62.6313 34.9227C62.9125 34.9227 63.1937 35.203 63.1937 35.4833C63.1937 35.8197 62.9688 36.0439 62.6313 36.0439H61.5625L58.5813 47.5924C58.525 47.8167 58.3 47.9848 58.0187 47.9848H46.825C46.5437 47.9848 46.3187 47.8167 46.2625 47.5924L44.6312 41.5939C44.575 41.2576 44.8 40.8652 45.1937 40.8652H59.1438L60.6062 35.3151C60.6625 35.0909 60.8875 34.9227 61.1687 34.9227H62.6313ZM57.5688 46.9197L58.8625 42.0424H45.925L47.275 46.9197H57.5688ZM51.4375 50.4515C51.4375 51.4606 50.65 52.3015 49.5812 52.3015C48.5687 52.3015 47.725 51.4606 47.725 50.4515C47.725 49.4424 48.5687 48.6015 49.5812 48.6015C50.5937 48.6015 51.4375 49.4424 51.4375 50.4515ZM48.9062 50.4515C48.9062 50.8439 49.2437 51.1803 49.6375 51.1803C50.0312 51.1803 50.3687 50.8439 50.3687 50.4515C50.3687 50.0591 50.0312 49.7227 49.6375 49.7227C49.2437 49.7227 48.9062 50.0591 48.9062 50.4515ZM58.1312 50.4515C58.1312 51.4606 57.2875 52.3015 56.275 52.3015C55.2625 52.3015 54.4187 51.4606 54.4187 50.4515C54.4187 49.4424 55.2625 48.6015 56.275 48.6015C57.2875 48.6015 58.1312 49.4424 58.1312 50.4515ZM55.6 50.4515C55.6 50.8439 55.8812 51.1803 56.3312 51.1803C56.725 51.1803 57.0625 50.8439 57.0625 50.4515C57.0625 50.0591 56.725 49.7227 56.3312 49.7227C55.9375 49.7227 55.6 50.0591 55.6 50.4515ZM66.6192 54.0394C66.8471 54.0394 67.075 54.2636 67.075 54.6C67.075 54.9364 66.8927 55.1606 66.6192 55.1606H41.0933C40.8198 55.1606 40.6375 54.9364 40.6375 54.6C40.6375 54.2636 40.8198 54.0394 41.0933 54.0394H66.6192ZM66.6192 57.5712C66.8471 57.5712 67.075 57.7955 67.075 58.1318C67.075 58.4682 66.8927 58.6924 66.6192 58.6924H41.0933C40.8198 58.6924 40.6375 58.4682 40.6375 58.1318C40.6375 57.7955 40.8198 57.5712 41.0933 57.5712H66.6192Z" fill="#FF6633"/>
</svg>
