<svg width="86" height="86" viewBox="0 0 86 86" fill="none" xmlns="http://www.w3.org/2000/svg">
<circle cx="43" cy="43" r="42.5" fill="white" stroke="#E0E0E0"/>
<path d="M53.891 58.9265V59.7864H68.054V61.1401H53.891V62H52.5571V61.1401H48.5554V62H47.2215V61.1401H43.2197V62H41.8858V61.1401H37.8841V62H36.5501V61.1401H32.5484V62H31.2145V61.1401H27.2127V62H25.8788V61.1401H21.8771V62H20.5432V61.1401H17.2083V57.0792H16V55.7256H17.2083V53.0184H16V51.6648H17.2083V48.9575H16V47.604H17.2083V44.8967H16V43.5431H17.2083V40.8358H16V39.4822H17.2083V36.775H16V35.4214H17.2083V32.7142H16V31.3605H17.2083V28.6533H16V27.2997H17.2083V24.8295H18.5423V59.7864H20.5432V58.9265H21.8771V59.7864H25.8788V58.9265H27.2127V59.7864H31.2145V58.9265H32.5484V59.7864H36.5501V58.9265H37.8841V59.7864H41.8858V58.9265H43.2197V59.7864H47.2215V58.9265H48.5554V59.7864H52.5571V58.9265H53.891ZM54.5585 48.8268V51.529H60.7567V52.88H54.5585V55.5823H50.5586V52.8119C49.0392 52.4977 47.8919 51.1331 47.8919 49.5023V45.4491C47.8919 44.5695 47.3325 43.8263 46.5585 43.5466V46.1245H42.5586V43.5466C41.7846 43.8263 41.2252 44.5695 41.2252 45.4491V49.5023C41.2252 51.1338 40.0779 52.4977 38.5586 52.8119V55.5823H34.5586V52.8119C33.0392 52.4977 31.8919 51.1331 31.8919 49.5023V35.9913C31.8919 35.1118 31.3326 34.3687 30.5586 34.089V36.6669H26.5585V34.089C25.7845 34.3687 25.2252 35.1118 25.2252 35.9913V49.5023C25.2252 51.3648 23.7299 52.88 21.8919 52.88H19.8919V51.529H21.8919C22.9946 51.529 23.8919 50.6197 23.8919 49.5023V35.9913C23.8919 34.3599 25.0392 32.9959 26.5585 32.6818V29.9114H30.5586V32.6818C32.0779 32.9959 33.2252 34.3606 33.2252 35.9913V49.5023C33.2252 50.3819 33.7846 51.125 34.5586 51.4047V48.8268H38.5586V51.4047C39.3326 51.125 39.8919 50.3819 39.8919 49.5023V45.4491C39.8919 43.8176 41.0392 42.4537 42.5586 42.1395V39.369H46.5585V42.1395C48.0779 42.4537 49.2252 43.8183 49.2252 45.4491V49.5023C49.2252 50.3819 49.7846 51.125 50.5586 51.4047V48.8268H54.5585ZM29.2252 35.3158V31.2625H27.8919V35.3158H29.2252ZM37.2252 54.2312V50.1779H35.8919V54.2312H37.2252ZM45.2252 44.7735V40.7202H43.8919V44.7735H45.2252ZM53.2252 54.2312V50.1779H51.8919V54.2312H53.2252ZM61.2432 40.7721C56.4149 40.7721 52.4865 36.7857 52.4865 31.8861C52.4865 26.9864 56.4149 23 61.2432 23C66.0716 23 70 26.9864 70 31.8861C70 36.7857 66.0716 40.7721 61.2432 40.7721ZM61.2432 24.3671C57.1579 24.3671 53.8337 27.7404 53.8337 31.8861C53.8337 36.0318 57.1579 39.4051 61.2432 39.4051C65.3286 39.4051 68.6528 36.0318 68.6528 31.8861C68.6528 27.7404 65.3286 24.3671 61.2432 24.3671ZM61.5343 26.8289C60.4871 26.8289 59.493 27.1758 58.6604 27.8323L57.8378 26.7582C58.9084 25.9146 60.1861 25.4684 61.5343 25.4684C64.8606 25.4684 67.5676 28.2153 67.5676 31.5908C67.5676 32.9588 67.1278 34.2553 66.2966 35.3417L65.238 34.5071C65.885 33.6622 66.2268 32.6533 66.2268 31.5908C66.2268 28.9649 64.1219 26.8289 61.5343 26.8289ZM60.9522 38.3038C57.6259 38.3038 54.9189 35.5569 54.9189 32.1814C54.9189 30.8133 55.3587 29.5168 56.1899 28.4304L57.2484 29.2651C56.6015 30.11 56.2597 31.1188 56.2597 32.1814C56.2597 34.8072 58.3646 36.9432 60.9522 36.9432C61.9993 36.9432 62.9935 36.5963 63.8261 35.9399L64.6487 37.014C63.5781 37.8575 62.3003 38.3038 60.9522 38.3038ZM62.4264 28.4304C62.7822 28.4304 63.1033 28.4905 63.3897 28.6109C63.676 28.7313 63.9073 28.892 64.0835 29.0932C64.2597 29.2944 64.3953 29.5196 64.4901 29.7689C64.585 30.0182 64.6325 30.2787 64.6325 30.5504C64.6325 30.8186 64.585 31.0765 64.4901 31.3241C64.3953 31.5717 64.2597 31.7953 64.0835 31.9947C63.9073 32.1942 63.6752 32.3541 63.3871 32.4744C63.0991 32.5948 62.7789 32.655 62.4264 32.655H60.8761V33.3204H61.8977V34.713H60.8761V35.7705H59.2647V34.713H58.3243V33.3204H59.2647V32.655H58.3243V31.2468H59.2647V28.4304H62.4264ZM62.218 31.2468C62.4552 31.2468 62.6399 31.1771 62.772 31.0378C62.9042 30.8986 62.9703 30.7326 62.9703 30.5401C62.9703 30.3509 62.9034 30.1859 62.7695 30.0449C62.6357 29.9039 62.4519 29.8334 62.218 29.8334H60.8761V31.2468H62.218Z" fill="#FF6633"/>
</svg>
