<svg width="86" height="86" viewBox="0 0 86 86" fill="none" xmlns="http://www.w3.org/2000/svg">
<circle cx="43" cy="43" r="42.5" fill="white" stroke="#E0E0E0"/>
<path d="M51.3521 40.8873V42.155H28.2535V40.8873H30.1784V38.3521H34.0282V40.8873H35.3114V35.8169H39.1612V40.8873H40.4444V33.9155H44.2942V40.8873H45.5775V32.0141H49.4273V40.8873H51.3521ZM46.8607 33.2817V40.8873H48.144V33.2817H46.8607ZM41.7277 35.1831V40.8873H43.011V35.1831H41.7277ZM36.5947 37.0845V40.8873H37.8779V37.0845H36.5947ZM31.4616 39.6197V40.8873H32.7449V39.6197H31.4616ZM40.0845 43.845H50.2253V44.9718H40.0845V43.845ZM40.0845 46.0986H50.2253V47.2253H40.0845V46.0986ZM40.0845 48.9155H50.2253V50.0422H40.0845V48.9155ZM32.7606 56.2394H42.338V57.3662H32.7606V56.2394ZM29.9437 56.2394H31.0704V57.3662H29.9437V56.2394ZM32.7606 59.6197H42.338V60.7465H32.7606V59.6197ZM29.9437 59.6197H31.0704V60.7465H29.9437V59.6197ZM29.9437 25.8169H39.5211V26.9437H29.9437V25.8169ZM41.2113 25.8169H42.338V26.9437H41.2113V25.8169ZM29.9437 29.1972H39.5211V30.324H29.9437V29.1972ZM41.2113 29.1972H42.338V30.324H41.2113V29.1972ZM62.7555 29.4516C64.5445 29.4516 66 30.9071 66 32.6962V32.9316C66 33.2555 65.9516 33.5768 65.8568 33.8858L58.1735 58.8568L54.3871 62.0116V63H26V23H47.5574L54.3871 29.8297V48.7587L59.6561 31.7368C60.0793 30.3697 61.3245 29.4516 62.7555 29.4516ZM56.2239 58.8013L53.3787 58.0903L54.0897 60.58L56.2239 58.8013ZM53.2697 56.7335L54.5968 57.0658L60.1529 39.1632L58.8484 38.7103L53.2697 56.7335ZM59.2297 37.4768L62.9994 38.7845L63.429 37.3871L59.6393 36.1529L59.2297 37.4768ZM47.9355 25.2026V29.4516H52.1845L47.9355 25.2026ZM27.2903 24.2903V61.7097H53.0709L51.7787 57.1858L51.8355 57.0026L53.0968 52.9278V30.7419H46.6452V24.2903H27.2903ZM57.1761 57.7097L62.62 40.0187L61.3729 39.5858L55.851 57.3787L57.1761 57.7097ZM64.7097 32.9316V32.6962C64.7097 31.6187 63.8329 30.7419 62.7555 30.7419C61.8935 30.7419 61.1432 31.2948 60.8877 32.1187L60.0206 34.92L63.8084 36.1536L64.6232 33.5064C64.6806 33.32 64.7097 33.1264 64.7097 32.9316ZM40.0845 51.7324H50.2253V52.8591H40.0845V51.7324ZM40.0845 53.9859H50.2253V55.1127H40.0845V53.9859ZM34.5698 44.7155C34.9818 44.7155 35.3537 44.7841 35.6853 44.9215C36.0169 45.0588 36.2847 45.2423 36.4888 45.4719C36.6929 45.7014 36.8499 45.9585 36.9597 46.243C37.0696 46.5276 37.1246 46.8248 37.1246 47.1348C37.1246 47.4409 37.0696 47.7353 36.9597 48.0178C36.8499 48.3004 36.6929 48.5554 36.4888 48.7831C36.2847 49.0107 36.0159 49.1932 35.6824 49.3305C35.3488 49.4679 34.9779 49.5365 34.5698 49.5365H32.7744V50.2959H33.9576V51.8853H32.7744V53.092H30.9083V51.8853H29.8193V50.2959H30.9083V49.5365H29.8193V47.9295H30.9083V44.7155H34.5698ZM34.3284 47.9295C34.6031 47.9295 34.817 47.85 34.9701 47.6911C35.1231 47.5322 35.1996 47.3428 35.1996 47.1231C35.1996 46.9072 35.1221 46.7188 34.9671 46.5579C34.8121 46.397 34.5992 46.3166 34.3284 46.3166H32.7744V47.9295H34.3284Z" fill="#FF6633"/>
</svg>
