<svg width="86" height="86" viewBox="0 0 86 86" fill="none" xmlns="http://www.w3.org/2000/svg">
<circle cx="43" cy="43" r="42.5" fill="white" stroke="#E0E0E0"/>
<path d="M20.3799 39.4494C20.9072 38.4008 21.8594 37.7051 22.9288 37.7051H27.7657C28.8648 37.7051 29.8077 38.4008 30.3251 39.4494C30.8524 38.4008 31.8046 37.7051 32.874 37.7051H37.711C38.81 37.7051 39.7529 38.4008 40.2703 39.4494C40.7976 38.4008 41.7499 37.7051 42.8192 37.7051H47.6562C48.7552 37.7051 49.6981 38.4008 50.2155 39.4494C50.7428 38.4008 51.6951 37.7051 52.7644 37.7051H57.6014C59.274 37.7051 60.5849 39.3166 60.5849 41.3309V50.3454C60.5849 50.6475 60.4041 50.8489 60.1329 50.8489H58.4603V56.4388C58.4603 57.295 57.8274 58 57.0589 58H53.2617C52.4932 58 51.9055 57.2949 51.9055 56.4892V50.8489H50.2329C50.2253 50.8489 50.2177 50.8488 50.2103 50.8485C50.2028 50.8488 50.1953 50.8489 50.1877 50.8489H48.5151V56.4388C48.5151 57.295 47.8822 58 47.1137 58H43.3164C42.5479 58 41.9603 57.2949 41.9603 56.4892V50.8489H40.2877C40.2801 50.8489 40.2725 50.8488 40.2651 50.8485C40.2576 50.8488 40.2501 50.8489 40.2425 50.8489H38.5699V56.4388C38.5699 57.295 37.937 58 37.1685 58H33.3712C32.6027 58 32.0151 57.2949 32.0151 56.4892V50.8489H30.3425C30.3349 50.8489 30.3273 50.8488 30.3199 50.8485C30.3124 50.8488 30.3049 50.8489 30.2973 50.8489H28.6247V56.4388C28.6247 57.295 27.9918 58 27.2233 58H23.426C22.6575 58 22.0699 57.2949 22.0699 56.4892V50.8489H20.3973C20.3896 50.8489 20.3821 50.8488 20.3747 50.8485C20.3672 50.8488 20.3597 50.8489 20.3521 50.8489H18.6795V56.4388C18.6795 57.295 18.0466 58 17.2781 58H13.4808C12.7123 58 12.1247 57.2949 12.1247 56.4892V50.8489H10.4521C10.1808 50.8489 10 50.6475 10 50.3454V41.3309C10 39.3166 11.3562 37.7051 12.9836 37.7051H17.8205C18.9196 37.7051 19.8625 38.4008 20.3799 39.4494ZM29.8452 49.8417V41.3309C29.8452 39.8705 28.8959 38.6619 27.7657 38.6619H22.9288C21.7986 38.6619 20.8493 39.8705 20.8493 41.3309V49.8417H22.0247V45.3597C22.0247 45.0575 22.2055 44.8561 22.4767 44.8561C22.7479 44.8561 22.9288 45.0575 22.9288 45.3597V56.4388C22.9288 56.741 23.1548 56.9928 23.426 56.9928H24.9178V50.6475C24.9178 50.3453 25.0986 50.1439 25.3699 50.1439C25.6411 50.1439 25.8219 50.3453 25.8219 50.6475V57.0432H27.2233C27.4945 57.0432 27.7205 56.7913 27.7205 56.4892V45.3597C27.7205 45.0575 27.9014 44.8561 28.1726 44.8561C28.4438 44.8561 28.6247 45.0575 28.6247 45.3597V49.8417H29.8452ZM25.3699 37.2518C23.5164 37.2518 22.0699 35.6403 22.0699 33.6259C22.0699 31.6115 23.5616 30 25.3699 30C27.1781 30 28.6699 31.6619 28.6699 33.6259C28.6699 35.6403 27.1781 37.2518 25.3699 37.2518ZM25.3699 31.0576C24.0137 31.0576 22.974 32.2158 22.974 33.6762C22.974 35.1366 24.0589 36.2949 25.3699 36.2949C26.6808 36.2949 27.7657 35.1366 27.7657 33.6762C27.7657 32.2158 26.6808 31.0576 25.3699 31.0576ZM39.7904 49.8417V41.3309C39.7904 39.8705 38.8411 38.6619 37.711 38.6619H32.874C31.7438 38.6619 30.7945 39.8705 30.7945 41.3309V49.8417H31.9699V45.3597C31.9699 45.0575 32.1507 44.8561 32.4219 44.8561C32.6932 44.8561 32.874 45.0575 32.874 45.3597V56.4388C32.874 56.741 33.1 56.9928 33.3712 56.9928H34.863V50.6475C34.863 50.3453 35.0438 50.1439 35.3151 50.1439C35.5863 50.1439 35.7671 50.3453 35.7671 50.6475V57.0432H37.1685C37.4397 57.0432 37.6658 56.7913 37.6658 56.4892V45.3597C37.6658 45.0575 37.8466 44.8561 38.1178 44.8561C38.389 44.8561 38.5699 45.0575 38.5699 45.3597V49.8417H39.7904ZM35.3151 37.2518C33.4616 37.2518 32.0151 35.6403 32.0151 33.6259C32.0151 31.6115 33.5068 30 35.3151 30C37.1233 30 38.6151 31.6619 38.6151 33.6259C38.6151 35.6403 37.1233 37.2518 35.3151 37.2518ZM35.3151 31.0576C33.9589 31.0576 32.9192 32.2158 32.9192 33.6762C32.9192 35.1366 34.0041 36.2949 35.3151 36.2949C36.626 36.2949 37.711 35.1366 37.711 33.6762C37.711 32.2158 36.626 31.0576 35.3151 31.0576ZM49.7356 49.8417V41.3309C49.7356 39.8705 48.7863 38.6619 47.6562 38.6619H42.8192C41.689 38.6619 40.7397 39.8705 40.7397 41.3309V49.8417H41.9151V45.3597C41.9151 45.0575 42.0959 44.8561 42.3671 44.8561C42.6384 44.8561 42.8192 45.0575 42.8192 45.3597V56.4388C42.8192 56.741 43.0452 56.9928 43.3164 56.9928H44.8082V50.6475C44.8082 50.3453 44.989 50.1439 45.2603 50.1439C45.5315 50.1439 45.7123 50.3453 45.7123 50.6475V57.0432H47.1137C47.3849 57.0432 47.6109 56.7913 47.6109 56.4892V45.3597C47.6109 45.0575 47.7918 44.8561 48.063 44.8561C48.3343 44.8561 48.5151 45.0575 48.5151 45.3597V49.8417H49.7356ZM45.2603 37.2518C43.4068 37.2518 41.9603 35.6403 41.9603 33.6259C41.9603 31.6115 43.4521 30 45.2603 30C47.0685 30 48.5603 31.6619 48.5603 33.6259C48.5603 35.6403 47.0685 37.2518 45.2603 37.2518ZM45.2603 31.0576C43.9041 31.0576 42.8644 32.2158 42.8644 33.6762C42.8644 35.1366 43.9493 36.2949 45.2603 36.2949C46.5712 36.2949 47.6562 35.1366 47.6562 33.6762C47.6562 32.2158 46.5712 31.0576 45.2603 31.0576ZM59.6808 49.8417V41.3309C59.6808 39.8705 58.7315 38.6619 57.6014 38.6619H52.7644C51.6343 38.6619 50.6849 39.8705 50.6849 41.3309V49.8417H51.8603V45.3597C51.8603 45.0575 52.0411 44.8561 52.3123 44.8561C52.5835 44.8561 52.7644 45.0575 52.7644 45.3597V56.4388C52.7644 56.741 52.9904 56.9928 53.2617 56.9928H54.7534V50.6475C54.7534 50.3453 54.9343 50.1439 55.2055 50.1439C55.4767 50.1439 55.6575 50.3453 55.6575 50.6475V57.0432H57.0589C57.3301 57.0432 57.5562 56.7913 57.5562 56.4892V45.3597C57.5562 45.0575 57.737 44.8561 58.0082 44.8561C58.2794 44.8561 58.4603 45.0575 58.4603 45.3597V49.8417H59.6808ZM55.2055 37.2518C53.3521 37.2518 51.9055 35.6403 51.9055 33.6259C51.9055 31.6115 53.3973 30 55.2055 30C57.0137 30 58.5055 31.6619 58.5055 33.6259C58.5055 35.6403 57.0137 37.2518 55.2055 37.2518ZM55.2055 31.0576C53.8493 31.0576 52.8096 32.2158 52.8096 33.6762C52.8096 35.1366 53.8945 36.2949 55.2055 36.2949C56.5164 36.2949 57.6014 35.1366 57.6014 33.6762C57.6014 32.2158 56.5164 31.0576 55.2055 31.0576ZM19.9 49.8417V41.3309C19.9 39.8705 18.9507 38.6619 17.8205 38.6619H12.9836C11.8534 38.6619 10.9041 39.8705 10.9041 41.3309V49.8417H12.0794V45.3597C12.0794 45.0575 12.2603 44.8561 12.5315 44.8561C12.8027 44.8561 12.9836 45.0575 12.9836 45.3597V56.4388C12.9836 56.741 13.2096 56.9928 13.4808 56.9928H14.9726V50.6475C14.9726 50.3453 15.1534 50.1439 15.4247 50.1439C15.6959 50.1439 15.8767 50.3453 15.8767 50.6475V57.0432H17.2781C17.5493 57.0432 17.7753 56.7913 17.7753 56.4892V45.3597C17.7753 45.0575 17.9562 44.8561 18.2274 44.8561C18.4986 44.8561 18.6795 45.0575 18.6795 45.3597V49.8417H19.9ZM15.4247 37.2518C13.5712 37.2518 12.1247 35.6403 12.1247 33.6259C12.1247 31.6115 13.6164 30 15.4247 30C17.2329 30 18.7247 31.6619 18.7247 33.6259C18.7247 35.6403 17.2329 37.2518 15.4247 37.2518ZM15.4247 31.0576C14.0685 31.0576 13.0288 32.2158 13.0288 33.6762C13.0288 35.1366 14.1137 36.2949 15.4247 36.2949C16.7356 36.2949 17.8205 35.1366 17.8205 33.6762C17.8205 32.2158 16.7356 31.0576 15.4247 31.0576ZM66.2808 48.1295C65.9063 48.1295 65.6027 47.7913 65.6027 47.3741C65.6027 46.9569 65.9063 46.6187 66.2808 46.6187C66.6553 46.6187 66.9589 46.9569 66.9589 47.3741C66.9589 47.7913 66.6553 48.1295 66.2808 48.1295ZM70.8014 48.1295C70.4269 48.1295 70.1233 47.7913 70.1233 47.3741C70.1233 46.9569 70.4269 46.6187 70.8014 46.6187C71.1759 46.6187 71.4795 46.9569 71.4795 47.3741C71.4795 47.7913 71.1759 48.1295 70.8014 48.1295ZM75.3219 48.1295C74.9474 48.1295 74.6438 47.7913 74.6438 47.3741C74.6438 46.9569 74.9474 46.6187 75.3219 46.6187C75.6964 46.6187 76 46.9569 76 47.3741C76 47.7913 75.6964 48.1295 75.3219 48.1295Z" fill="#FF6633"/>
</svg>
