<svg width="16" height="16" viewBox="0 0 16 16" fill="none" xmlns="http://www.w3.org/2000/svg">
<path fill-rule="evenodd" clip-rule="evenodd" d="M10.8572 1.33333H13.035C13.936 1.33333 14.6669 2.0706 14.6669 2.98012V5.17607C14.6669 6.0849 13.936 6.82286 13.035 6.82286H10.8572C9.95553 6.82286 9.22461 6.0849 9.22461 5.17607V2.98012C9.22461 2.0706 9.95553 1.33333 10.8572 1.33333Z" stroke="#828282" stroke-linecap="round" stroke-linejoin="round"/>
<path fill-rule="evenodd" clip-rule="evenodd" d="M2.9666 1.33333H5.14364C6.04534 1.33333 6.77626 2.0706 6.77626 2.98012V5.17607C6.77626 6.0849 6.04534 6.82286 5.14364 6.82286H2.9666C2.0649 6.82286 1.33398 6.0849 1.33398 5.17607V2.98012C1.33398 2.0706 2.0649 1.33333 2.9666 1.33333Z" stroke="#828282" stroke-linecap="round" stroke-linejoin="round"/>
<path fill-rule="evenodd" clip-rule="evenodd" d="M2.9666 9.17714H5.14364C6.04534 9.17714 6.77626 9.91441 6.77626 10.8246V13.0199C6.77626 13.9294 6.04534 14.6667 5.14364 14.6667H2.9666C2.0649 14.6667 1.33398 13.9294 1.33398 13.0199V10.8246C1.33398 9.91441 2.0649 9.17714 2.9666 9.17714Z" stroke="#828282" stroke-linecap="round" stroke-linejoin="round"/>
<path fill-rule="evenodd" clip-rule="evenodd" d="M10.8572 9.17714H13.035C13.936 9.17714 14.6669 9.91441 14.6669 10.8246V13.0199C14.6669 13.9294 13.936 14.6667 13.035 14.6667H10.8572C9.95553 14.6667 9.22461 13.9294 9.22461 13.0199V10.8246C9.22461 9.91441 9.95553 9.17714 10.8572 9.17714Z" stroke="#828282" stroke-linecap="round" stroke-linejoin="round"/>
</svg>
