<svg width="14" height="14" viewBox="0 0 14 14" fill="none" xmlns="http://www.w3.org/2000/svg">
<path fill-rule="evenodd" clip-rule="evenodd" d="M1.49997 0.75H2.50003C2.91424 0.75 3.25 1.08576 3.25 1.49997V2.50003C3.25 2.91393 2.91424 3.25 2.50003 3.25H1.49997C1.08576 3.25 0.75 2.91393 0.75 2.50003V1.49997C0.75 1.08576 1.08576 0.75 1.49997 0.75Z" fill="white"/>
<path fill-rule="evenodd" clip-rule="evenodd" d="M6.49997 0.75H7.50003C7.91424 0.75 8.25 1.08576 8.25 1.49997V2.50003C8.25 2.91393 7.91424 3.25 7.50003 3.25H6.49997C6.08576 3.25 5.75 2.91393 5.75 2.50003V1.49997C5.75 1.08576 6.08576 0.75 6.49997 0.75Z" fill="white"/>
<path fill-rule="evenodd" clip-rule="evenodd" d="M11.5 0.75H12.5C12.9142 0.75 13.25 1.08576 13.25 1.49997V2.50003C13.25 2.91393 12.9142 3.25 12.5 3.25H11.5C11.0858 3.25 10.75 2.91393 10.75 2.50003V1.49997C10.75 1.08576 11.0858 0.75 11.5 0.75Z" fill="white"/>
<path fill-rule="evenodd" clip-rule="evenodd" d="M1.49997 5.75H2.50003C2.91424 5.75 3.25 6.08576 3.25 6.49997V7.50003C3.25 7.91393 2.91424 8.25 2.50003 8.25H1.49997C1.08576 8.25 0.75 7.91393 0.75 7.50003V6.49997C0.75 6.08576 1.08576 5.75 1.49997 5.75Z" fill="white"/>
<path fill-rule="evenodd" clip-rule="evenodd" d="M6.49997 5.75H7.50003C7.91424 5.75 8.25 6.08576 8.25 6.49997V7.50003C8.25 7.91393 7.91424 8.25 7.50003 8.25H6.49997C6.08576 8.25 5.75 7.91393 5.75 7.50003V6.49997C5.75 6.08576 6.08576 5.75 6.49997 5.75Z" fill="white"/>
<path fill-rule="evenodd" clip-rule="evenodd" d="M11.5 5.75H12.5C12.9142 5.75 13.25 6.08576 13.25 6.49997V7.50003C13.25 7.91393 12.9142 8.25 12.5 8.25H11.5C11.0858 8.25 10.75 7.91393 10.75 7.50003V6.49997C10.75 6.08576 11.0858 5.75 11.5 5.75Z" fill="white"/>
<path fill-rule="evenodd" clip-rule="evenodd" d="M1.49997 10.75H2.50003C2.91424 10.75 3.25 11.0858 3.25 11.5V12.5C3.25 12.9139 2.91424 13.25 2.50003 13.25H1.49997C1.08576 13.25 0.75 12.9139 0.75 12.5V11.5C0.75 11.0858 1.08576 10.75 1.49997 10.75Z" fill="white"/>
<path fill-rule="evenodd" clip-rule="evenodd" d="M6.49997 10.75H7.50003C7.91424 10.75 8.25 11.0858 8.25 11.5V12.5C8.25 12.9139 7.91424 13.25 7.50003 13.25H6.49997C6.08576 13.25 5.75 12.9139 5.75 12.5V11.5C5.75 11.0858 6.08576 10.75 6.49997 10.75Z" fill="white"/>
<path fill-rule="evenodd" clip-rule="evenodd" d="M11.5 10.75H12.5C12.9142 10.75 13.25 11.0858 13.25 11.5V12.5C13.25 12.9139 12.9142 13.25 12.5 13.25H11.5C11.0858 13.25 10.75 12.9139 10.75 12.5V11.5C10.75 11.0858 11.0858 10.75 11.5 10.75Z" fill="white"/>
</svg>
