<svg width="16" height="15" viewBox="0 0 16 15" fill="none" xmlns="http://www.w3.org/2000/svg">
<path d="M2.42638 8.34375C1.60787 8.34375 0.941406 7.70453 0.941406 6.91948V2.36177C0.941406 1.57672 1.60787 0.9375 2.42638 0.9375H4.20835C4.54278 0.9375 4.85045 1.04574 5.09934 1.22578V8.34375H2.42638Z" fill="#333333"/>
<path d="M15.0592 6.21094C15.0592 6.55412 14.9197 6.8739 14.6776 7.10974C14.9514 7.40152 15.0909 7.79269 15.0528 8.19981C14.9842 8.92559 14.3129 9.49433 13.5239 9.49433H9.90282C10.0822 10.0248 10.3694 10.9973 10.3694 11.7784C10.3694 13.017 9.28904 14.0625 8.61077 14.0625C8.0017 14.0625 7.56671 13.7285 7.54797 13.7147C7.4788 13.6605 7.43835 13.5783 7.43835 13.4915V11.5552L5.75003 7.99253L5.67969 7.95771V1.83747C6.15686 1.6182 6.76066 1.5 7.14523 1.5H12.5262C13.1646 1.5 13.7232 1.91914 13.8545 2.49757C13.9219 2.79508 13.8827 3.09487 13.7484 3.35526C14.1816 3.56768 14.473 4.00223 14.473 4.49787C14.473 4.70001 14.4255 4.89359 14.3353 5.06889C14.7685 5.28131 15.0592 5.71586 15.0592 6.21094Z" fill="#333333"/>
</svg>
