<svg width="283" height="213" viewBox="0 0 283 213" fill="none" xmlns="http://www.w3.org/2000/svg">
<g clip-path="url(#clip0_398_4278)">
<path d="M121.262 89.3116C122.291 90.3965 124.177 91.0818 126.293 90.9676C128.408 90.9105 130.238 90.0539 131.152 88.9118C130.123 87.8268 128.237 87.1416 126.121 87.2558C124.006 87.37 122.234 88.1695 121.262 89.3116Z" fill="#7B54E2"/>
<path d="M98.4497 133.339C99.879 123.746 100.508 113.981 100.336 104.33C100.279 99.4761 100.05 94.6222 99.6503 89.8254C99.3073 84.9715 98.6784 80.1747 97.9923 75.3779C96.6202 65.7844 94.6763 56.3051 92.2751 46.9399C91.0745 42.2574 89.7024 37.6318 88.2731 33.0064C86.7866 28.3809 85.243 23.8125 83.4135 19.3013L82.8418 19.5297C84.5569 24.0409 86.1006 28.6093 87.4727 33.2348C88.902 37.8603 90.1598 42.4857 91.3032 47.1683C93.5901 56.5334 95.4196 66.0128 96.6774 75.5493C97.3062 80.346 97.8208 85.0857 98.1066 89.9396C98.4497 94.7364 98.6212 99.5332 98.6212 104.33C98.6784 113.924 97.878 123.574 96.3915 133.054L98.4497 133.339Z" fill="#7B54E2"/>
<path d="M80.6134 0C83.3576 1.65603 85.5301 5.13941 86.159 9.42225C86.7879 13.7051 85.6445 17.6453 83.472 20.0437C80.7277 18.3877 78.5552 14.9043 77.9263 10.6214C77.3546 6.2815 78.4409 2.34129 80.6134 0Z" fill="#7B54E2"/>
<path d="M96.7914 14.733C97.1345 17.1885 96.0482 20.2721 93.7613 22.7276C91.4745 25.1831 88.5015 26.4394 85.986 26.2681C85.6429 23.8126 86.7292 20.729 89.0161 18.2735C91.3029 15.818 94.2759 14.5617 96.7914 14.733Z" fill="#7B54E2"/>
<path d="M85.5283 26.1539C83.413 27.5244 80.2114 27.867 77.0098 26.782C73.8081 25.7541 71.4069 23.5842 70.4922 21.2429C72.6075 19.8724 75.8092 19.5298 79.0108 20.6148C82.2124 21.6427 84.6136 23.8126 85.5283 26.1539Z" fill="#7B54E2"/>
<path d="M88.6729 36.7752C86.5575 38.1457 83.3559 38.4884 80.1543 37.4034C76.9527 36.3755 74.5515 34.2056 73.6367 31.8643C75.7521 30.4938 78.9537 30.1511 82.1553 31.2361C85.3569 32.264 87.7581 34.4339 88.6729 36.7752Z" fill="#7B54E2"/>
<path d="M91.9327 47.6253C89.8173 48.9958 86.6157 49.3384 83.4141 48.2535C80.2124 47.2256 77.8112 45.0557 76.8965 42.7144C79.0118 41.3439 82.2135 41.0012 85.4151 42.0862C88.6167 43.1712 91.0179 45.3411 91.9327 47.6253Z" fill="#7B54E2"/>
<path d="M94.1045 57.7897C91.9892 59.1602 88.7875 59.5029 85.5859 58.4179C82.3843 57.39 79.9831 55.2199 79.0684 52.8786C81.1837 51.5081 84.3853 51.1655 87.5869 52.2505C90.8457 53.2784 93.2469 55.4484 94.1045 57.7897Z" fill="#7B54E2"/>
<path d="M93.1895 55.734C95.3048 57.1045 98.5064 57.4471 101.708 56.3622C104.91 55.3343 107.311 53.1643 108.226 50.823C106.11 49.4525 102.909 49.1098 99.707 50.1948C96.5054 51.2798 94.1042 53.3927 93.1895 55.734Z" fill="#7B54E2"/>
<path d="M99.7074 24.3836C100.05 26.8391 98.9642 29.9228 96.6774 32.3783C94.3905 34.8338 91.4175 36.0901 88.902 35.9188C88.559 33.4633 89.6452 30.3797 91.9321 27.9242C94.2761 25.4687 97.2491 24.2123 99.7074 24.3836Z" fill="#7B54E2"/>
<path d="M103.137 35.3477C103.48 37.8032 102.394 40.8869 100.107 43.3424C97.8202 45.7979 94.8472 47.0542 92.3317 46.8829C91.9886 44.4274 93.0749 41.3437 95.3618 38.8882C97.6487 36.4327 100.622 35.1764 103.137 35.3477Z" fill="#7B54E2"/>
<path d="M36.5328 44.6558C40.7635 46.997 44.7084 49.6809 48.4817 52.5932C52.3122 55.5056 55.9712 58.5892 59.4588 61.9012C62.9462 65.2133 66.2622 68.6396 69.4066 72.2943C72.5511 75.9489 75.4668 79.7178 78.2111 83.6581C83.6996 91.5385 88.2733 100.047 91.9323 108.955C95.5341 117.864 98.2212 127.172 99.8792 136.651L97.821 136.994C96.2773 127.629 93.819 118.435 90.3887 109.584C86.9012 100.732 82.499 92.2808 77.182 84.3433C74.5521 80.4031 71.6935 76.5771 68.6062 72.9224C65.519 69.2677 62.3173 65.7843 58.887 62.4723C55.4567 59.1602 51.912 55.9624 48.1388 53.0501C44.3654 50.1377 40.4777 47.3397 36.3613 44.9984L36.5328 44.6558Z" fill="#7B54E2"/>
<path d="M21.0391 33.8059C21.2677 37.0038 23.383 40.5443 26.9277 42.9998C30.4723 45.5124 34.5316 46.3118 37.6189 45.3981C37.3902 42.2002 35.2748 38.6598 31.7302 36.2043C28.1284 33.7488 24.1263 32.9494 21.0391 33.8059Z" fill="#7B54E2"/>
<path d="M44.8804 31.1221C42.5364 33.292 41.05 37.118 41.3359 41.458C41.5645 45.7979 43.4512 49.4526 46.081 51.3371C48.4251 49.1671 49.9116 45.3411 49.6258 41.0012C49.3399 36.6612 47.4532 33.0065 44.8804 31.1221Z" fill="#7B54E2"/>
<path d="M58.9446 38.1458C56.0859 39.5734 53.6848 42.9425 52.77 47.1683C51.8553 51.394 52.7128 55.4484 54.7139 57.9039C57.5724 56.4763 59.9737 53.1071 60.8884 48.8814C61.746 44.7128 60.9456 40.6584 58.9446 38.1458Z" fill="#7B54E2"/>
<path d="M68.4348 46.8828C65.5762 48.3104 63.175 51.6796 62.2603 55.9053C61.3455 60.131 62.2031 64.1854 64.2041 66.6409C67.0627 65.2133 69.4639 61.8442 70.3786 57.6184C71.2362 53.4498 70.4358 49.3954 68.4348 46.8828Z" fill="#7B54E2"/>
<path d="M79.3555 55.8481C76.211 56.5334 73.0094 59.1032 71.0656 62.9863C69.1217 66.8694 68.893 70.981 70.1508 73.8933C73.2953 73.2081 76.4969 70.6383 78.4407 66.7552C80.3846 62.8721 80.6132 58.7606 79.3555 55.8481Z" fill="#7B54E2"/>
<path d="M87.0161 67.0977C84.1575 66.9835 80.7844 68.5253 78.2116 71.3806C75.6389 74.2929 74.5527 77.7763 75.01 80.5744C77.8686 80.6886 81.2417 79.1468 83.8145 76.2916C86.3872 73.3792 87.4735 69.8958 87.0161 67.0977Z" fill="#7B54E2"/>
<path d="M92.6177 74.1216C89.7591 74.0074 86.3859 75.5493 83.8132 78.4045C81.2405 81.3168 80.1542 84.8002 80.6116 87.5983C83.4702 87.7125 86.8433 86.1707 89.416 83.3155C91.9316 80.4602 93.075 76.9769 92.6177 74.1216Z" fill="#7B54E2"/>
<path d="M95.8204 84.5147C93.362 84.4005 90.5034 85.7139 88.2737 88.1694C86.1012 90.6249 85.1293 93.6514 85.5295 96.0498C87.9879 96.164 90.8465 94.8506 93.0762 92.3951C95.2487 89.9396 96.2206 86.9702 95.8204 84.5147Z" fill="#7B54E2"/>
<path d="M98.9081 95.3646C97.1357 94.3367 94.4487 94.2225 91.8759 95.2504C89.3032 96.2782 87.4165 98.1056 86.7305 100.047C88.5028 101.075 91.1899 101.189 93.7626 100.161C96.3925 99.1906 98.222 97.3061 98.9081 95.3646Z" fill="#7B54E2"/>
<path d="M100.166 104.33C99.0793 103.131 97.0783 102.331 94.8486 102.445C92.6189 102.56 90.7322 103.473 89.7031 104.787C90.7894 105.986 92.7904 106.785 95.0201 106.671C97.2498 106.557 99.1365 105.643 100.166 104.33Z" fill="#7B54E2"/>
<path d="M26.9277 57.5614C29.672 59.2174 33.7884 59.6172 37.8476 58.1896C41.964 56.7619 44.9368 53.9639 46.0803 50.9373C43.336 49.2813 39.2197 48.8815 35.1605 50.3091C31.0441 51.7938 28.014 54.592 26.9277 57.5614Z" fill="#7B54E2"/>
<path d="M35.5605 64.6996C38.3048 66.3556 42.4211 66.7554 46.4803 65.3277C50.5966 63.9001 53.5696 61.102 54.7131 58.0755C51.9688 56.4195 47.8524 56.0197 43.7932 57.4473C39.6769 58.8749 36.6468 61.6731 35.5605 64.6996Z" fill="#7B54E2"/>
<path d="M44.7656 73.4364C47.5099 75.0925 51.6262 75.4922 55.6854 74.0646C59.8019 72.637 62.7748 69.8388 63.9183 66.8123C61.174 65.1563 57.0575 64.7565 52.9984 66.1841C48.882 67.6118 45.8519 70.4099 44.7656 73.4364Z" fill="#7B54E2"/>
<path d="M55.1133 79.2611C57.343 80.6316 60.659 80.9172 63.975 79.7751C67.2909 78.633 69.7493 76.3488 70.664 73.8933C68.4343 72.5228 65.1184 72.2373 61.8024 73.3793C58.4865 74.5214 56.028 76.8056 55.1133 79.2611Z" fill="#7B54E2"/>
<path d="M62.9453 84.8002C64.7748 85.9423 67.4619 86.2278 70.149 85.3142C72.836 84.4005 74.7799 82.516 75.5231 80.4603C73.6936 79.3182 71.0065 79.0327 68.3195 79.9463C65.5752 80.9171 63.6314 82.8016 62.9453 84.8002Z" fill="#7B54E2"/>
<path d="M67.5781 91.9955C69.4076 93.1376 72.0947 93.4232 74.7818 92.5095C77.4688 91.5958 79.4127 89.7114 80.1559 87.6556C78.3264 86.5135 75.6393 86.228 72.9523 87.1417C70.2652 88.0553 68.2642 89.9398 67.5781 91.9955Z" fill="#7B54E2"/>
<path d="M72.666 98.4483C74.1525 99.7046 76.6109 100.276 79.2408 99.8759C81.8707 99.4762 84.0432 98.1057 85.0151 96.4497C83.5286 95.1934 81.0703 94.6223 78.4404 95.0221C75.8105 95.4789 73.6951 96.7923 72.666 98.4483Z" fill="#7B54E2"/>
<path d="M77.582 106.614C79.24 107.071 81.4125 106.671 83.3564 105.358C85.3002 104.045 86.5008 102.16 86.6723 100.447C85.0144 99.9902 82.8418 100.39 80.898 101.703C78.9542 103.017 77.7535 104.901 77.582 106.614Z" fill="#7B54E2"/>
<path d="M83.0699 111.468C84.3848 111.582 85.9856 110.954 87.2434 109.698C88.5012 108.442 89.1301 106.843 89.0157 105.529C87.7008 105.415 86.1 106.043 84.8422 107.3C83.5844 108.556 82.9555 110.155 83.0699 111.468Z" fill="#7B54E2"/>
<path d="M86.7289 112.724C87.5864 112.839 88.6155 112.496 89.3588 111.754C90.1592 110.954 90.5022 109.983 90.3307 109.127C89.4731 109.013 88.444 109.355 87.7008 110.098C86.9575 110.897 86.5573 111.868 86.7289 112.724Z" fill="#7B54E2"/>
<path d="M87.8731 115.123C88.7307 115.237 89.7598 114.894 90.503 114.152C91.2463 113.41 91.6465 112.382 91.4749 111.525C90.6174 111.411 89.5883 111.754 88.845 112.496C88.1018 113.295 87.7588 114.266 87.8731 115.123Z" fill="#7B54E2"/>
<path d="M130.065 36.5469C127.035 39.8589 124.405 43.3994 121.889 47.0541C119.374 50.7088 117.144 54.5348 115.029 58.475C112.971 62.4152 111.084 66.4126 109.369 70.5812C107.711 74.6927 106.282 78.9184 105.024 83.2013C102.565 91.767 101.079 100.618 100.507 109.469C99.9927 118.378 100.45 127.343 101.765 136.137L103.652 135.852C102.165 127.172 101.651 118.378 101.994 109.526C102.451 100.732 103.766 91.9383 106.053 83.4297C107.196 79.1469 108.568 74.9782 110.169 70.8667C111.77 66.7552 113.6 62.7008 115.601 58.7605C117.602 54.8203 119.831 50.9943 122.233 47.2825C124.691 43.5707 127.264 39.9731 130.179 36.6611L130.065 36.5469Z" fill="#B098EE"/>
<path d="M140.471 22.4421C141.214 25.2974 140.413 29.0663 138.069 32.2641C135.725 35.5191 132.409 37.4035 129.436 37.5748C128.693 34.7196 129.494 30.9507 131.838 27.7529C134.182 24.555 137.498 22.6135 140.471 22.4421Z" fill="#B098EE"/>
<path d="M118.746 27.1819C121.49 28.3811 123.892 31.3505 124.978 35.1765C126.064 39.0596 125.492 42.8285 123.777 45.2269C121.033 44.0277 118.632 41.0583 117.546 37.2323C116.459 33.3492 117.031 29.5803 118.746 27.1819Z" fill="#B098EE"/>
<path d="M108.512 37.5747C111.428 37.9744 114.572 40.2015 116.63 43.6278C118.688 47.0541 119.146 50.8801 118.174 53.6782C115.258 53.2785 112.114 51.0514 110.055 47.6251C107.94 44.1417 107.483 40.3728 108.512 37.5747Z" fill="#B098EE"/>
<path d="M102.737 48.0249C105.653 48.4246 108.797 50.6518 110.856 54.078C112.914 57.5042 113.371 61.3302 112.399 64.1283C109.483 63.7286 106.339 61.5015 104.281 58.0752C102.223 54.6491 101.765 50.823 102.737 48.0249Z" fill="#B098EE"/>
<path d="M95.8206 59.1603C98.7935 58.8177 102.338 60.1311 105.254 62.9292C108.113 65.7273 109.542 69.2678 109.313 72.2372C106.34 72.5799 102.796 71.2665 99.8798 68.4683C97.0212 65.6702 95.5919 62.1297 95.8206 59.1603Z" fill="#B098EE"/>
<path d="M92.4473 71.3235C94.9057 70.3528 98.336 70.6954 101.423 72.4656C104.511 74.2359 106.569 76.9769 107.026 79.6037C104.568 80.5745 101.137 80.2318 98.0501 78.4616C94.9057 76.6914 92.8475 73.9503 92.4473 71.3235Z" fill="#B098EE"/>
<path d="M89.6445 79.147C92.1029 78.1762 95.5332 78.5189 98.6205 80.2891C101.708 82.0594 103.766 84.8004 104.223 87.4272C101.765 88.398 98.3346 88.0553 95.2474 86.2851C92.1029 84.5149 90.0447 81.7738 89.6445 79.147Z" fill="#B098EE"/>
<path d="M89.9316 89.2544C92.047 88.4549 94.9628 88.7404 97.6498 90.2251C100.337 91.767 102.052 94.1083 102.452 96.3353C100.337 97.1348 97.4211 96.8493 94.7341 95.3646C92.047 93.8798 90.3318 91.4815 89.9316 89.2544Z" fill="#B098EE"/>
<path d="M90.4453 99.7046C91.7031 98.277 93.99 97.4204 96.5627 97.4775C99.1354 97.5917 101.365 98.6767 102.509 100.161C101.251 101.589 98.9639 102.446 96.3912 102.389C93.8184 102.331 91.5887 101.246 90.4453 99.7046Z" fill="#B098EE"/>
<path d="M92.0469 107.928C92.6186 106.557 94.1622 105.244 96.1632 104.673C98.1642 104.102 100.108 104.33 101.366 105.187C100.794 106.557 99.2505 107.87 97.2495 108.442C95.2485 109.07 93.3047 108.784 92.0469 107.928Z" fill="#B098EE"/>
<path d="M142.415 45.0555C140.528 47.3397 137.041 48.8816 132.982 48.8244C128.98 48.8244 125.492 47.2255 123.605 44.9413C125.492 42.6572 128.98 41.1153 133.039 41.1724C137.041 41.1724 140.528 42.7714 142.415 45.0555Z" fill="#B098EE"/>
<path d="M136.927 53.9066C135.04 56.1908 131.553 57.7327 127.493 57.6756C123.491 57.6756 120.004 56.0766 118.117 53.7925C120.004 51.5083 123.491 49.9664 127.551 50.0235C131.553 50.0235 135.097 51.5653 136.927 53.9066Z" fill="#B098EE"/>
<path d="M131.438 64.2997C129.552 66.5839 126.064 68.1257 122.005 68.0686C118.003 68.0686 114.516 66.4697 112.629 64.1855C114.516 61.9013 118.003 60.3595 122.062 60.4166C126.121 60.4166 129.609 62.0155 131.438 64.2997Z" fill="#B098EE"/>
<path d="M124.062 72.5228C122.518 74.4073 119.659 75.6064 116.401 75.6064C113.142 75.6064 110.283 74.293 108.797 72.4086C110.341 70.5241 113.199 69.325 116.458 69.325C119.717 69.3821 122.575 70.6384 124.062 72.5228Z" fill="#B098EE"/>
<path d="M118.917 79.7181C117.66 81.2599 115.373 82.3449 112.743 82.2878C110.113 82.2878 107.826 81.2028 106.568 79.6038C107.826 78.062 110.113 76.977 112.743 77.0341C115.373 77.0912 117.66 78.1191 118.917 79.7181Z" fill="#B098EE"/>
<path d="M116.974 87.3699C115.716 88.9117 113.429 89.9967 110.8 89.9396C108.17 89.9396 105.883 88.8546 104.625 87.2557C105.883 85.7139 108.17 84.6289 110.8 84.686C113.429 84.7431 115.716 85.8281 116.974 87.3699Z" fill="#B098EE"/>
<path d="M114.401 94.6223C113.486 96.1641 111.485 97.4204 109.084 97.8202C106.626 98.2199 104.339 97.7059 102.967 96.5639C103.882 95.022 105.883 93.7657 108.284 93.366C110.685 92.9663 113.029 93.4231 114.401 94.6223Z" fill="#B098EE"/>
<path d="M112.513 103.245C111.198 104.159 109.14 104.444 107.025 103.873C104.909 103.302 103.309 101.989 102.68 100.504C103.995 99.5904 106.053 99.3049 108.168 99.8759C110.226 100.447 111.827 101.76 112.513 103.245Z" fill="#B098EE"/>
<path d="M109.141 109.127C108.055 109.641 106.454 109.527 104.967 108.784C103.481 108.042 102.452 106.843 102.166 105.643C103.252 105.13 104.853 105.244 106.34 105.986C107.826 106.728 108.855 107.928 109.141 109.127Z" fill="#B098EE"/>
<path d="M106.339 111.354C105.595 111.754 104.624 111.697 103.709 111.297C102.794 110.84 102.165 110.04 102.051 109.241C102.794 108.841 103.766 108.898 104.681 109.298C105.595 109.755 106.167 110.554 106.339 111.354Z" fill="#B098EE"/>
<path d="M105.997 113.809C105.254 114.209 104.282 114.152 103.367 113.752C102.452 113.296 101.823 112.496 101.709 111.697C102.452 111.297 103.424 111.354 104.339 111.754C105.254 112.211 105.883 113.01 105.997 113.809Z" fill="#B098EE"/>
<path d="M66.4343 26.8391C69.5216 30.5509 72.1515 34.5482 74.667 38.6026C77.1826 42.7142 79.4123 46.94 81.4133 51.2799C83.4715 55.6198 85.2438 60.074 86.8446 64.5852C88.3882 69.0965 89.7604 73.722 90.8466 78.4045C93.0763 87.7697 94.1626 97.3632 94.3341 106.957C94.3913 116.55 93.4765 126.201 91.5327 135.623L89.5317 135.166C91.5327 125.916 92.6189 116.436 92.7333 106.957C92.7333 97.4774 91.7614 87.941 89.7032 78.6901C88.6741 74.0646 87.4163 69.4391 85.9299 64.9278C84.4434 60.4166 82.6711 55.9624 80.7272 51.6225C78.7834 47.2825 76.6109 42.9997 74.1525 38.8882C71.7513 34.7766 69.1214 30.7793 66.1484 27.0675L66.4343 26.8391Z" fill="#5D3FAA"/>
<path d="M55.9708 11.0781C54.9989 14.1047 55.6849 18.2162 58.0861 21.8138C60.4873 25.4114 63.9176 27.6384 67.1192 27.9811C68.0912 24.9545 67.4051 20.843 65.0039 17.2454C62.6027 13.5907 59.1724 11.3636 55.9708 11.0781Z" fill="#5D3FAA"/>
<path d="M79.1257 17.3027C76.1528 18.4448 73.3514 21.5285 72.0364 25.5829C70.6643 29.6944 71.0645 33.806 72.8368 36.4899C75.8098 35.3478 78.6112 32.2641 79.9261 28.2097C81.2411 24.0982 80.8409 19.9866 79.1257 17.3027Z" fill="#5D3FAA"/>
<path d="M89.6464 29.009C86.4448 29.2946 82.9573 31.5216 80.5561 35.1192C78.1549 38.7168 77.4688 42.7712 78.3835 45.8549C81.5852 45.5694 85.0726 43.3423 87.4739 39.7447C89.8751 36.1471 90.5611 32.0356 89.6464 29.009Z" fill="#5D3FAA"/>
<path d="M95.248 40.6013C92.0463 40.8868 88.5589 43.1139 86.1576 46.7115C83.7564 50.3091 83.0704 54.3635 83.9851 57.4471C87.1867 57.1616 90.6742 54.9346 93.0754 51.337C95.4766 47.7394 96.1627 43.6279 95.248 40.6013Z" fill="#5D3FAA"/>
<path d="M102.11 52.9359C98.9651 52.422 95.0202 53.6783 91.7615 56.5335C88.5027 59.3888 86.7875 63.1577 86.9019 66.3556C90.0463 66.8695 93.9912 65.6132 97.2499 62.758C100.509 59.9028 102.224 56.1338 102.11 52.9359Z" fill="#5D3FAA"/>
<path d="M105.14 66.1843C102.51 65.0422 98.8511 65.2135 95.4208 66.9838C91.9905 68.754 89.6465 71.6092 89.0176 74.3503C91.6475 75.4924 95.3065 75.321 98.7368 73.5508C102.167 71.7806 104.511 68.9824 105.14 66.1843Z" fill="#5D3FAA"/>
<path d="M107.769 74.8069C105.139 73.6648 101.48 73.8361 98.0497 75.6063C94.6194 77.3766 92.2754 80.2318 91.6465 82.9728C94.2764 84.1149 97.9354 83.9436 101.366 82.1734C104.796 80.4031 107.14 77.605 107.769 74.8069Z" fill="#5D3FAA"/>
<path d="M106.912 85.6568C104.682 84.686 101.538 84.8003 98.5647 86.3421C95.5917 87.8268 93.5907 90.2823 93.0762 92.6807C95.3059 93.6515 98.4503 93.5373 101.423 91.9954C104.339 90.5107 106.34 88.0552 106.912 85.6568Z" fill="#5D3FAA"/>
<path d="M105.768 96.8495C104.453 95.2505 102.051 94.1655 99.25 94.1655C96.4486 94.1655 94.0474 95.1934 92.7324 96.7352C94.0474 98.3342 96.4486 99.4192 99.25 99.4192C102.051 99.4763 104.453 98.4484 105.768 96.8495Z" fill="#5D3FAA"/>
<path d="M103.652 105.643C103.08 104.102 101.537 102.674 99.4212 101.932C97.3058 101.189 95.1905 101.361 93.8184 102.217C94.3901 103.759 95.9337 105.187 98.0491 105.929C100.107 106.671 102.28 106.5 103.652 105.643Z" fill="#5D3FAA"/>
<path d="M52.7129 35.2907C54.5996 37.8604 58.3156 39.6877 62.6607 39.859C67.0057 40.0304 70.8362 38.5456 72.9516 36.1472C71.0649 33.5775 67.3487 31.7502 63.0037 31.5789C58.6586 31.4076 54.8282 32.9494 52.7129 35.2907Z" fill="#5D3FAA"/>
<path d="M58.1445 45.1126C60.0312 47.6823 63.7474 49.5096 68.0924 49.6809C72.4375 49.8523 76.268 48.3675 78.3833 45.9691C76.4967 43.3994 72.7805 41.5721 68.4354 41.4008C64.0904 41.1724 60.2599 42.7142 58.1445 45.1126Z" fill="#5D3FAA"/>
<path d="M63.4609 56.5907C65.3476 59.1603 69.0638 60.9877 73.4088 61.159C77.7539 61.3303 81.5844 59.8456 83.6997 57.4472C81.8131 54.8775 78.0969 53.0502 73.7518 52.8789C69.464 52.7076 65.6335 54.1923 63.4609 56.5907Z" fill="#5D3FAA"/>
<path d="M71.0078 65.8417C72.5514 67.9546 75.5816 69.4393 79.069 69.5535C82.6137 69.7248 85.7009 68.4685 87.4161 66.5269C85.8725 64.4141 82.8424 62.9294 79.3549 62.8151C75.8674 62.6438 72.723 63.9001 71.0078 65.8417Z" fill="#5D3FAA"/>
<path d="M76.209 73.8361C77.4668 75.6064 79.868 76.8627 82.7266 76.9769C85.5851 77.0911 88.1007 76.0632 89.4728 74.4072C88.215 72.6369 85.8138 71.3806 82.9553 71.2664C80.1538 71.2093 77.5811 72.2372 76.209 73.8361Z" fill="#5D3FAA"/>
<path d="M77.9238 82.2307C79.1816 84.0009 81.5828 85.2572 84.4414 85.3714C87.3 85.4856 89.8155 84.4578 91.1877 82.8017C89.9299 81.0315 87.5287 79.8323 84.6701 79.661C81.8115 79.5468 79.2959 80.5746 77.9238 82.2307Z" fill="#5D3FAA"/>
<path d="M80.2695 90.111C81.1843 91.8242 83.2425 93.2518 85.8724 93.8228C88.5023 94.3939 90.9606 93.937 92.5043 92.7378C91.5895 91.0247 89.5313 89.5971 86.9015 89.026C84.2716 88.455 81.8132 88.9689 80.2695 90.111Z" fill="#5D3FAA"/>
<path d="M81.8711 99.4761C83.2432 100.504 85.4157 100.904 87.7026 100.39C89.9895 99.8758 91.819 98.5624 92.5622 97.0206C91.1901 95.9927 89.0176 95.593 86.7307 96.1069C84.4438 96.6209 82.6143 97.9914 81.8711 99.4761Z" fill="#5D3FAA"/>
<path d="M85.1855 106.043C86.3862 106.614 88.0441 106.614 89.7021 105.929C91.3601 105.187 92.5035 103.987 92.9037 102.731C91.7031 102.16 90.0451 102.16 88.3872 102.845C86.7292 103.531 85.5286 104.787 85.1855 106.043Z" fill="#5D3FAA"/>
<path d="M88.1016 108.556C88.8448 109.013 89.9311 109.07 90.9601 108.613C91.9892 108.156 92.6753 107.357 92.8468 106.5C92.1036 106.043 91.0173 105.986 89.9882 106.443C88.9591 106.9 88.2731 107.699 88.1016 108.556Z" fill="#5D3FAA"/>
<path d="M88.2734 111.24C89.0167 111.697 90.1029 111.754 91.132 111.297C92.1611 110.84 92.8472 110.041 93.0187 109.184C92.2755 108.727 91.1892 108.67 90.1601 109.127C89.1882 109.584 88.5021 110.383 88.2734 111.24Z" fill="#5D3FAA"/>
<path d="M110.913 103.873C115.429 97.249 120.174 90.7962 125.263 84.5718L125.205 84.5146C120.003 90.6248 115.086 97.0205 110.455 103.53C105.824 110.097 101.422 116.836 97.4772 123.86C96.5053 125.573 95.5905 127.286 94.6758 128.999C95.0188 129.17 95.3618 129.399 95.7049 129.57C96.5624 127.8 97.4772 126.087 98.3919 124.317C102.165 117.293 106.396 110.497 110.913 103.873Z" fill="#7B54E2"/>
<path d="M130.295 76.1204C128.637 76.2917 126.921 77.3767 125.778 79.204C124.692 81.0313 124.52 83.0871 125.149 84.6289C126.807 84.4576 128.522 83.3726 129.666 81.5453C130.752 79.7179 130.923 77.6622 130.295 76.1204Z" fill="#7B54E2"/>
<path d="M117.888 80.0034C117.202 81.3168 117.145 83.3155 117.945 85.3141C118.689 87.3128 120.061 88.7404 121.49 89.2544C122.176 87.941 122.233 85.9423 121.433 83.9436C120.632 81.945 119.26 80.5174 117.888 80.0034Z" fill="#7B54E2"/>
<path d="M117.43 94.5652C118.573 95.536 120.517 95.9928 122.575 95.7073C124.69 95.4217 126.406 94.451 127.206 93.1947C126.063 92.2239 124.119 91.767 122.061 92.0526C120.002 92.3381 118.287 93.3089 117.43 94.5652Z" fill="#7B54E2"/>
<path d="M112.457 101.018C113.6 101.989 115.544 102.446 117.602 102.16C119.718 101.875 121.433 100.904 122.233 99.6475C121.09 98.6768 119.146 98.2199 117.088 98.5055C115.03 98.791 113.257 99.7617 112.457 101.018Z" fill="#7B54E2"/>
<path d="M109.027 106.157C110.171 107.128 112.115 107.585 114.173 107.3C116.288 107.014 118.003 106.043 118.804 104.787C117.66 103.816 115.716 103.359 113.658 103.645C111.6 103.93 109.885 104.901 109.027 106.157Z" fill="#7B54E2"/>
<path d="M105.311 111.811C106.454 112.782 108.398 113.238 110.456 112.953C112.571 112.667 114.287 111.697 115.087 110.44C113.943 109.469 112 109.013 109.941 109.298C107.826 109.584 106.111 110.554 105.311 111.811Z" fill="#7B54E2"/>
<path d="M113.543 85.5427C112.856 86.8561 112.799 88.8548 113.6 90.8535C114.343 92.8521 115.715 94.2797 117.144 94.7937C117.83 93.4803 117.888 91.4816 117.087 89.4829C116.287 87.4843 114.915 86.0567 113.543 85.5427Z" fill="#7B54E2"/>
<path d="M109.369 91.2532C108.683 92.5666 108.683 94.5652 109.426 96.5639C110.169 98.5626 111.541 99.9902 112.971 100.504C113.657 99.1907 113.714 97.192 112.914 95.1934C112.113 93.1947 110.741 91.7671 109.369 91.2532Z" fill="#7B54E2"/>
<path d="M105.367 96.9636C104.681 98.277 104.623 100.276 105.424 102.274C106.167 104.273 107.539 105.701 108.969 106.215C109.655 104.901 109.712 102.902 108.911 100.904C108.168 98.9623 106.796 97.4776 105.367 96.9636Z" fill="#7B54E2"/>
<path d="M101.537 102.617C100.851 103.93 100.793 105.929 101.594 107.928C102.394 109.926 103.709 111.354 105.138 111.868C105.825 110.554 105.882 108.556 105.081 106.557C104.338 104.559 102.966 103.131 101.537 102.617Z" fill="#7B54E2"/>
<path d="M111.829 125.344H81.5277C76.4965 127.914 73.2949 131.74 73.2949 136.023C73.2949 140.591 76.9539 144.646 82.5567 147.216H110.8C116.46 144.646 120.061 140.591 120.061 136.023C120.061 131.683 116.86 127.857 111.829 125.344Z" fill="url(#paint0_linear_398_4278)"/>
<path d="M108.969 127.686C111.942 127.343 115.944 129.57 116.973 134.139C118.402 143.047 109.426 145.674 104.566 143.447C108.797 142.362 113.485 140.42 113.6 136.023C113.828 133.739 112.456 131.512 112.456 131.455C112.285 131.169 111.884 130.541 111.198 129.742C110.569 128.942 109.826 128.314 108.969 127.686Z" fill="#F8E74A"/>
<path d="M113.257 126.082H79.7539V123.97H113.257V126.082Z" fill="#1179C5"/>
<path d="M244.352 165.261H248.811V193.87H244.352V165.261Z" fill="#4C505E"/>
<path d="M235.033 150.242V153.668C235.033 155.952 237.149 157.837 239.836 157.837H240.35V161.72C240.35 162.691 241.265 163.49 242.351 163.49H250.241C251.327 163.49 252.242 162.691 252.242 161.72V157.666C254.186 157.152 255.615 155.553 255.615 153.725V150.299H235.033V150.242Z" fill="#303030"/>
<path d="M249.536 170.157H243.762V163.418H249.536V170.157Z" fill="#303030"/>
<path d="M249.554 202.436H243.723V197.468V193.47H249.554V202.436Z" fill="#001F26"/>
<path d="M222.17 208.375L243.724 197.468V202.436L228.287 208.375V209.517H222.17V208.375Z" fill="#001F26"/>
<path d="M271.108 208.375L249.555 197.468V202.436L265.048 208.375V209.517H271.108V208.375Z" fill="#001F26"/>
<path d="M244.695 197.468V209.517H243.266V210.373H249.555V209.517H248.24L248.64 197.468H244.695Z" fill="#001F26"/>
<path d="M269.05 79.4894V136.137H237.605L240.407 78.8613C240.636 74.1216 243.38 70.4098 246.753 70.1243C246.924 70.1243 247.039 70.1243 247.21 70.1243H262.189C265.963 70.1243 269.05 74.2929 269.05 79.4894Z" fill="#0089A9"/>
<path d="M256.243 71.3235C256.072 71.3235 255.958 71.3235 255.786 71.3235C252.413 71.609 249.669 75.3208 249.44 80.0605L246.696 136.137H237.605L240.407 78.8613C240.636 74.1216 243.38 70.4098 246.753 70.1243C246.924 70.1243 247.039 70.1243 247.21 70.1243H262.189C263.39 70.1243 264.591 70.5811 265.562 71.3235H256.243Z" fill="#75E0F9"/>
<path d="M264.819 70.1243H259.674C264.876 70.1243 269.05 74.35 269.05 79.4894V136.137H274.195V79.4894C274.195 74.2929 269.965 70.1243 264.819 70.1243Z" fill="#004555"/>
<path d="M253.328 50.8231H253.385C253.614 50.766 253.728 50.5948 253.671 50.3664C248.868 22.9562 224.57 23.2988 224.284 23.2988C224.056 23.2988 223.941 23.47 223.941 23.6985C223.941 23.9269 224.113 24.0982 224.342 24.0411C224.57 24.0411 248.239 23.7556 252.927 50.4805C252.985 50.6518 253.156 50.8231 253.328 50.8231Z" fill="#3C4875"/>
<path d="M78.4395 146.816H130.294V212.429H78.4395V146.816Z" fill="#DD7C82"/>
<path d="M78.3762 212.464H68.3711V146.851H78.3762V212.464Z" fill="#903B41"/>
<path d="M122.975 166.174H80.8398V149.785L81.9833 165.432L122.975 166.174Z" fill="#903B41"/>
<path d="M123.89 186.96H81.6973V170.571L82.8407 186.218L123.89 186.96Z" fill="#903B41"/>
<path d="M100.107 154.068C100.107 154.868 101.651 155.553 103.595 155.553C105.539 155.553 107.082 154.925 107.082 154.068C107.082 153.269 105.539 152.583 103.595 152.583C101.651 152.583 100.107 153.269 100.107 154.068Z" fill="#903B41"/>
<path d="M99.0215 178.052C99.0215 178.909 100.794 179.594 102.909 179.594C105.082 179.594 106.797 178.909 106.797 178.052C106.797 177.195 105.025 176.51 102.909 176.51C100.737 176.51 99.0215 177.195 99.0215 178.052Z" fill="#903B41"/>
<path d="M124.005 207.518H81.8125V191.129L82.9559 206.776L124.005 207.518Z" fill="#903B41"/>
<path d="M99.1348 198.667C99.1348 199.523 100.907 200.209 103.022 200.209C105.195 200.209 106.91 199.523 106.91 198.667C106.91 197.81 105.138 197.125 103.022 197.125C100.85 197.125 99.1348 197.81 99.1348 198.667Z" fill="#903B41"/>
<path d="M78.4395 146.816H130.294V150.356H78.4395V146.816Z" fill="#A65E62"/>
<path d="M68.377 146.816H78.382V150.356H68.377V146.816Z" fill="#360442"/>
<path d="M203.93 145.217L199.471 131.626C198.499 128.657 198.956 125.516 200.729 122.946C202.501 120.376 205.245 118.835 208.333 118.663L245.208 116.722L245.494 121.69L208.618 123.631C207.075 123.688 205.703 124.488 204.845 125.744C203.988 127.001 203.759 128.542 204.216 130.027L208.676 143.618L203.93 145.217Z" fill="#1E1E1E"/>
<path d="M267.564 151.67H210.678C210.678 146.016 215.309 141.391 220.969 141.391H257.273C262.933 141.391 267.564 145.959 267.564 151.67Z" fill="#004555"/>
<path d="M255.73 151.67H198.844C198.844 146.016 203.475 141.391 209.135 141.391H245.439C251.099 141.391 255.73 145.959 255.73 151.67Z" fill="#0089A9"/>
<path d="M200.101 112.153L205.247 109.869C207.248 108.841 209.477 108.784 210.564 108.613C211.764 108.385 213.308 108.213 215.194 107.928C215.08 109.641 214.909 111.354 214.394 113.067C213.937 113.01 213.479 112.953 213.079 112.896C210.849 112.61 205.875 113.01 204.332 115.237C202.788 117.521 202.788 119.063 202.331 118.892C201.816 118.72 202.274 116.322 203.017 115.123C203.76 113.924 204.218 112.953 204.218 112.953C204.218 112.953 202.217 115.294 201.931 116.493C201.645 117.693 200.959 119.006 200.673 118.949C200.387 118.835 201.016 116.665 201.302 115.294C201.473 114.381 201.759 113.638 202.102 112.953L200.616 113.695C200.616 113.695 198.443 116.95 198.272 116.208C198.043 115.408 200.101 112.153 200.101 112.153Z" fill="#FD5E5A"/>
<path d="M218.739 106.786C228.972 105.358 231.431 107.014 231.431 102.446C231.431 96.2212 224.513 81.4882 227.658 77.3196C228.172 76.6344 232.117 73.8934 233.832 75.7207C239.835 81.888 242.636 104.73 238.006 112.21C235.147 116.779 223.198 114.152 214.336 113.01C214.851 111.297 214.222 108.499 214.336 106.786C215.48 106.671 217.367 107.014 218.739 106.786Z" fill="#B54300"/>
<path d="M213.821 108.556L207.875 110.84C207.875 110.84 205.531 114.095 205.76 114.894C205.989 115.694 208.447 112.382 208.447 112.382L212.049 110.897L213.821 108.556Z" fill="#D80000"/>
<path d="M217.082 109.641C217.082 109.641 214.28 112.61 214.28 113.238C214.28 113.866 214.052 115.351 213.48 115.351C212.908 115.351 212.908 112.724 212.908 111.925C212.908 111.125 214.28 108.841 214.566 108.841C214.795 108.898 217.082 109.641 217.082 109.641Z" fill="#D80000"/>
<path d="M206.789 192.157C207.304 192.671 209.762 191.586 209.762 193.699C209.762 194.384 208.276 194.498 207.99 196.954C207.761 198.61 208.847 202.493 208.333 203.978C207.361 206.833 205.131 208.203 205.131 208.203C205.131 206.49 205.989 205.519 205.989 203.692C205.989 201.865 200.214 195.812 199.757 189.816C199.7 189.473 199.586 188.959 199.414 188.388C201.129 187.36 202.844 186.332 204.274 185.076C205.646 189.187 206.675 191.986 206.789 192.157Z" fill="#FD5E5A"/>
<path d="M205.819 194.27C205.819 193.584 206.391 192.899 206.848 192.157C207.477 192.556 209.764 191.586 209.764 193.641C209.764 195.754 214.338 201.693 214.338 201.693L213.423 202.493C213.423 202.493 208.907 195.012 208.564 196.839C208.163 198.667 211.136 204.206 211.136 204.206L205.419 209.06L205.076 208.146C205.076 206.433 205.877 205.519 205.934 203.749C208.735 201.636 205.419 197.068 205.819 194.27Z" fill="#3A0049"/>
<path d="M185.295 141.848C188.382 133.51 229.145 124.716 229.145 124.716L234.005 126.429L238.35 132.254L197.644 145.388C197.644 145.388 201.817 173.255 206.62 187.417C205.019 188.788 202.275 188.331 200.388 189.53C197.244 179.137 183.58 146.473 185.295 141.848Z" fill="#6D175B"/>
<path d="M195.756 185.304C197.757 185.418 199.815 185.59 201.873 185.818C201.301 189.873 201.015 193.07 201.53 193.927C201.93 194.612 202.33 195.297 202.788 195.926C203.931 197.753 205.017 199.352 204.617 200.094C204.389 200.551 201.816 200.037 200.844 202.378C199.7 205.234 200.158 210.887 200.158 210.887L191.468 212.315C191.468 212.315 190.267 211.744 192.039 210.03C193.812 208.26 195.298 207.689 195.87 205.805C196.442 203.863 195.927 194.098 195.927 187.817C195.813 187.189 195.813 186.332 195.756 185.304Z" fill="#FC7575"/>
<path d="M190.839 211.63C190.896 211.287 192.04 208.717 194.784 207.118L196.671 208.432C198.843 205.748 198.843 201.465 200.215 198.724C200.501 197.81 201.53 196.668 202.731 195.983C203.874 197.81 204.961 199.409 204.56 200.152C204.046 201.179 204.103 210.716 204.103 210.716H202.788C202.788 210.716 203.588 202.893 202.273 202.436C200.959 201.979 200.673 211.515 200.673 211.515L191.011 212.886C190.896 212.829 190.496 212.6 190.839 211.63Z" fill="#4F005E"/>
<path d="M202.845 135.623L234.117 128.599L255.157 131.911C255.157 131.911 257.901 140.763 253.213 144.303C251.383 145.731 211.763 147.901 211.763 147.901C211.763 147.901 205.703 177.024 204.331 186.675C201.815 186.389 197.813 185.704 195.298 185.533C194.841 175.711 200.443 136.308 202.845 135.623Z" fill="#7F71A4"/>
<path d="M228.458 68.1259C226.743 68.4114 222.684 75.3781 221.712 77.8336C221.54 78.3476 218.853 87.313 221.369 90.2824C223.884 93.309 227.486 101.932 229.487 106.043C230.402 107.985 236.176 116.094 228.915 120.491C227.086 121.576 223.998 121.233 224.97 122.775C225.942 124.374 246.41 136.194 254.928 133.796C263.39 131.455 256.586 128.542 255.786 126.43C254.986 124.26 259.331 123.803 257.501 121.347C255.672 118.892 248.925 112.953 245.095 99.876C244.695 98.5626 243.723 74.1218 242.293 70.2958C241.321 67.669 232.403 67.4406 228.458 68.1259Z" fill="#F15900"/>
<path d="M217.768 40.7156C218.511 41.0011 223.314 38.3172 229.374 41.3438C235.32 44.3132 237.321 54.4207 237.778 59.6172C237.95 61.4446 237.549 62.8151 237.549 62.8151C237.549 62.8151 235.034 62.9293 232.69 63.9001C230.346 64.8708 226.744 66.7553 223.943 67.3263C221.141 67.9545 214.052 53.5641 214.395 48.9387C214.681 44.3132 217.768 40.7156 217.768 40.7156Z" fill="#2E0A29"/>
<path d="M217.768 40.7156C217.768 40.7156 212.908 43.1711 212.908 47.3397C212.908 51.5654 218.568 62.7008 215.424 64.414C215.424 64.414 217.253 64.8137 218.511 64.2426C218.511 64.2426 219.883 65.3847 218.683 68.24C218.683 68.24 221.484 68.24 224 67.2692C224.171 67.2121 226.229 67.0408 225.772 65.3847C225.257 63.4432 222.284 59.9027 221.77 58.0754C219.712 50.3092 217.768 40.7156 217.768 40.7156Z" fill="#450F3D"/>
<path d="M217.882 41.458C217.31 41.6293 216.853 41.9148 216.453 42.2004C216.453 42.2004 212.337 46.0834 213.48 49.7381C214.623 53.3928 215.652 54.5921 216.11 57.1046C216.853 60.9877 221.77 66.9266 225.715 65.3277C225.086 63.3861 222.227 60.0169 221.77 58.1896C220.055 51.5655 218.397 43.7993 217.882 41.458Z" fill="#340B2E"/>
<path d="M229.029 59.3887L233.432 67.8401C233.432 67.8401 230.001 79.8321 223.598 78.5758C223.484 78.5758 225.713 76.4629 226.114 73.0938C226.457 70.467 225.199 67.0978 223.884 62.8149C223.198 60.645 229.029 59.3887 229.029 59.3887Z" fill="#FC7575"/>
<path d="M229.029 59.3887L231.716 64.5281C228.514 66.6981 224.798 64.8707 224.398 64.3568C223.712 62.6436 224.284 63.5002 223.941 62.8149C222.854 60.8163 229.029 59.3887 229.029 59.3887Z" fill="#FD5E5A"/>
<path d="M216.966 41.9718C216.966 41.9718 213.078 45.6836 214.164 49.167C215.25 52.7075 216.222 53.8496 216.68 56.1909C217.137 58.5321 220.339 64.1283 224.398 64.2996C228.457 64.471 230.916 56.9904 230.744 54.078C230.573 51.1657 229.486 47.3968 227.085 43.685C224.684 40.0303 219.253 40.2587 216.966 41.9718Z" fill="#FC7575"/>
<path d="M229.715 59.1603C230.459 57.2759 230.859 55.3344 230.745 54.1352C230.573 51.2229 229.487 47.454 227.086 43.7422C224.684 40.0304 219.196 40.3159 216.909 41.9719C216.909 41.9719 213.021 45.6837 214.108 49.1671C214.451 50.3663 214.851 51.28 215.137 52.0223L219.425 50.2521C219.425 50.2521 217.767 46.6545 218.281 45.3982L220.111 49.7953L223.084 48.7103C223.084 48.7103 223.427 46.369 222.741 44.7129C222.741 44.7129 223.712 47.0542 223.598 48.5389C223.598 48.5389 225.599 47.6253 226.171 48.8816C226.571 49.9095 229.029 56.3052 229.487 58.0753C229.601 58.418 229.658 58.7606 229.715 59.1603Z" fill="#FD5E5A"/>
<path d="M212.964 45.855C213.365 43.5708 215.537 41.6863 217.767 40.7155C220.74 37.9745 227.429 36.6611 233.603 42.4858C237.148 45.855 243.38 60.0169 242.122 59.9598C242.008 59.9598 237.548 62.815 237.548 62.815L237.434 60.4166C237.205 61.0448 236.119 61.6158 234.861 62.1298C235.318 59.0461 233.946 56.9332 233.946 56.9332C234.518 59.3887 234.061 61.2732 233.432 62.5866C230.63 63.4432 227.429 64.0142 227.429 64.0142C227.429 63.9571 229.887 59.2745 229.03 55.9624C228.572 54.1922 226.971 49.7381 226.571 48.7102C226.057 47.4539 223.884 48.0249 223.884 48.0249C223.998 46.5401 222.283 43.742 222.283 43.742C222.969 45.3981 223.027 48.3675 223.027 48.3675L220.111 49.5667L217.995 44.4844C217.481 45.7407 218.91 50.0235 218.91 50.0235L214.794 51.6225C214.737 51.7367 212.335 49.4525 212.964 45.855Z" fill="#464A7F"/>
<path d="M217.881 41.0012C223.026 38.7741 227.143 38.5456 230.859 42.7714C234.461 46.8258 239.892 56.0767 240.006 61.4446L237.548 62.8151C237.719 58.4181 233.889 48.4818 231.316 44.8842C228.115 40.373 225.313 38.2602 217.881 41.0012Z" fill="#3B4999"/>
<path d="M217.081 41.6292C215.481 42.8283 213.88 44.4844 213.708 46.4259C213.537 48.2533 214.566 49.9093 215.538 51.4511L215.995 51.2798C213.765 48.082 212.336 45.5123 217.081 41.6292Z" fill="#363A68"/>
<path d="M217.309 41.6863C214.221 44.6557 215.422 47.4538 217.652 50.5946L218.109 50.4233C215.651 47.3967 214.278 44.7128 217.309 41.6863Z" fill="#363A68"/>
<path d="M217.881 41.2866C220.111 43.685 220.739 46.0834 221.082 49.167L221.483 48.9957C221.025 45.9692 220.225 43.5137 217.881 41.2866Z" fill="#363A68"/>
<path d="M221.083 57.6757C221.369 56.7621 220.969 55.2203 220.512 54.3638C220.626 55.3345 220.969 56.9905 220.74 57.6757L220.683 57.847C220.74 57.847 221.598 58.3039 222.341 57.9612C222.055 57.9612 221.484 57.847 221.083 57.6757Z" fill="#450F3D"/>
<path d="M220.74 51.0515C220.74 51.0515 220.969 50.4804 221.712 50.0236C222.455 49.5667 224.456 49.8523 224.456 49.8523C224.456 49.8523 222.57 50.0236 222.112 50.252C221.655 50.4233 221.083 51.1657 221.083 51.1657L220.74 51.0515Z" fill="#5C1451"/>
<path d="M218.624 52.0794C218.624 52.0794 218.166 51.851 217.423 51.9081C216.68 51.9652 215.422 53.1643 215.422 53.1643C215.422 53.1643 216.794 52.3649 217.194 52.2507C217.594 52.1365 218.395 52.3078 218.395 52.3078L218.624 52.0794Z" fill="#5C1451"/>
<path d="M222.455 53.05C222.569 53.3355 222.855 53.5067 223.084 53.4496C223.313 53.3925 223.427 53.05 223.313 52.7644C223.198 52.4789 222.912 52.3076 222.684 52.3647C222.455 52.4789 222.341 52.7644 222.455 53.05Z" fill="#464A7F"/>
<path d="M217.424 54.9919C217.538 55.2774 217.824 55.4487 218.053 55.3916C218.281 55.3345 218.396 54.9919 218.281 54.7064C218.167 54.4209 217.881 54.2495 217.652 54.3066C217.424 54.3637 217.309 54.7064 217.424 54.9919Z" fill="#464A7F"/>
<path d="M224.857 61.0449C224.571 61.3304 224.228 61.616 223.828 61.6731C224.228 61.7873 224.743 61.4447 224.857 61.0449Z" fill="#2E0A29"/>
<path d="M224.914 57.7327C223.485 59.2174 220.912 60.3024 220.912 60.3024C220.912 60.3024 221.255 60.5879 221.713 60.8163C222.456 60.4737 223.885 59.7313 224.914 58.7606C224.971 58.1895 224.914 57.7327 224.914 57.7327Z" fill="white"/>
<path d="M224.913 58.7607C223.883 59.6744 222.454 60.4739 221.711 60.8165C223.598 61.7302 224.741 60.8736 224.913 58.7607Z" fill="#2E0A29"/>
<path d="M221.482 53.2785C221.711 52.7075 222.512 52.1935 223.083 52.1364C223.884 52.0222 224.513 52.479 225.027 52.3648C224.398 52.8217 223.884 52.0792 222.283 52.8216C221.997 52.8787 221.711 53.0501 221.482 53.2785Z" fill="#2E0A29"/>
<path d="M219.311 54.3635C218.797 54.0208 217.825 54.135 217.31 54.3635C216.567 54.7061 216.338 55.5055 215.881 55.7339C216.624 55.6768 216.681 54.8202 218.339 54.4205C218.682 54.3634 218.968 54.3064 219.311 54.3635Z" fill="#2E0A29"/>
<path d="M224.056 55.5628C224.285 56.1339 225.2 56.3051 226.114 55.9625C227.029 55.6199 227.601 54.8775 227.372 54.3064C227.144 53.7354 226.229 53.5641 225.314 53.9068C224.399 54.2494 223.828 54.9918 224.056 55.5628Z" fill="#FD5E5A"/>
<path d="M217.31 58.1325C217.481 58.5893 218.11 58.7035 218.682 58.4751C219.311 58.2467 219.654 57.7328 219.482 57.2759C219.311 56.8191 218.682 56.7049 218.11 56.9333C217.538 57.1617 217.138 57.6757 217.31 58.1325Z" fill="#FD5E5A"/>
<path d="M209.306 113.981C210.735 107.585 217.596 107.585 219.997 107.242C220.969 107.128 222.113 106.957 223.37 106.785C223.942 108.384 224.628 109.983 224.743 111.696C224.114 111.639 223.485 111.525 222.856 111.468C220.283 111.182 214.566 111.582 212.794 113.809C211.021 116.093 211.021 117.635 210.45 117.464C209.878 117.293 210.392 114.894 211.25 113.695C212.108 112.496 212.622 111.525 212.622 111.525C212.622 111.525 210.335 113.866 209.992 115.066C209.649 116.322 208.906 117.578 208.563 117.521C208.22 117.521 208.963 115.294 209.306 113.981Z" fill="#FC7575"/>
<path d="M162.253 211.744V136.537H54.9987V211.744H51.5684V132.768H166.255V211.744H162.253Z" fill="#004555"/>
<path d="M147.332 121.633H162.597C162.597 120.319 161.511 119.234 160.196 119.234H147.332V121.633Z" fill="#603E6B"/>
<path d="M175.917 69.6675H176.946L191.982 110.954L146.816 110.326L175.917 69.6675Z" fill="#A338C6"/>
<path d="M175.917 69.6675L190.153 110.326H146.359L133.553 75.435L175.917 69.6675Z" fill="#603E6B"/>
<path d="M162.252 97.3062L161.852 95.022L157.393 101.075L153.391 116.493V119.977L154.648 120.376C154.648 120.376 155.22 115.979 156.249 113.524C157.221 111.068 162.252 97.3062 162.252 97.3062Z" fill="#A338C6"/>
<path d="M161.852 95.022C161.852 95.022 152.248 118.035 154.592 120.434H148.303L156.878 95.022H161.852Z" fill="#3A0051"/>
<path d="M164.197 118.72H204.561V121.633H164.197V118.72Z" fill="#603E6B"/>
<path d="M155.107 128.143H164.198V134.139H155.107V128.143Z" fill="#004555"/>
<path d="M115.715 128.143H133.552V134.139H115.715V128.143Z" fill="#004555"/>
<path d="M83.3555 128.143H101.193V134.139H83.3555V128.143Z" fill="#004555"/>
<path d="M53.8555 128.143H66.4332V134.139H53.8555V128.143Z" fill="#004555"/>
<path d="M282.714 122.032L270.365 151.67L244.294 151.613L237.605 133.51C236.633 130.541 237.091 127.286 238.92 124.716C240.75 122.147 243.723 120.719 246.81 120.548L279.912 118.835C281.685 118.777 283.057 120.319 282.714 122.032ZM277.797 123.974L246.753 125.573C245.209 125.63 243.837 126.429 242.98 127.686C242.122 128.942 241.893 130.484 242.351 131.969L248.64 147.558H267.678L277.797 123.974Z" fill="#1E1E1E"/>
<path d="M0 120.776H217.71V128.657H0V120.776Z" fill="#1C0F00"/>
<path d="M0 120.319H217.71V122.889H0V120.319Z" fill="#00C9F7"/>
<path d="M229.544 104.787C241.264 103.359 244.009 105.758 244.009 101.132C244.009 94.9077 235.147 77.3766 237.663 71.1522C238.006 70.2956 239.892 67.8401 241.893 69.6104C248.811 75.7777 256.929 103.416 251.555 110.897C248.297 115.408 234.861 112.896 224.742 111.754C224.627 110.04 222.626 107.071 222.055 105.472C223.713 105.244 227.086 105.072 229.544 104.787Z" fill="#F47A33"/>
</g>
<defs>
<linearGradient id="paint0_linear_398_4278" x1="93.1787" y1="163.161" x2="98.6528" y2="120.536" gradientUnits="userSpaceOnUse">
<stop stop-color="#F20000"/>
<stop offset="1" stop-color="#FFA630"/>
</linearGradient>
<clipPath id="clip0_398_4278">
<rect width="283" height="213" fill="white"/>
</clipPath>
</defs>
</svg>
