<svg width="157" height="53" viewBox="0 0 157 53" fill="none" xmlns="http://www.w3.org/2000/svg">
<path fill-rule="evenodd" clip-rule="evenodd" d="M51.3205 12.0162C56.54 10.8773 58.0532 19.7401 52.9791 20.9133C47.4609 22.1849 45.8651 13.2065 51.3205 12.0162ZM89.3427 43.0233C89.1265 43.6227 89.0007 47.1678 89.4095 47.4847C89.775 47.7715 93.5481 47.8144 93.7604 47.3391C93.7722 47.3091 93.8115 47.2578 93.8233 47.2192L93.9569 46.4699C93.9765 45.9048 93.9962 43.2759 93.7879 43.0533C93.0608 42.7064 90.2427 42.7321 89.3427 43.0233ZM63.5556 1.71901C63.5556 5.67518 62.7735 5.59383 67.2777 5.37547L68.2288 5.28556C68.39 3.69282 68.3232 3.33745 68.3192 1.71901C68.3153 0.280408 68.1188 0.640059 64.5264 0.640059C63.5556 0.640059 63.5556 0.674312 63.5556 1.71901ZM86.784 1.71901C86.784 5.67518 86.0019 5.59383 90.5061 5.37547L91.4572 5.28556C91.6183 3.69282 91.5515 3.33745 91.5476 1.71901C91.5437 0.280408 91.3471 0.640059 87.7548 0.640059C86.784 0.640059 86.784 0.674312 86.784 1.71901ZM151.423 1.71901C151.423 5.67518 150.64 5.59383 155.145 5.37547L156.096 5.28556C156.257 3.69282 156.19 3.33745 156.186 1.71901C156.182 0.280408 155.986 0.640059 152.393 0.640059C151.423 0.640059 151.423 0.674312 151.423 1.71901ZM68.0205 25.3661C68.0244 25.3276 68.0755 25.2933 68.0873 25.2719L68.2838 8.53099C68.2878 7.44347 68.3153 7.32787 67.2777 7.32787C64.0902 7.32787 63.5871 6.95965 63.5871 8.37685V24.3557C63.5871 25.2462 63.6932 25.5202 64.5304 25.5202C65.8588 25.5245 66.7589 25.6187 68.0244 25.3618L68.0205 25.3661ZM156.013 25.1734C156.41 24.3 155.864 25.8713 156.104 24.9508L156.139 11.04C156.139 7.55907 156.477 7.32787 155.141 7.32787C151.953 7.32787 151.446 6.95965 151.446 8.37685V24.3557C151.446 25.2462 151.552 25.5202 152.389 25.5202C153.718 25.5245 154.618 25.6187 155.883 25.3618L156.013 25.1692V25.1734ZM91.3747 25.1734C91.7716 24.3 91.2253 25.8713 91.4651 24.9508C91.5122 24.7667 91.5083 24.5612 91.5122 24.3685C91.5201 23.9917 91.5004 23.5764 91.5004 23.1911V11.04C91.5004 7.55907 91.8384 7.32787 90.5021 7.32787C87.3146 7.32787 86.8115 6.95965 86.8115 8.37685V24.3557C86.8115 25.2462 86.9176 25.5202 87.7548 25.5202C89.0793 25.5245 89.9833 25.6187 91.2489 25.3618L91.3786 25.1692L91.3747 25.1734ZM87.5426 47.6303C87.7784 45.2369 87.6172 32.4307 87.6172 29.0268C87.6172 28.3461 87.4522 28.1748 86.6897 28.1748C83.5179 28.1748 82.9676 27.8623 82.9676 29.0268V46.7354C82.9676 47.5532 83.0266 47.703 83.9384 47.703L87.5426 47.6303ZM82.6453 12.4572C83.1052 11.9605 84.5241 9.20747 84.5162 8.37685C83.5022 7.44775 81.8318 6.84405 80.1417 7.10094C78.4084 7.3664 77.5791 8.39826 76.7498 9.40443C75.9873 8.37257 76.5297 7.32787 74.9065 7.32787C72.2771 7.32787 72.112 7.05813 72.112 8.37685V24.3557C72.112 25.3404 72.171 25.5202 73.0828 25.5202C77.642 25.5202 76.8048 26.3337 76.8048 21.0246C76.8048 17.8477 76.1839 13.7202 78.7661 12.2303C80.7549 11.0828 81.3916 12.4486 82.6453 12.4529V12.4572ZM126.414 12.8511C126.783 12.53 128.552 10.1665 128.54 9.18606C125.966 7.16517 122.303 6.06909 118.757 8.03004C112.253 11.6223 112.811 22.1078 118.993 25.1092C122.051 26.5949 126.653 25.9869 128.564 23.6877C128.505 22.87 126.614 20.2111 126.414 20.164C125.883 20.0356 123.922 22.1806 121.285 20.9475C116.867 18.8838 118.588 10.3507 124.154 11.8321C125.16 12.1018 125.667 12.7269 126.418 12.8468L126.414 12.8511ZM124.221 37.6071C125.305 36.0786 127.707 33.3469 127.707 31.9897C127.707 29.425 127.907 29.4464 126.712 29.4464H115.244C114.3 29.4464 114.21 29.4807 114.21 30.4954C114.202 32.1952 114.084 32.3836 114.34 33.9763C115.731 34.3531 119.394 34.002 121.186 34.1219C120.927 34.7513 116.313 41.0366 115.578 42.0086C114.67 43.2117 114.072 43.7469 114.072 44.9757C114.072 47.5703 113.852 47.6388 115.09 47.6388C117.873 47.6431 125.761 47.8443 127.978 47.5275C128.084 45.9347 128.135 44.7059 127.95 43.1132C126.701 42.7878 122.055 42.9976 120.377 42.9976L124.221 37.6114V37.6071ZM95.5919 25.3319C96.1029 25.7343 97.4077 25.516 98.1466 25.5202C99.1803 25.5288 99.931 25.8371 100.037 24.7067C100.316 21.761 99.5262 15.7283 100.45 13.8872C100.984 12.8168 102.163 11.8235 103.653 11.725C109.065 11.3654 106.337 21.4356 107.072 24.9808C107.241 25.79 108.256 25.5245 109.144 25.5202C109.973 25.516 110.924 25.5759 111.659 25.4303C111.958 23.752 111.746 19.0936 111.746 17.0342C111.746 14.3582 111.675 12.0504 110.472 10.098C108.688 7.20798 105.316 6.25319 102.254 7.6918C100.627 8.45392 100.65 8.7836 99.7817 9.28882C99.6441 8.63803 99.3454 7.88875 99.027 7.42634C98.1152 7.22083 96.2286 7.07954 95.5251 7.51625C95.0653 8.00007 95.3561 20.7677 95.3404 23.358C95.3364 23.9275 95.2657 24.4927 95.4072 24.985C95.5212 25.3961 95.3836 25.0964 95.5919 25.3361V25.3319ZM99.7974 29.4122C99.3336 29.1125 95.9063 28.9926 95.4544 29.3351C95.022 29.6648 95.2264 33.1286 95.2264 33.9035C95.2264 38.7117 94.3028 46.2773 100.576 47.5446C103.677 48.174 105.378 46.6797 107.112 45.4295C107.234 45.7164 107.383 46.1017 107.521 46.4571C107.784 47.1336 107.642 46.9795 108.031 47.2706C108.586 47.4847 110.908 47.5232 111.384 47.2235C111.777 46.8724 111.643 45.8491 111.64 45.2197C111.628 42.6808 111.899 29.7932 111.455 29.348C110.861 29.0568 107.627 29.0183 107.131 29.4079C106.664 30.17 106.943 36.5881 106.947 38.0609C106.951 39.5338 106.876 40.5143 106.137 41.4691C104.592 43.46 101.837 43.5414 100.564 41.5547C99.1921 39.4096 100.481 31.2533 99.7974 29.4036V29.4122ZM71.1098 33.7494C73.578 33.1885 75.5196 35.0467 75.9402 37.2004C76.4865 40.0176 74.8122 42.2183 72.7959 42.6936C67.3288 43.9781 65.4383 35.0339 71.1098 33.7494ZM63.139 40.0861C63.9801 44.6931 68.0873 48.5551 73.4208 47.5318C77.7324 46.7054 81.5999 42.3254 80.5741 36.4725C79.7565 31.7927 75.5864 27.8451 70.2412 28.9155C65.9139 29.7804 62.0739 34.2418 63.139 40.0861ZM136.114 25.4303C136.416 23.7562 136.204 18.7768 136.2 16.6959C136.192 14.1013 136.998 11.8835 139.71 11.7208C145.228 11.3911 142.556 21.0631 143.314 25.4175C144.155 25.6102 147.024 25.623 147.83 25.3961C148.125 23.6663 147.917 19.2734 147.917 17.1969C147.917 14.4139 147.952 12.3073 146.73 10.2094C145.834 8.668 144.328 7.34499 141.986 7.08382C139.262 6.77982 137.871 8.00435 136.2 9.09615C136.2 1.53919 136.951 2.01872 133.897 2.02301C131.633 2.02301 131.535 1.80893 131.543 3.54296L131.551 19.6973C131.551 20.3909 131.299 24.8566 131.802 25.3361C132.333 25.7557 135.367 25.5759 136.114 25.4346V25.4303ZM51.6585 33.4069C57.0313 32.5334 58.1357 41.5333 52.8336 42.4025C47.3154 43.3059 46.38 34.2675 51.6585 33.4069ZM56.5635 30.1957C55.8718 29.7718 55.5299 29.3651 54.6888 28.984C50.2514 26.9888 43.7467 30.641 43.4755 37.4615C43.1964 44.4876 50.0981 49.938 55.9936 46.0461C56.1233 47.2149 55.9583 51.0855 56.0605 51.6035C56.1784 52.1944 55.9976 51.7577 56.2688 52.0916C56.6893 52.4342 60.034 52.4299 60.486 52.113C60.7651 51.8433 60.7336 51.3424 60.7297 50.79C60.7101 47.185 60.9577 29.3822 60.5371 28.9412C59.8061 28.5173 58.0728 28.6929 57.1334 28.8342C56.8898 29.2067 56.6972 29.622 56.5635 30.2V30.1957ZM47.8696 24.2529C50.0706 26.3551 53.8202 26.338 56.6068 24.5483C63.8032 19.9328 61.2131 7.55051 52.6135 7.04528C50.2946 6.90827 49.8426 7.52054 48.243 8.29978C48.1998 6.94252 48.5063 3.05914 48.0583 2.17714C47.4923 1.83462 44.2812 1.83462 43.7152 2.17714C43.2986 2.63099 43.5423 17.0556 43.5423 19.693C43.5423 20.3866 43.2908 24.8523 43.7938 25.3319C44.3441 25.7643 46.4665 25.6358 47.1464 25.4218C47.6967 24.9123 47.4491 24.7153 47.8775 24.2572L47.8696 24.2529Z" fill="white"/>
<path fill-rule="evenodd" clip-rule="evenodd" d="M16.5107 16.9412C18.2813 16.4269 20.1674 16.5758 21.7634 17.6857C22.5584 18.2407 23.1974 18.9852 23.6619 19.8684C26.3304 20.173 28.366 21.1509 29.4353 23.9428C33.2354 24.7888 35.296 28.6465 34.2423 32.8089C33.4754 35.8409 31.4086 38.2977 31.2434 38.7106C30.8973 39.8713 30.5357 40.9779 30.012 42.0641C27.9358 46.3753 24.2043 49.3397 19.84 50.3651C16.6011 51.1265 13.1408 50.7576 10.1263 49.2551C6.75018 47.5699 4.20952 44.6529 2.6446 41.0151C1.98372 39.4787 0.958101 35.2961 0.824054 33.5906C0.471791 29.0628 3.59852 27.0933 3.66086 26.9647C4.49632 25.1745 2.79112 8.81962 4.29057 5.14797C6.36674 0.065191 13.5648 -0.37473 15.8623 5.00246C16.8442 7.3002 16.5138 14.1697 16.5169 16.9446L16.5107 16.9412ZM14.4813 25.3573C17.2807 25.4182 17.8543 26.6195 19.1604 28.0848C19.5501 27.6787 20.6412 24.9884 20.769 24.6094C21.9037 21.3032 17.9322 19.107 16.0961 21.6518C15.6815 22.2271 14.7369 24.5688 14.4781 25.3573H14.4813ZM7.36118 26.9681C8.28393 26.8327 9.09444 26.5823 9.96731 26.3589C11.2049 26.0408 11.6008 26.2743 12.0622 25.161C13.2125 22.3895 12.8633 22.6433 12.8633 19.0055C12.8633 16.6942 12.8633 14.3829 12.8633 12.0717C12.8633 9.93634 13.2187 7.18853 12.0372 5.93983C10.7061 4.53547 8.60502 5.04984 7.7945 6.46435C7.09309 7.68598 7.36742 11.317 7.36742 13.0327C7.36742 17.679 7.37365 22.3252 7.36742 26.9681H7.36118ZM10.9555 37.648C10.7186 37.5059 10.5534 37.2656 10.4973 36.8764C10.1169 34.2877 15.9558 35.7529 17.343 32.6363C18.1722 30.7717 17.2869 28.9951 16.2706 28.3047C14.7992 27.3065 13.2405 27.9968 11.6756 28.4029C8.23405 29.2963 4.92963 29.3842 4.48385 32.3554C4.14717 34.599 6.09241 39.9525 7.04633 41.4042C8.44603 43.5328 10.3694 45.3398 13.3559 46.3043C17.8044 47.7425 22.7018 45.949 25.3983 42.3348C26.0218 41.499 27.0973 39.9931 27.3124 38.714C25.3547 38.741 23.6245 37.7563 23.1008 36.5008L22.9325 36.5245C22.1251 38.5481 20.5134 40.2368 18.0288 40.8087C14.6839 41.5768 12.2368 40.0066 10.9586 37.648H10.9555ZM19.6686 33.462C20.8937 34.0846 21.8289 34.9002 23.3627 33.5906C24.0173 33.0322 26.6265 27.7362 26.2369 25.9765C25.9251 24.5586 24.7998 23.7871 23.1912 23.7736C22.9948 25.5366 22.15 27.1982 21.5047 28.677C20.4479 31.0965 19.5969 31.9189 19.6717 33.462H19.6686ZM25.0055 35.4382C29.4509 38.7715 31.0189 31.0796 30.8132 30.0441C30.5794 28.8597 29.7626 27.9934 28.5593 27.8208L26.0997 33.6785C25.6882 34.5618 25.3173 34.7445 25.0024 35.4382H25.0055Z" fill="white"/>
</svg>
