<svg width="118" height="40" viewBox="0 0 118 40" fill="none" xmlns="http://www.w3.org/2000/svg">
<path d="M4.7935 0H113.207C115.851 0 118 2.152 118 4.8V35.2C118 37.848 115.851 40 113.207 40H4.7935C2.14909 40 0 37.848 0 35.2V4.8C0 2.152 2.14909 0 4.7935 0Z" fill="white"/>
<g clip-path="url(#clip0_267_6671)">
<path fill-rule="evenodd" clip-rule="evenodd" d="M11.6866 9.15486C11.4329 9.42334 11.2871 9.83658 11.2871 10.3735V29.4734C11.2871 30.0104 11.4329 30.4236 11.696 30.6828L11.7648 30.74L22.6316 20.0379V19.7974L11.7553 9.09766L11.6866 9.15486Z" fill="url(#paint0_linear_267_6671)"/>
<path fill-rule="evenodd" clip-rule="evenodd" d="M26.2467 23.6191L22.6221 20.0482V19.7984L26.2479 16.2275L26.3261 16.2754L30.6145 18.6754C31.8425 19.3572 31.8425 20.4801 30.6145 21.1712L26.3261 23.5712C26.3249 23.5712 26.2467 23.6191 26.2467 23.6191Z" fill="url(#paint1_linear_267_6671)"/>
<path fill-rule="evenodd" clip-rule="evenodd" d="M26.3249 23.5712L22.6221 19.9233L11.6865 30.6931C12.086 31.1157 12.758 31.1636 13.5095 30.7503L26.3249 23.5712Z" fill="url(#paint2_linear_267_6671)"/>
<path fill-rule="evenodd" clip-rule="evenodd" d="M26.3254 16.2767L13.51 9.10692C12.7597 8.68434 12.0865 8.74154 11.687 9.16412L22.6214 19.9234L26.3254 16.2767Z" fill="url(#paint3_linear_267_6671)"/>
<path opacity="0.2" fill-rule="evenodd" clip-rule="evenodd" d="M26.2465 23.4941L13.5188 30.616C12.8076 31.0188 12.1735 30.9908 11.7645 30.6254L11.6958 30.6931L11.7645 30.7503C12.1735 31.1145 12.8076 31.1437 13.5188 30.7409L26.3342 23.5712L26.2465 23.4941Z" fill="black"/>
<path opacity="0.12" fill-rule="evenodd" clip-rule="evenodd" d="M30.6134 21.0463L26.2373 23.4942L26.3155 23.5712L30.6039 21.1712C31.2179 20.8257 31.5202 20.3751 31.5202 19.9233C31.481 20.3366 31.1693 20.73 30.6134 21.0463Z" fill="black"/>
<path opacity="0.25" fill-rule="evenodd" clip-rule="evenodd" d="M13.5095 9.23177L30.6133 18.8016C31.1692 19.1086 31.481 19.5113 31.5296 19.9245C31.5296 19.4739 31.2273 19.0222 30.6133 18.6767L13.5095 9.10687C12.2816 8.41581 11.2871 8.9913 11.2871 10.3734V10.4983C11.2871 9.11621 12.2816 8.55005 13.5095 9.23177Z" fill="white"/>
<path fill-rule="evenodd" clip-rule="evenodd" d="M35.704 19.3175C35.704 16.2579 38.3152 13.7668 41.4219 13.7668C43.1394 13.7668 44.3614 14.4311 45.2836 15.2961L44.1979 16.3653C43.5388 15.756 42.6451 15.2832 41.4207 15.2832C39.1521 15.2832 37.3789 17.0821 37.3789 19.3163C37.3789 21.5506 39.1521 23.3518 41.4195 23.3518C42.8905 23.3518 43.7273 22.7705 44.2642 22.2405C44.704 21.8074 44.992 21.1852 45.1034 20.3319H41.4219V18.8191H46.604C46.6585 19.0899 46.687 19.4144 46.687 19.7658C46.687 20.9016 46.3705 22.3105 45.3523 23.3133C44.3614 24.3289 43.0979 24.8705 41.4207 24.8705C38.3129 24.8705 35.7017 22.3818 35.7017 19.3198L35.704 19.3175ZM50.8758 17.7206C48.8691 17.7206 47.231 19.2241 47.231 21.2938C47.231 23.353 48.8679 24.867 50.8758 24.867C52.8837 24.867 54.5182 23.3506 54.5182 21.2926C54.5182 19.223 52.8825 17.7194 50.8758 17.7206ZM50.8758 23.4615C49.777 23.4615 48.8276 22.5685 48.8276 21.295C48.8276 20.0086 49.7759 19.1284 50.8758 19.1284C51.9746 19.1284 52.9228 20.0074 52.9228 21.295C52.9228 22.5674 51.9758 23.4615 50.8758 23.4615ZM58.8232 17.7206C56.8165 17.7206 55.1808 19.2241 55.1808 21.2938C55.1808 23.353 56.8165 24.867 58.8232 24.867C60.8299 24.867 62.4656 23.3506 62.4656 21.2926C62.4656 19.223 60.8311 17.7194 58.8232 17.7206ZM58.8232 23.4615C57.7244 23.4615 56.775 22.5685 56.775 21.295C56.775 20.0086 57.7233 19.1284 58.8232 19.1284C59.922 19.1284 60.8714 20.0074 60.8714 21.295C60.8714 22.5674 59.922 23.4615 58.8232 23.4615ZM68.577 17.9377V18.5191H68.5225C68.1657 18.0976 67.4782 17.7194 66.613 17.7194C64.7983 17.7194 63.1329 19.2907 63.1329 21.309C63.1329 23.311 64.7971 24.8693 66.613 24.8693C67.4782 24.8693 68.1657 24.4911 68.5225 24.058H68.577V24.5717C68.577 25.9386 67.835 26.6705 66.639 26.6705C65.6624 26.6705 65.0579 25.9795 64.8101 25.3993L63.421 25.9678C63.8192 26.9145 64.8789 28.0795 66.6379 28.0795C68.5059 28.0795 70.0871 26.995 70.0871 24.3557V17.9366L68.577 17.9377ZM66.7493 23.4615C65.6505 23.4615 64.7272 22.5534 64.7272 21.309C64.7272 20.0506 65.6493 19.1296 66.7493 19.1296C67.835 19.1296 68.6872 20.0494 68.6872 21.309C68.6884 22.5534 67.8362 23.4615 66.7493 23.4615ZM71.1882 14.1462H72.7836V24.6522H71.1882V14.1462ZM77.1562 23.4615C76.3454 23.4615 75.767 23.095 75.3984 22.3794L80.251 20.4008L80.0839 19.9946C79.7828 19.1973 78.8606 17.7206 76.9772 17.7206C75.108 17.7206 73.5541 19.1693 73.5541 21.295C73.5541 23.2969 75.0938 24.8682 77.1562 24.8682C78.8203 24.8682 79.7828 23.8678 80.181 23.2841L78.9436 22.4728C78.5299 23.0693 77.9657 23.4627 77.1562 23.4615ZM77.0317 19.1016C77.6635 19.1016 78.1992 19.4132 78.3782 19.8592L75.1329 21.1864C75.0926 19.8055 76.2198 19.1016 77.0317 19.1016ZM87.2513 14.1462H83.437V24.6522H85.0289V20.6728H87.2525C89.0174 20.6728 90.7527 19.4144 90.7527 17.4089C90.7527 15.4069 89.0186 14.1474 87.2549 14.1474L87.2513 14.1462ZM87.2928 19.2101H85.0289V15.6077H87.2928C88.4828 15.6077 89.1608 16.5801 89.1608 17.4089C89.1608 18.2237 88.4828 19.2101 87.2928 19.2101ZM93.2217 24.6522V14.1462H91.6298V24.6522H93.2217ZM100.373 24.6335V20.6062C100.373 18.7408 98.9573 17.7008 97.1308 17.7008C95.9798 17.7008 94.7862 18.2015 94.292 19.3093L95.7048 19.8895C96.0071 19.3093 96.5689 19.1191 97.1604 19.1191C97.983 19.1191 98.8198 19.6058 98.8328 20.472V20.5806C98.5448 20.4183 97.9285 20.1743 97.1722 20.1743C95.6491 20.1743 94.0988 20.9985 94.0988 22.5393C94.0988 23.946 95.3481 24.8507 96.7479 24.8507C97.8194 24.8507 98.4085 24.3779 98.7783 23.8246H98.8328V24.6359H100.371L100.373 24.6335ZM96.9411 23.4592C96.4196 23.4592 95.6918 23.2024 95.6918 22.5685C95.6918 21.7572 96.5986 21.4444 97.3809 21.4444C98.0814 21.4444 98.4097 21.5926 98.8364 21.7958C98.7143 22.739 97.9048 23.4475 96.9411 23.4592ZM105.971 17.9307L104.145 22.4845H104.091L102.197 17.9307H100.482L103.322 24.2973L101.701 27.8379H103.362L107.739 17.9307H105.971Z" fill="#333333"/>
</g>
<defs>
<linearGradient id="paint0_linear_267_6671" x1="21.6558" y1="10.1682" x2="4.28478" y2="14.868" gradientUnits="userSpaceOnUse">
<stop stop-color="#00A0FF"/>
<stop offset="0.007" stop-color="#00A1FF"/>
<stop offset="0.26" stop-color="#00BEFF"/>
<stop offset="0.512" stop-color="#00D2FF"/>
<stop offset="0.76" stop-color="#00DFFF"/>
<stop offset="1" stop-color="#00E3FF"/>
</linearGradient>
<linearGradient id="paint1_linear_267_6671" x1="32.2124" y1="19.9238" x2="10.9887" y2="19.9238" gradientUnits="userSpaceOnUse">
<stop stop-color="#FFE000"/>
<stop offset="0.409" stop-color="#FFBD00"/>
<stop offset="0.775" stop-color="#FFA500"/>
<stop offset="1" stop-color="#FF9C00"/>
</linearGradient>
<linearGradient id="paint2_linear_267_6671" x1="24.3114" y1="21.9078" x2="10.6504" y2="45.254" gradientUnits="userSpaceOnUse">
<stop stop-color="#FF3A44"/>
<stop offset="1" stop-color="#C31162"/>
</linearGradient>
<linearGradient id="paint3_linear_267_6671" x1="8.93427" y1="2.80122" x2="15.0288" y2="13.2279" gradientUnits="userSpaceOnUse">
<stop stop-color="#32A071"/>
<stop offset="0.069" stop-color="#2DA771"/>
<stop offset="0.476" stop-color="#15CF74"/>
<stop offset="0.801" stop-color="#06E775"/>
<stop offset="1" stop-color="#00F076"/>
</linearGradient>
<clipPath id="clip0_267_6671">
<rect width="96.4522" height="23.1397" fill="white" transform="translate(11.2871 8.21997)"/>
</clipPath>
</defs>
</svg>
