<svg width="14" height="14" viewBox="0 0 14 14" fill="none" xmlns="http://www.w3.org/2000/svg">
<path d="M6.99998 0.0432129C5.11012 0.0432129 4.87418 0.0519084 4.13215 0.0849513C3.39128 0.119733 2.88693 0.236253 2.44346 0.408424C1.98607 0.585813 1.59766 0.82407 1.21099 1.21073C0.824326 1.59739 0.585486 1.98521 0.408674 2.44317C0.2365 2.88664 0.119399 3.39098 0.0851962 4.13184C0.0504136 4.87386 0.043457 5.1098 0.043457 6.99962C0.043457 8.88945 0.0521527 9.12538 0.0851962 9.8674C0.119979 10.6077 0.2365 11.1126 0.408674 11.5561C0.586066 12.0129 0.824326 12.4019 1.21099 12.7885C1.59766 13.1746 1.98549 13.414 2.44346 13.5908C2.88751 13.7624 3.39186 13.8801 4.13215 13.9143C4.87418 13.9491 5.11012 13.956 6.99998 13.956C8.88983 13.956 9.12578 13.9473 9.8678 13.9143C10.6081 13.8795 11.113 13.7624 11.5565 13.5908C12.0133 13.4134 12.4023 13.1746 12.789 12.7885C13.175 12.4019 13.4145 12.0146 13.5913 11.5561C13.7629 11.1126 13.8806 10.6077 13.9148 9.8674C13.9495 9.12538 13.9565 8.88945 13.9565 6.99962C13.9565 5.1098 13.9478 4.87386 13.9148 4.13184C13.88 3.39156 13.7629 2.88607 13.5913 2.44317C13.4139 1.98579 13.175 1.59739 12.789 1.21073C12.4023 0.82407 12.015 0.585233 11.5565 0.408424C11.113 0.236253 10.6081 0.119154 9.8678 0.0849513C9.12578 0.0501693 8.88983 0.0432129 6.99998 0.0432129ZM6.99998 1.29537C8.85679 1.29537 9.07824 1.30464 9.81157 1.33653C10.4898 1.36841 10.8579 1.48087 11.1026 1.5771C11.4284 1.7029 11.6591 1.85362 11.9037 2.09651C12.1466 2.33999 12.2974 2.57129 12.4232 2.89708C12.5182 3.14171 12.6319 3.50982 12.6626 4.18807C12.6956 4.92197 12.7032 5.14226 12.7032 6.99962C12.7032 8.85698 12.6945 9.07785 12.6603 9.81117C12.6249 10.4894 12.5119 10.8575 12.4162 11.1022C12.2864 11.428 12.1385 11.6587 11.8951 11.9033C11.6522 12.1462 11.4174 12.2969 11.095 12.4227C10.8516 12.5178 10.4777 12.6314 9.7994 12.6621C9.06085 12.6952 8.84346 12.7027 6.98259 12.7027C5.12114 12.7027 4.90375 12.694 4.16578 12.6598C3.48693 12.6245 3.11302 12.5114 2.86954 12.4158C2.53969 12.2859 2.31302 12.1381 2.07012 11.8946C1.82607 11.6517 1.67012 11.4169 1.54838 11.0946C1.45273 10.8512 1.34027 10.4772 1.30491 9.799C1.27882 9.06857 1.26954 8.84307 1.26954 6.99093C1.26954 5.1382 1.27882 4.91212 1.30491 4.173C1.34027 3.49475 1.45273 3.12142 1.54838 2.87795C1.67012 2.54752 1.82607 2.32144 2.07012 2.07738C2.31302 1.83449 2.53969 1.67797 2.86954 1.55681C3.11302 1.46058 3.47882 1.34754 4.15708 1.31276C4.89621 1.28667 5.1136 1.27798 6.97389 1.27798L6.99998 1.29537ZM6.99998 3.42751C5.02606 3.42751 3.4278 5.02748 3.4278 6.99962C3.4278 8.9735 5.0278 10.5717 6.99998 10.5717C8.97389 10.5717 10.5722 8.97176 10.5722 6.99962C10.5722 5.02574 8.97215 3.42751 6.99998 3.42751ZM6.99998 9.31842C5.71882 9.31842 4.68114 8.28076 4.68114 6.99962C4.68114 5.71848 5.71882 4.68082 6.99998 4.68082C8.28114 4.68082 9.31882 5.71848 9.31882 6.99962C9.31882 8.28076 8.28114 9.31842 6.99998 9.31842ZM11.5484 3.28664C11.5484 3.7475 11.1739 4.12141 10.7136 4.12141C10.2527 4.12141 9.87882 3.74692 9.87882 3.28664C9.87882 2.82636 10.2533 2.45245 10.7136 2.45245C11.1733 2.45187 11.5484 2.82636 11.5484 3.28664Z" fill="white"/>
</svg>
