<svg width="16" height="15" viewBox="0 0 16 15" fill="none" xmlns="http://www.w3.org/2000/svg">
<path d="M2.42638 6.65625C1.60787 6.65625 0.941406 7.29547 0.941406 8.08052V12.6382C0.941406 13.4233 1.60787 14.0625 2.42638 14.0625H4.20835C4.54278 14.0625 4.85045 13.9543 5.09934 13.7742V6.65625H2.42638Z" fill="#333333"/>
<path d="M15.0592 8.78906C15.0592 8.44588 14.9197 8.1261 14.6776 7.89026C14.9514 7.59848 15.0909 7.20731 15.0528 6.80019C14.9842 6.07441 14.3129 5.50567 13.5239 5.50567H9.90282C10.0822 4.97518 10.3694 4.00274 10.3694 3.22158C10.3694 1.98303 9.28904 0.9375 8.61077 0.9375C8.0017 0.9375 7.56671 1.27155 7.54797 1.28525C7.4788 1.33951 7.43835 1.42174 7.43835 1.50851V3.44484L5.75003 7.00747L5.67969 7.04229V13.1625C6.15686 13.3818 6.76066 13.5 7.14523 13.5H12.5262C13.1646 13.5 13.7232 13.0809 13.8545 12.5024C13.9219 12.2049 13.8827 11.9051 13.7484 11.6447C14.1816 11.4323 14.473 10.9978 14.473 10.5021C14.473 10.3 14.4255 10.1064 14.3353 9.93111C14.7685 9.71869 15.0592 9.28414 15.0592 8.78906Z" fill="#333333"/>
</svg>
