<svg width="106" height="36" viewBox="0 0 106 36" fill="none" xmlns="http://www.w3.org/2000/svg">
<path fill-rule="evenodd" clip-rule="evenodd" d="M34.4615 8.3026C38.0216 7.52752 39.0537 13.5592 35.5928 14.3576C31.8289 15.223 30.7405 9.11265 34.4615 8.3026ZM60.3957 29.4047C60.2483 29.8126 60.1625 32.2253 60.4413 32.4409C60.6906 32.6361 63.2642 32.6653 63.4089 32.3418C63.417 32.3214 63.4438 32.2865 63.4518 32.2602L63.543 31.7503C63.5564 31.3657 63.5698 29.5766 63.4277 29.4251C62.9318 29.189 61.0096 29.2065 60.3957 29.4047ZM42.8069 1.29481C42.8069 3.9872 42.2734 3.93184 45.3456 3.78323L45.9944 3.72204C46.1043 2.63809 46.0587 2.39624 46.056 1.29481C46.0533 0.315758 45.9193 0.560521 43.469 0.560521C42.8069 0.560521 42.8069 0.583832 42.8069 1.29481ZM58.6505 1.29481C58.6505 3.9872 58.117 3.93184 61.1892 3.78323L61.838 3.72204C61.9479 2.63809 61.9023 2.39624 61.8996 1.29481C61.897 0.315758 61.7629 0.560521 59.3127 0.560521C58.6505 0.560521 58.6505 0.583832 58.6505 1.29481ZM102.739 1.29481C102.739 3.9872 102.206 3.93184 105.278 3.78323L105.927 3.72204C106.037 2.63809 105.991 2.39624 105.988 1.29481C105.986 0.315758 105.852 0.560521 103.401 0.560521C102.739 0.560521 102.739 0.583832 102.739 1.29481ZM45.8523 17.388C45.8549 17.3617 45.8898 17.3384 45.8978 17.3239L46.0319 5.93074C46.0346 5.19062 46.0533 5.11195 45.3456 5.11195C43.1715 5.11195 42.8283 4.86135 42.8283 5.82584V16.7003C42.8283 17.3064 42.9007 17.4929 43.4717 17.4929C44.3778 17.4958 44.9917 17.5599 45.855 17.3851L45.8523 17.388ZM105.87 17.2568C106.141 16.6624 105.769 17.7318 105.932 17.1053L105.956 7.63825C105.956 5.26929 106.187 5.11195 105.275 5.11195C103.101 5.11195 102.755 4.86135 102.755 5.82584V16.7003C102.755 17.3064 102.828 17.4929 103.399 17.4929C104.305 17.4958 104.919 17.5599 105.782 17.3851L105.87 17.2539V17.2568ZM61.7817 17.2568C62.0524 16.6624 61.6798 17.7318 61.8433 17.1053C61.8755 16.98 61.8728 16.8402 61.8755 16.709C61.8809 16.4526 61.8675 16.17 61.8675 15.9077V7.63825C61.8675 5.26929 62.098 5.11195 61.1865 5.11195C59.0124 5.11195 58.6693 4.86135 58.6693 5.82584V16.7003C58.6693 17.3064 58.7416 17.4929 59.3127 17.4929C60.2161 17.4958 60.8327 17.5599 61.6959 17.3851L61.7844 17.2539L61.7817 17.2568ZM59.1679 32.54C59.3287 30.9111 59.2188 22.1958 59.2188 19.8793C59.2188 19.416 59.1062 19.2994 58.5861 19.2994C56.4227 19.2994 56.0474 19.0867 56.0474 19.8793V31.931C56.0474 32.4875 56.0876 32.5895 56.7096 32.5895L59.1679 32.54ZM55.8276 8.60273C56.1412 8.26472 57.109 6.39112 57.1037 5.82584C56.412 5.19353 55.2727 4.78268 54.1199 4.95751C52.9377 5.13817 52.372 5.84041 51.8064 6.52516C51.2863 5.82292 51.6562 5.11195 50.5491 5.11195C48.7556 5.11195 48.643 4.92837 48.643 5.82584V16.7003C48.643 17.3705 48.6832 17.4929 49.3052 17.4929C52.4149 17.4929 51.8439 18.0465 51.8439 14.4333C51.8439 12.2713 51.4203 9.46231 53.1816 8.4483C54.5381 7.66739 54.9724 8.5969 55.8276 8.59982V8.60273ZM85.6812 8.8708C85.9332 8.65227 87.1395 7.04382 87.1315 6.37655C85.3755 5.00122 82.877 4.25528 80.4589 5.58982C76.0222 8.03453 76.4029 15.1705 80.6198 17.2131C82.7055 18.2242 85.8447 17.8105 87.1476 16.2457C87.1074 15.6892 85.8179 13.8797 85.6812 13.8476C85.3192 13.7602 83.9815 15.2201 82.1827 14.3809C79.1695 12.9764 80.3437 7.16912 84.1397 8.17731C84.826 8.36088 85.1718 8.7863 85.6838 8.86789L85.6812 8.8708ZM84.1853 25.7187C84.9252 24.6784 86.5631 22.8194 86.5631 21.8957C86.5631 20.1503 86.6999 20.1649 85.8849 20.1649H78.0623C77.4189 20.1649 77.3572 20.1882 77.3572 20.8788C77.3519 22.0356 77.2714 22.1638 77.4457 23.2477C78.3947 23.5041 80.8932 23.2652 82.1157 23.3468C81.9387 23.7751 78.7915 28.0526 78.2902 28.7141C77.6709 29.5329 77.2634 29.8971 77.2634 30.7334C77.2634 32.4992 77.1133 32.5458 77.9577 32.5458C79.8557 32.5487 85.2361 32.6856 86.7481 32.47C86.8205 31.3861 86.8554 30.5498 86.7294 29.4659C85.8769 29.2444 82.7081 29.3872 81.5634 29.3872L84.1853 25.7216V25.7187ZM64.6582 17.3647C65.0067 17.6386 65.8967 17.49 66.4007 17.4929C67.1058 17.4987 67.6178 17.7085 67.6902 16.9392C67.8805 14.9345 67.3417 10.8289 67.9717 9.57595C68.3363 8.84749 69.1405 8.17148 70.1566 8.10446C73.848 7.8597 71.9875 14.7131 72.4889 17.1257C72.6041 17.6764 73.2958 17.4958 73.9017 17.4929C74.4673 17.49 75.1161 17.5307 75.6174 17.4317C75.8211 16.2895 75.6764 13.1192 75.6764 11.7176C75.6764 9.89648 75.6281 8.32591 74.8078 6.9972C73.5907 5.03036 71.2905 4.38057 69.2022 5.35962C68.0923 5.87829 68.1084 6.10265 67.5159 6.44649C67.4221 6.00358 67.2184 5.49366 67.0012 5.17896C66.3793 5.0391 65.0925 4.94294 64.6126 5.24015C64.299 5.56942 64.4973 14.2585 64.4866 16.0214C64.4839 16.4089 64.4357 16.7935 64.5322 17.1286C64.6099 17.4084 64.5161 17.2044 64.6582 17.3676V17.3647ZM67.5267 20.1416C67.2103 19.9376 64.8727 19.856 64.5644 20.0891C64.2695 20.3135 64.4089 22.6708 64.4089 23.1982C64.4089 26.4704 63.7789 31.6192 68.0575 32.4817C70.1726 32.91 71.3334 31.8931 72.5157 31.0422C72.5988 31.2375 72.7006 31.4997 72.7945 31.7416C72.9741 32.202 72.8776 32.0971 73.143 32.2952C73.521 32.4409 75.1053 32.4671 75.4297 32.2631C75.6978 32.0242 75.6067 31.3278 75.604 30.8995C75.5959 29.1716 75.7809 20.4009 75.478 20.0978C75.0732 19.8997 72.8669 19.8735 72.5291 20.1386C72.2101 20.6573 72.4004 25.0252 72.4031 26.0275C72.4058 27.0299 72.3548 27.6971 71.8508 28.3469C70.7973 29.7019 68.918 29.7572 68.0494 28.4052C67.1138 26.9454 67.9931 21.3945 67.5267 20.1357V20.1416ZM47.9594 23.0933C49.6429 22.7116 50.9673 23.9762 51.2541 25.4418C51.6268 27.3591 50.4847 28.8569 49.1095 29.1803C45.3804 30.0544 44.091 23.9674 47.9594 23.0933ZM42.5227 27.4058C43.0964 30.5411 45.8978 33.1693 49.5357 32.4729C52.4766 31.9106 55.1145 28.9297 54.4148 24.9465C53.8572 21.7617 51.0128 19.0751 47.3669 19.8035C44.4154 20.3921 41.7962 23.4284 42.5227 27.4058ZM92.2974 17.4317C92.5038 16.2924 92.3591 12.9036 92.3564 11.4874C92.351 9.72165 92.9006 8.21228 94.7504 8.10155C98.5142 7.87718 96.6913 14.4596 97.2087 17.4229C97.7824 17.5541 99.7394 17.5628 100.289 17.4084C100.49 16.2312 100.348 13.2416 100.348 11.8284C100.348 9.93436 100.372 8.50075 99.5383 7.07296C98.9271 6.02398 97.9003 5.1236 96.3026 4.94586C94.4448 4.73897 93.4957 5.57233 92.3564 6.31536C92.3564 1.17243 92.8684 1.49878 90.7854 1.50169C89.2413 1.50169 89.1743 1.356 89.1796 2.53611L89.185 13.53C89.185 14.0021 89.0134 17.0412 89.3566 17.3676C89.7185 17.6531 91.7881 17.5308 92.2974 17.4346V17.4317ZM34.692 22.8602C38.3567 22.2657 39.11 28.3906 35.4936 28.9822C31.7297 29.597 31.0917 23.4459 34.692 22.8602ZM38.0377 20.6748C37.5659 20.3863 37.3326 20.1095 36.7589 19.8502C33.7323 18.4923 29.2955 20.9778 29.1106 25.6196C28.9202 30.4012 33.6277 34.1105 37.649 31.4618C37.7374 32.2573 37.6248 34.8914 37.6945 35.244C37.775 35.6461 37.6517 35.3489 37.8366 35.5762C38.1235 35.8093 40.4048 35.8064 40.7131 35.5908C40.9035 35.4072 40.882 35.0663 40.8794 34.6904C40.866 32.2369 41.0348 20.1212 40.748 19.821C40.2494 19.5326 39.0671 19.652 38.4264 19.7482C38.2602 20.0017 38.1288 20.2843 38.0377 20.6777V20.6748ZM32.1077 16.6304C33.609 18.0611 36.1665 18.0494 38.0672 16.8314C42.9758 13.6903 41.2091 5.26346 35.3435 4.91963C33.7618 4.82639 33.4535 5.24307 32.3624 5.77339C32.3329 4.8497 32.542 2.20684 32.2364 1.60659C31.8504 1.37348 29.6601 1.37348 29.2741 1.60659C28.9899 1.91546 29.1561 11.7322 29.1561 13.5271C29.1561 13.9992 28.9846 17.0383 29.3277 17.3647C29.703 17.659 31.1507 17.5715 31.6145 17.4258C31.9898 17.0791 31.8209 16.9451 32.1131 16.6333L32.1077 16.6304Z" fill="#FF6633"/>
<path fill-rule="evenodd" clip-rule="evenodd" d="M10.7184 11.6543C11.9262 11.3043 13.2126 11.4056 14.3012 12.161C14.8434 12.5387 15.2793 13.0454 15.5962 13.6464C17.4163 13.8537 18.8047 14.5193 19.5341 16.4193C22.126 16.995 23.5315 19.6204 22.8128 22.4531C22.2897 24.5166 20.88 26.1886 20.7673 26.4696C20.5313 27.2595 20.2846 28.0126 19.9274 28.7519C18.5113 31.6859 15.9661 33.7033 12.9893 34.4011C10.7801 34.9193 8.41989 34.6683 6.36375 33.6457C4.06097 32.4988 2.32803 30.5137 1.26063 28.0379C0.809855 26.9924 0.110302 24.1458 0.0188714 22.9851C-0.221401 19.9037 1.91128 18.5634 1.9538 18.4758C2.52365 17.2575 1.36057 6.12712 2.38332 3.62836C3.79943 0.169247 8.70906 -0.130143 10.2761 3.52933C10.9459 5.09307 10.7205 9.76818 10.7227 11.6566L10.7184 11.6543ZM9.33419 17.3819C11.2436 17.4234 11.6349 18.2409 12.5258 19.2381C12.7916 18.9618 13.5358 17.1309 13.6229 16.8729C14.3969 14.6229 11.688 13.1283 10.4356 14.8601C10.1528 15.2516 9.50855 16.8453 9.33207 17.3819H9.33419ZM4.47772 18.4781C5.10711 18.386 5.65995 18.2156 6.25531 18.0636C7.09945 17.8471 7.36949 18.006 7.68419 17.2483C8.46879 15.3622 8.23064 15.5349 8.23064 13.0592C8.23064 11.4862 8.23064 9.91327 8.23064 8.34031C8.23064 6.88712 8.47304 5.01707 7.66717 4.16727C6.75924 3.21152 5.32612 3.56158 4.77328 4.52423C4.29486 5.35562 4.48198 7.82674 4.48198 8.99437C4.48198 12.1564 4.48623 15.3184 4.48198 18.4781H4.47772ZM6.92935 25.7464C6.76775 25.6497 6.65506 25.4862 6.61678 25.2213C6.35737 23.4595 10.3399 24.4567 11.2861 22.3357C11.8517 21.0667 11.2479 19.8576 10.5547 19.3878C9.55108 18.7084 8.48793 19.1783 7.42052 19.4546C5.07309 20.0626 2.81921 20.1225 2.51515 22.1445C2.28551 23.6714 3.61232 27.3148 4.26297 28.3028C5.21768 29.7514 6.5296 30.9812 8.5666 31.6375C11.6008 32.6163 14.9412 31.3957 16.7805 28.9361C17.2058 28.3672 17.9393 27.3424 18.086 26.4719C16.7507 26.4903 15.5706 25.8201 15.2134 24.9657L15.0986 24.9818C14.5479 26.359 13.4486 27.5082 11.7539 27.8974C9.4724 28.4202 7.80326 27.3516 6.93147 25.7464H6.92935ZM12.8724 22.8976C13.708 23.3214 14.3459 23.8764 15.392 22.9851C15.8385 22.6051 17.6183 19.0009 17.3525 17.8034C17.1398 16.8384 16.3722 16.3133 15.2751 16.3041C15.1411 17.504 14.5649 18.6347 14.1248 19.6412C13.4039 21.2878 12.8235 21.8474 12.8745 22.8976H12.8724ZM16.5126 24.2426C19.5447 26.511 20.6142 21.2763 20.4739 20.5716C20.3144 19.7655 19.7573 19.176 18.9366 19.0585L17.2589 23.045C16.9782 23.6461 16.7252 23.7705 16.5105 24.2426H16.5126Z" fill="#FF6633"/>
</svg>
