<svg width="24" height="24" viewBox="0 0 24 24" fill="none" xmlns="http://www.w3.org/2000/svg">
<g clip-path="url(#clip0_873_2878)">
<path d="M19.455 20.27L18.7868 19.9295L19.455 20.27ZM17.27 22.455L16.9295 21.7868L17.27 22.455ZM17.27 1.54497L16.9295 2.21322L17.27 1.54497ZM19.455 3.73005L18.7868 4.07054L19.455 3.73005ZM4.54497 3.73005L5.21322 4.07054L4.54497 3.73005ZM6.73005 1.54497L7.07054 2.21322L6.73005 1.54497ZM4.54497 20.27L5.21322 19.9295L4.54497 20.27ZM6.73005 22.455L7.07054 21.7868L6.73005 22.455ZM14.25 16C14.25 16.4142 14.5858 16.75 15 16.75C15.4142 16.75 15.75 16.4142 15.75 16L14.25 16ZM15.75 8C15.75 7.58579 15.4142 7.25 15 7.25C14.5858 7.25 14.25 7.58579 14.25 8L15.75 8ZM8.25 8C8.25 8.41421 8.58579 8.75 9 8.75C9.41421 8.75 9.75 8.41421 9.75 8L8.25 8ZM9.75 4C9.75 3.58579 9.41421 3.25 9 3.25C8.58579 3.25 8.25 3.58579 8.25 4L9.75 4ZM4.75 15L4.75 9L3.25 9L3.25 15L4.75 15ZM19.25 9L19.25 15L20.75 15L20.75 9L19.25 9ZM19.25 15C19.25 16.4125 19.2494 17.4268 19.1844 18.2229C19.12 19.0103 18.9964 19.518 18.7868 19.9295L20.1233 20.6104C20.4586 19.9523 20.6075 19.2252 20.6794 18.3451C20.7506 17.4737 20.75 16.3878 20.75 15L19.25 15ZM12 23.75C13.3878 23.75 14.4737 23.7506 15.3451 23.6794C16.2252 23.6075 16.9523 23.4586 17.6104 23.1233L16.9295 21.7868C16.518 21.9964 16.0103 22.12 15.2229 22.1844C14.4268 22.2494 13.4125 22.25 12 22.25L12 23.75ZM18.7868 19.9295C18.3793 20.7291 17.7291 21.3793 16.9295 21.7868L17.6104 23.1233C18.6924 22.572 19.572 21.6924 20.1233 20.6104L18.7868 19.9295ZM12 1.75C13.4125 1.75 14.4268 1.75058 15.2229 1.81563C16.0103 1.87996 16.518 2.00359 16.9295 2.21322L17.6104 0.876712C16.9523 0.541377 16.2252 0.392522 15.3451 0.320611C14.4737 0.249416 13.3878 0.25 12 0.25L12 1.75ZM20.75 9C20.75 7.61224 20.7506 6.52632 20.6794 5.65494C20.6075 4.77479 20.4586 4.04768 20.1233 3.38955L18.7868 4.07054C18.9964 4.48197 19.12 4.9897 19.1844 5.77708C19.2494 6.57322 19.25 7.58749 19.25 9L20.75 9ZM16.9295 2.21322C17.7291 2.62068 18.3793 3.27085 18.7868 4.07054L20.1233 3.38955C19.572 2.30762 18.6924 1.42798 17.6104 0.876712L16.9295 2.21322ZM4.75 9C4.75 7.58749 4.75058 6.57322 4.81563 5.77708C4.87996 4.9897 5.00359 4.48197 5.21322 4.07054L3.87671 3.38955C3.54138 4.04768 3.39252 4.77479 3.32061 5.65494C3.24942 6.52632 3.25 7.61224 3.25 9L4.75 9ZM12 0.25C10.6122 0.25 9.52632 0.249416 8.65493 0.320612C7.77479 0.392523 7.04768 0.541378 6.38955 0.876713L7.07054 2.21322C7.48197 2.00359 7.9897 1.87996 8.77708 1.81563C9.57322 1.75058 10.5875 1.75 12 1.75L12 0.25ZM5.21322 4.07054C5.62068 3.27085 6.27085 2.62068 7.07054 2.21322L6.38955 0.876713C5.30762 1.42798 4.42798 2.30762 3.87671 3.38955L5.21322 4.07054ZM3.25 15C3.25 16.3878 3.24942 17.4737 3.32061 18.3451C3.39252 19.2252 3.54138 19.9523 3.87671 20.6104L5.21322 19.9295C5.00359 19.518 4.87996 19.0103 4.81563 18.2229C4.75058 17.4268 4.75 16.4125 4.75 15L3.25 15ZM12 22.25C10.5875 22.25 9.57322 22.2494 8.77708 22.1844C7.9897 22.12 7.48197 21.9964 7.07054 21.7868L6.38955 23.1233C7.04768 23.4586 7.77479 23.6075 8.65494 23.6794C9.52632 23.7506 10.6122 23.75 12 23.75L12 22.25ZM3.87671 20.6104C4.42798 21.6924 5.30762 22.572 6.38955 23.1233L7.07054 21.7868C6.27085 21.3793 5.62068 20.7291 5.21322 19.9295L3.87671 20.6104ZM15.75 16L15.75 8L14.25 8L14.25 16L15.75 16ZM9.75 8L9.75 4L8.25 4L8.25 8L9.75 8Z" fill="#2D264B"/>
</g>
<defs>
<clipPath id="clip0_873_2878">
<rect width="24" height="24" fill="white" transform="translate(0 24) rotate(-90)"/>
</clipPath>
</defs>
</svg>
