<svg width="8" height="7" viewBox="0 0 8 7" fill="none" xmlns="http://www.w3.org/2000/svg">
<path d="M7.46639 2.64522C7.41833 2.49731 7.28647 2.39226 7.13046 2.37827L5.01137 2.18684L4.17342 0.23557C4.11163 0.0925673 3.97092 0 3.81458 0C3.65824 0 3.51753 0.0925672 3.45574 0.235904L2.61779 2.18684L0.498361 2.37827C0.342636 2.39259 0.211109 2.49731 0.162767 2.64522C0.114425 2.79312 0.15907 2.95535 0.276872 3.05762L1.87866 4.45521L1.40633 6.52518C1.37177 6.67738 1.43114 6.83471 1.55808 6.92599C1.6263 6.97503 1.70613 7 1.78662 7C1.85603 7 1.92487 6.98139 1.98666 6.9446L3.81458 5.85771L5.64183 6.9446C5.77554 7.02463 5.9441 7.01733 6.07075 6.92599C6.19774 6.83443 6.25706 6.67705 6.2225 6.52518L5.75017 4.45521L7.35195 3.0579C7.46975 2.95535 7.51474 2.7934 7.46639 2.64522Z" fill="#E0E0E0"/>
</svg>
