<svg width="14" height="14" viewBox="0 0 14 14" fill="none" xmlns="http://www.w3.org/2000/svg">
<path d="M13.3267 5.49152C13.2447 5.23051 13.0198 5.04513 12.7537 5.02044L9.13879 4.68262L7.70937 1.2392C7.60397 0.986841 7.36393 0.823486 7.09723 0.823486C6.83054 0.823486 6.5905 0.986841 6.4851 1.23979L5.05568 4.68262L1.44021 5.02044C1.17457 5.04572 0.9502 5.23051 0.867735 5.49152C0.78527 5.75253 0.861428 6.03882 1.06238 6.21929L3.79481 8.68563L2.98908 12.3385C2.93012 12.6071 3.03141 12.8848 3.24794 13.0458C3.36433 13.1324 3.5005 13.1764 3.63781 13.1764C3.75621 13.1764 3.87365 13.1436 3.97905 13.0787L7.09723 11.1606L10.2143 13.0787C10.4424 13.2199 10.7299 13.207 10.946 13.0458C11.1626 12.8843 11.2638 12.6065 11.2048 12.3385L10.3991 8.68563L13.1315 6.21978C13.3325 6.03882 13.4092 5.75303 13.3267 5.49152Z" fill="#333333"/>
</svg>
