<svg width="14" height="14" viewBox="0 0 14 14" fill="none" xmlns="http://www.w3.org/2000/svg">
<path d="M13.1324 5.49152C13.0504 5.23051 12.8255 5.04513 12.5593 5.02044L8.94446 4.68262L7.51503 1.2392C7.40963 0.986841 7.1696 0.823486 6.9029 0.823486C6.6362 0.823486 6.39616 0.986841 6.29077 1.23979L4.86134 4.68262L1.24588 5.02044C0.98023 5.04572 0.755864 5.23051 0.673399 5.49152C0.590934 5.75253 0.667092 6.03882 0.868047 6.21929L3.60048 8.68563L2.79475 12.3385C2.73579 12.6071 2.83708 12.8848 3.05361 13.0458C3.17 13.1324 3.30616 13.1764 3.44348 13.1764C3.56187 13.1764 3.67931 13.1436 3.78471 13.0787L6.9029 11.1606L10.0199 13.0787C10.248 13.2199 10.5356 13.207 10.7516 13.0458C10.9682 12.8843 11.0694 12.6065 11.0105 12.3385L10.2047 8.68563L12.9372 6.21978C13.1381 6.03882 13.2149 5.75303 13.1324 5.49152Z" fill="#E0E0E0"/>
</svg>
