<svg width="8" height="7" viewBox="0 0 8 7" fill="none" xmlns="http://www.w3.org/2000/svg">
<path d="M7.42782 2.64522C7.37976 2.49731 7.24789 2.39226 7.09189 2.37827L4.97279 2.18684L4.13485 0.23557C4.07306 0.0925673 3.93235 0 3.77601 0C3.61966 0 3.47895 0.0925672 3.41717 0.235904L2.57922 2.18684L0.459787 2.37827C0.304061 2.39259 0.172535 2.49731 0.124193 2.64522C0.0758511 2.79312 0.120496 2.95535 0.238298 3.05762L1.84008 4.45521L1.36775 6.52518C1.33319 6.67738 1.39257 6.83471 1.5195 6.92599C1.58773 6.97503 1.66755 7 1.74805 7C1.81745 7 1.8863 6.98139 1.94808 6.9446L3.77601 5.85771L5.60326 6.9446C5.73697 7.02463 5.90552 7.01733 6.03217 6.92599C6.15916 6.83443 6.21848 6.67705 6.18392 6.52518L5.71159 4.45521L7.31338 3.0579C7.43118 2.95535 7.47616 2.7934 7.42782 2.64522Z" fill="#FFC107"/>
</svg>
