<svg width="16" height="16" viewBox="0 0 16 16" fill="none" xmlns="http://www.w3.org/2000/svg">
<ellipse cx="7.71905" cy="4.85201" rx="3.18535" ry="3.18536" stroke="#333333" stroke-width="1.5" stroke-linecap="round" stroke-linejoin="round"/>
<path fill-rule="evenodd" clip-rule="evenodd" d="M2.66651 12.4676C2.66566 12.2437 2.71574 12.0225 2.81297 11.8207C3.11808 11.2105 3.97849 10.8871 4.69245 10.7407C5.20736 10.6308 5.72937 10.5574 6.25462 10.521C7.22706 10.4356 8.20513 10.4356 9.17758 10.521C9.70277 10.5578 10.2248 10.6312 10.7397 10.7407C11.4537 10.8871 12.3141 11.18 12.6192 11.8207C12.8148 12.2319 12.8148 12.7093 12.6192 13.1205C12.3141 13.7612 11.4537 14.0542 10.7397 14.1945C10.2254 14.3089 9.70323 14.3844 9.17758 14.4203C8.38608 14.4874 7.5909 14.4996 6.79771 14.4569C6.61465 14.4569 6.43768 14.4569 6.25462 14.4203C5.73093 14.3849 5.21072 14.3094 4.69855 14.1945C3.97849 14.0542 3.12418 13.7612 2.81297 13.1205C2.71624 12.9165 2.66621 12.6934 2.66651 12.4676Z" stroke="#333333" stroke-width="1.5" stroke-linecap="round" stroke-linejoin="round"/>
</svg>
