<svg width="14" height="11" viewBox="0 0 14 11" fill="none" xmlns="http://www.w3.org/2000/svg">
<path d="M13.6655 2.31346C13.5869 2.01739 13.4319 1.74717 13.216 1.52986C13.0001 1.31254 12.7309 1.15576 12.4353 1.07522C11.3507 0.782471 6.99998 0.782471 6.99998 0.782471C6.99998 0.782471 2.64925 0.782471 1.56404 1.07522C1.26862 1.15591 0.999569 1.31274 0.783792 1.53004C0.568014 1.74734 0.413075 2.01749 0.334471 2.31346C0.043457 3.40562 0.043457 5.68384 0.043457 5.68384C0.043457 5.68384 0.043457 7.96206 0.334471 9.05422C0.413072 9.35029 0.56808 9.62051 0.783974 9.83782C0.999867 10.0551 1.26907 10.2119 1.56462 10.2925C2.64925 10.5852 6.99998 10.5852 6.99998 10.5852C6.99998 10.5852 11.3507 10.5852 12.4359 10.2925C12.7315 10.212 13.0007 10.0552 13.2166 9.83789C13.4325 9.62056 13.5875 9.35031 13.6661 9.05422C13.9565 7.96206 13.9565 5.68384 13.9565 5.68384C13.9565 5.68384 13.9565 3.40562 13.6655 2.31346ZM5.57679 7.75221V3.61547L9.21331 5.68384L5.57679 7.75221Z" fill="white"/>
</svg>
